<svg width="785" height="447" viewBox="0 0 785 447" fill="none" xmlns="http://www.w3.org/2000/svg">
<rect width="785" height="447" fill="#E5E5E5"/>
<g id="undraw_portfolio_website_lidw 1" clip-path="url(#clip0_0:1)">
<path id="cercle1" d="M699.028 167.172C682.024 167.172 665.402 162.27 651.264 153.085C637.126 143.901 626.107 130.846 619.6 115.573C613.093 100.3 611.39 83.4933 614.708 67.2792C618.025 51.0651 626.213 36.1715 638.236 24.4818C650.26 12.7921 665.579 4.83127 682.255 1.60609C698.932 -1.6191 716.219 0.0361857 731.928 6.36261C747.637 12.689 761.064 23.4025 770.511 37.1481C779.958 50.8938 785 67.0543 785 83.586C784.974 105.747 775.908 126.993 759.791 142.663C743.674 158.333 721.821 167.147 699.028 167.172V167.172ZM699.028 1.30604C682.29 1.30604 665.928 6.13167 652.011 15.1727C638.093 24.2137 627.246 37.0641 620.841 52.0988C614.436 67.1335 612.76 83.6773 616.025 99.638C619.291 115.599 627.351 130.26 639.186 141.767C651.022 153.274 666.101 161.11 682.518 164.285C698.934 167.46 715.95 165.83 731.414 159.603C746.878 153.375 760.095 142.829 769.394 129.298C778.693 115.767 783.657 99.8594 783.657 83.586C783.631 61.7716 774.707 40.8577 758.841 25.4325C742.976 10.0074 721.465 1.33072 699.028 1.30604V1.30604Z" fill="#3F3D56"/>
<path id="cercle2" d="M699.316 125.797C723.158 125.797 742.486 107.006 742.486 83.8259C742.486 60.6458 723.158 41.8546 699.316 41.8546C675.474 41.8546 656.147 60.6458 656.147 83.8259C656.147 107.006 675.474 125.797 699.316 125.797Z" fill="#D67F7F"/>
<path id="Vector" d="M702.165 83.9233H43.1498V405.811H702.165V83.9233Z" fill="#3F3D56"/>
<path id="tableau" opacity="0.1" d="M475.432 176.981H228.302V341.738H475.432V176.981Z" fill="#CF7777"/>
<path id="cercle3" d="M758.401 41.757C768.015 41.757 775.808 34.1799 775.808 24.8331C775.808 15.4863 768.015 7.90926 758.401 7.90926C748.788 7.90926 740.994 15.4863 740.994 24.8331C740.994 34.1799 748.788 41.757 758.401 41.757Z" fill="#2F2E41"/>
<path id="point1" d="M62.7633 103.755C67.0962 103.755 70.6087 100.34 70.6087 96.1276C70.6087 91.9149 67.0962 88.4999 62.7633 88.4999C58.4304 88.4999 54.9179 91.9149 54.9179 96.1276C54.9179 100.34 58.4304 103.755 62.7633 103.755Z" fill="#6C63FF"/>
<path id="point2" d="M87.0841 103.755C91.417 103.755 94.9295 100.34 94.9295 96.1276C94.9295 91.9149 91.417 88.4999 87.0841 88.4999C82.7512 88.4999 79.2387 91.9149 79.2387 96.1276C79.2387 100.34 82.7512 103.755 87.0841 103.755Z" fill="#6C63FF"/>
<path id="point3" d="M111.405 103.755C115.738 103.755 119.25 100.34 119.25 96.1276C119.25 91.9149 115.738 88.4999 111.405 88.4999C107.072 88.4999 103.559 91.9149 103.559 96.1276C103.559 100.34 107.072 103.755 111.405 103.755Z" fill="#6C63FF"/>
<path id="carre1" d="M134.941 203.678H119.25V218.933H134.941V203.678Z" fill="#6C63FF"/>
<path id="carre3" d="M612.727 336.399H597.036V351.654H612.727V336.399Z" fill="white"/>
<path id="carre2" d="M557.404 230.325L545.206 239.921L555.076 251.781L567.274 242.185L557.404 230.325Z" fill="#6C63FF"/>
<path id="joint" d="M502.106 437.847H9.41461V180.032H10.9836V436.321H502.106V437.847Z" fill="#3F3D56"/>
<path id="bout1" d="M511.521 447C509.504 447 507.532 446.418 505.855 445.329C504.177 444.239 502.87 442.691 502.098 440.879C501.326 439.067 501.124 437.073 501.518 435.149C501.911 433.226 502.883 431.459 504.309 430.072C505.736 428.686 507.553 427.741 509.531 427.359C511.51 426.976 513.56 427.172 515.424 427.923C517.288 428.673 518.881 429.944 520.001 431.575C521.122 433.206 521.72 435.123 521.72 437.084C521.717 439.713 520.641 442.233 518.729 444.092C516.817 445.951 514.225 446.997 511.521 447V447ZM511.521 428.694C509.814 428.694 508.146 429.186 506.726 430.108C505.307 431.03 504.201 432.34 503.548 433.873C502.895 435.406 502.724 437.093 503.057 438.721C503.39 440.348 504.212 441.843 505.419 443.017C506.626 444.19 508.163 444.989 509.837 445.313C511.511 445.637 513.247 445.471 514.824 444.836C516.4 444.201 517.748 443.125 518.697 441.745C519.645 440.366 520.151 438.743 520.151 437.084C520.148 434.86 519.238 432.727 517.62 431.154C516.003 429.581 513.809 428.696 511.521 428.694V428.694Z" fill="#3F3D56"/>
<path id="bout2" d="M10.199 180.795C8.18184 180.795 6.20996 180.213 4.53273 179.123C2.85551 178.034 1.54827 176.485 0.77633 174.673C0.00438867 172.861 -0.197587 170.868 0.195946 168.944C0.589478 167.021 1.56084 165.254 2.9872 163.867C4.41357 162.48 6.23086 161.536 8.20928 161.153C10.1877 160.771 12.2384 160.967 14.102 161.717C15.9657 162.468 17.5585 163.739 18.6792 165.37C19.7999 167 20.3981 168.917 20.3981 170.879C20.3951 173.508 19.3196 176.028 17.4075 177.887C15.4955 179.746 12.9031 180.792 10.199 180.795V180.795ZM10.199 162.488C8.49217 162.488 6.82366 162.98 5.40447 163.902C3.98528 164.824 2.87916 166.135 2.22598 167.668C1.5728 169.201 1.40189 170.888 1.73488 172.516C2.06787 174.143 2.8898 175.638 4.09672 176.812C5.30364 177.985 6.84135 178.784 8.5154 179.108C10.1894 179.432 11.9246 179.265 13.5016 178.63C15.0785 177.995 16.4263 176.92 17.3746 175.54C18.3228 174.16 18.829 172.538 18.829 170.879C18.8264 168.654 17.9163 166.521 16.2985 164.949C14.6806 163.376 12.487 162.491 10.199 162.488V162.488Z" fill="#3F3D56"/>
<path id="plante1" d="M157.693 386.742L150.687 405.811H134.941V386.36C136.102 361.959 150.185 350.487 150.624 350.136C140.041 360.06 141.217 394.369 141.217 394.369C148.278 364.621 154.555 363.858 154.555 363.858C150.757 369.404 148.796 394.628 148.678 396.2C149.149 390.899 157.693 386.742 157.693 386.742Z" fill="#F2F2F2"/>
<path id="plante2" d="M644.893 389.335V405.811H632.788L626.849 389.632C626.849 389.632 633.619 392.927 633.996 397.13C633.902 395.834 632.348 375.88 629.336 371.486C629.336 371.486 634.317 372.089 639.919 395.681C639.919 395.681 640.845 368.473 632.458 360.601C632.811 360.884 643.975 369.976 644.893 389.335Z" fill="#F2F2F2"/>
<path id="bras2" d="M433.028 341.735H413.946L413.818 340.213L412.428 323.255V323.248L410.984 305.617L419.789 269.25L427.272 276.525V311.18C427.272 311.18 431.671 317.6 430.791 319.31C429.911 321.021 429.031 321.021 429.911 322.301C430.791 323.588 431.671 324.443 430.791 325.299C430.363 325.855 430.131 326.53 430.131 327.225C430.131 327.92 430.363 328.595 430.791 329.151C431.671 330.007 433.431 331.287 432.108 332.573C430.791 333.853 429.031 332.998 430.791 337.706C431.114 338.576 431.519 339.416 432 340.213C432.314 340.738 432.657 341.246 433.028 341.735V341.735Z" fill="#D0CDE1"/>
<path id="Vector_2" d="M374.24 224.537L371.6 250.209L398.444 254.06L400.424 239.299L402.405 224.537H374.24Z" fill="#FFB9B9"/>
<path id="Vector_3" opacity="0.1" d="M374.24 224.537L371.6 250.209L398.444 254.06L400.424 239.299L402.405 224.537H374.24Z" fill="black"/>
<path id="Vector_4" d="M388.983 232.881C400.649 232.881 410.106 223.686 410.106 212.344C410.106 201.001 400.649 191.807 388.983 191.807C377.316 191.807 367.859 201.001 367.859 212.344C367.859 223.686 377.316 232.881 388.983 232.881Z" fill="#FFB9B9"/>
<path id="bras1" d="M335.604 341.735C335.53 341.585 335.449 341.428 335.369 341.258C335.214 340.938 335.046 340.592 334.865 340.213C333.696 337.68 332.266 334.075 333.092 332.998C334.415 331.287 334.852 329.576 333.972 328.72C333.092 327.865 330.452 329.576 333.092 327.434C335.731 325.299 336.611 326.578 335.731 324.012C334.852 321.446 333.092 322.732 334.852 321.446C336.611 320.166 337.935 320.59 337.055 319.31C336.175 318.024 334.415 318.024 336.175 317.169C337.935 316.313 339.258 317.169 338.814 315.027C338.371 312.891 337.935 313.747 338.814 312.891C339.043 312.669 339.842 310.514 340.91 307.439C343.899 298.747 348.936 282.715 348.936 282.082C348.936 281.227 341.897 254.277 341.897 254.277L338.814 252.559C338.814 252.559 325.173 261.545 320.774 281.658C316.368 301.764 313.291 306.903 313.291 306.903C313.291 306.903 308.892 307.759 311.968 310.749C315.051 313.747 315.051 313.316 312.412 315.027C309.772 316.738 308.012 313.316 309.772 316.738C311.532 320.166 313.728 319.31 311.968 321.446C310.208 323.588 307.132 323.588 308.892 325.299C310.652 327.009 307.132 330.862 309.329 332.573C311.532 334.284 312.412 334.709 312.412 337.706C312.412 338.546 312.482 339.384 312.62 340.213C312.695 340.727 312.803 341.235 312.942 341.735C313.043 342.133 313.144 342.434 313.211 342.623L335.604 341.735Z" fill="#D0CDE1"/>
<path id="Vector_5" d="M335.604 341.735H337.397L337.491 341.128L335.369 341.258L327.651 341.735L313.211 342.623L335.604 341.735Z" fill="#3F3D56"/>
<path id="Vector_6" d="M344.973 323.588L341.017 310.325L340.91 307.439L338.814 252.559L364.781 243.58L369.18 240.152C369.18 240.152 370.06 230.311 371.383 229.455C371.86 229.149 372.626 229.508 373.64 230.344C375.42 231.813 377.972 234.745 381.062 238.017C385.904 243.149 396.026 242.294 399.102 240.583C399.498 240.359 399.909 240.16 400.332 239.989C402.541 239.101 403.502 239.727 403.502 239.727C405.705 241.438 400.426 247.002 400.426 247.002C400.426 247.002 402.185 250.848 413.624 254.701C425.069 258.554 427.272 276.525 427.272 276.525C427.272 276.525 413.624 312.46 414.067 315.027C414.443 317.227 412.885 321.942 412.428 323.248V323.255C412.354 323.464 412.307 323.588 412.307 323.588L413.308 340.213L413.402 341.735H346.834C346.636 341.206 346.386 340.696 346.088 340.213C346.015 340.096 345.934 339.972 345.853 339.848C341.897 333.853 344.973 323.588 344.973 323.588Z" fill="#D0CDE1"/>
<path id="Vector_7" d="M367.713 214.974C367.713 214.974 365.519 211.775 366.363 208.33C366.867 206.374 367.066 204.356 366.953 202.343C366.953 202.343 368.725 196.765 370.497 193.648C372.269 190.531 371.425 189.218 376.993 188.234C382.561 187.25 380.283 180.196 394.963 187.824C395.459 188.496 396.148 189.011 396.943 189.303C397.739 189.595 398.606 189.651 399.435 189.464C402.472 188.89 403.569 192.992 403.569 192.992C403.569 192.992 405.594 191.843 406.353 193.484C407.112 195.124 412.526 192.499 412.526 203.573C412.526 214.646 406.365 224.538 406.365 224.538C406.365 224.538 406.817 205.911 396.777 204.024C386.738 202.137 375.939 196.642 373.323 203.696C371.911 207.655 370.028 211.44 367.713 214.974Z" fill="#2F2E41"/>
<path id="Vector_8" d="M406.585 219.403C407.679 219.403 408.566 218.254 408.566 216.836C408.566 215.418 407.679 214.269 406.585 214.269C405.492 214.269 404.605 215.418 404.605 216.836C404.605 218.254 405.492 219.403 406.585 219.403Z" fill="#FFB9B9"/>
<path id="Vector_9" d="M228.3 164.774V341.735H517.012V164.774H228.3ZM515.447 340.213H229.872V166.302H515.447V340.213Z" fill="white"/>
</g>
<defs>
<clipPath id="clip0_0:1">
<rect width="785" height="447" fill="white"/>
</clipPath>
</defs>
</svg>
