<svg width="600" height="400" viewBox="0 0 600 400" fill="none" xmlns="http://www.w3.org/2000/svg">
<style>
body{
    
    text-align: center;
    margin-top: 50px;
}

#pti-carre1{
    animation: pti-carre1 3s infinite linear;
}

@keyframes pti-carre1 {
    to {
        transform: translateY(23px);
    }
}

#cercle2  {
    animation: cercle2 5s infinite linear;
    transform-origin: center;
}

@keyframes cercle2 {
    from {
        max-height: 0;
        color: fuchsia;
        opacity: 0;
        transform: scale(0);
    }
    to {
        max-height: 100px;
        color: gold;
    }
}

#tiret1, #tiret2, #tiret3{
    animation: bamm 2s infinite linear;
    transform-box:fill-box;
    transform-origin:center
}
@keyframes bamm {
    0% {
        transform: translate(0px);
       }
    50% {
        transform: translate(100px);
    }
    100% {
        transform:translate(0px);
    }   
}


#titer4, #pti-carre3, #pti-carre6,  #pti-carre7 {
    animation: titer4 350ms infinite linear;
    transform-origin: center;
    transform-box: fill-box;
}
@keyframes titer4 {
    from{
        transform: rotate(0deg);
    }
    to {
        transform: rotate(360deg);
    }
}

 #pti-carre8 {
    animation: pti-carre8 4s infinite linear;
    transform-origin: center;
    transform-box: fill-box;
}
@keyframes pti-carre8 {
    from{
        transform: translateY(0px);
    }
    50% {
        transform: translate(100px)
    }
    to {
        transform: translateX(0px);
    }
}

#pti-carre5 {
    animation: pti-carre5 4s infinite linear;
    transform-origin: center;
    transform-box: fill-box;
}
@keyframes pti-carre5 {
    from{
        transform: translateY(0px);
    }
    50% {
        transform: translate(-100px)
    }
    to {
        transform: translateX(0px);
    }
}
#pti-carre4 {
    animation: pti-carre4 4s infinite linear;
    transform-origin: center;
    transform-box: fill-box;
}
@keyframes pti-carre4 {
    from{
        transform: translateY(0px);
    }
    50% {
        transform: translate(-0px, -100px)
    }
    to {
        transform: translateX(0px);
    }
}

<!-- #pti-carre4 {
    animation: pti-carre4 2s infinite linear;
    transform-origin: center;
    transform-box: fill-box;
}
@keyframes pti-carre4 {
    from{
        transform: translate(0px);
    }
    to {
        transform: translate(-0px, -100px);
    }
} -->

#manche-g, #bras-g, #manche-g2, #jambe-g, #pied-g, #chaussure-g
, #bras-d, #jambe-d, #pied-d, #chaussure-d, #t-shirt, #tete, #cheveux, #oreille {
    animation:  2s infinite linear;
    transform-origin:center;
    transform-box:fill-box;
}

@keyframes manche-g {
    0% {
        transform: translate(0px);
    }
    50% {
        transform: translate(100px);
    }
    100% {
        transform: translate(0px);
    }
}
 #bras-d {
    animation:plante 1s infinite linear;
    transform-origin:bottom;
    transform-box:fill-box;
}
@keyframes plante {
    0% {
        transform:rotateZ(5deg);
    }
    50% {
        transform:rotateZ(-15deg);
    }
    100% {
        transform:rotateZ(10deg);
    }
}
#bras-g {
    animation:planta 2s infinite linear;
    transform-origin:bottom;
    transform-box:fill-box;
}
@keyframes planta {
    0% {
        transform:rotateZ(5deg);
    }
    50% {
        transform:rotateZ(-7deg);
    }
    100% {
        transform:rotateZ(10deg);
    }
}

 #cadre, #clavier, #triangle, #cadre2, #cercle1, #webcam {
    animation: boum 5s infinite linear;
    transform-origin:center;
    transform-box: fill-box;
}

@keyframes boum {
    0% {
        transform:  scale(0,0);
    }
    50% {
        transform: scale(1,1)
    }
    100% {
        transform: scale(0,0)
    }
}


</style>
<g id="codage" clip-path="url(#clip0_0:1)">
<path id="bras-d" d="M131.696 223.151C131.702 221.923 131.544 220.707 131.234 219.578C130.924 218.449 130.468 217.432 129.894 216.589C129.32 215.747 128.641 215.098 127.898 214.683C127.156 214.268 126.367 214.095 125.579 214.176C124.792 214.257 124.024 214.59 123.324 215.153C122.623 215.717 122.004 216.499 121.506 217.452C121.008 218.404 120.642 219.506 120.43 220.688C120.218 221.871 120.165 223.109 120.274 224.325L103.787 257.929C103.083 260.119 102.811 262.584 103.003 265.014C103.195 267.444 103.843 269.732 104.867 271.591L106.161 273.939L112.095 272.092L118.821 262.855L118.029 252.388L126.337 232.068L126.327 232.053C127.781 231.909 129.145 230.908 130.143 229.255C131.14 227.601 131.695 225.419 131.696 223.151V223.151Z" fill="#534141"/>
<path id="pied-g" d="M17.6801 387.439L14.9888 371.881L52.2617 348.323L56.2337 371.283L17.6801 387.439Z" fill="#534141"/>
<path id="chaussure-g" d="M8.67739 395.466L0 345.304L0.407643 345.133C3.7346 343.739 7.28109 344.459 10.267 347.135C13.2529 349.81 15.4338 354.222 16.3298 359.4L16.33 359.402L21.6298 390.039L8.67739 395.466Z" fill="#3C6835"/>
<path id="pied-d" d="M69.0219 384.953L60.6506 375.478L80.1493 320.711L92.505 334.695L69.0219 384.953Z" fill="#534141"/>
<path id="chaussure-d" d="M65.2559 400L38.2622 369.446L38.5105 368.915C40.537 364.578 43.5873 361.672 46.9905 360.835C50.3938 359.999 53.8711 361.3 56.6578 364.454L56.6585 364.455L73.1453 383.116L65.2559 400Z" fill="#3C6835"/>
<path id="jambe-d" d="M140.184 308.421L119.117 276.569C117.279 273.789 114.857 272.136 112.298 271.914C109.739 271.691 107.214 272.914 105.188 275.358L65.4111 344.135L68.9719 352.755L106.952 312.731L132.667 365.07L157.196 345.982L140.184 308.421Z" fill="#B5A93C"/>
<path id="bras-g" d="M131.085 315.194L115.655 313.347L104.481 309.131C103.85 307.599 102.933 306.403 101.854 305.704C100.774 305.004 99.5824 304.835 98.4391 305.219C97.2959 305.603 96.2552 306.521 95.4565 307.851C94.6577 309.181 94.1391 310.858 93.9699 312.66C93.8007 314.461 93.9891 316.299 94.5099 317.929C95.0306 319.559 95.8589 320.903 96.8837 321.78C97.9086 322.657 99.0812 323.026 100.244 322.837C101.408 322.648 102.506 321.911 103.393 320.724L103.391 320.736L110.117 325.046L138.997 340.44L142.558 336.13L131.085 315.194Z" fill="#534141"/>
<path id="jambe-g" d="M168.273 381.696L159.569 390.317H149.283L101.413 362.608L31.3876 382.312L29.4095 358.913L93.5008 315.195L149.679 344.135L168.273 381.696Z" fill="#B5A93C"/>
<path id="tete" d="M149.679 232.068C158.2 232.068 165.108 221.316 165.108 208.053C165.108 194.791 158.2 184.039 149.679 184.039C141.158 184.039 134.25 194.791 134.25 208.053C134.25 221.316 141.158 232.068 149.679 232.068Z" fill="#534141"/>
<path id="t-shirt" d="M189.601 303.932C189.601 318.425 188.134 332.828 185.254 346.61L184.098 352.14L178.56 391.548L172.625 394.011L168.273 385.39L159.57 375.538L153.24 359.529L147.812 345.453L146.118 341.056L140.184 294.875L117.634 275.17L110.117 273.323L111.699 266.55L118.425 252.388L125.15 251.156L127.129 248.693L128.711 249.924L137.435 255.155L165.718 236.557L169.856 237.609L184.098 256.082C187.739 271.399 189.603 287.601 189.601 303.932V303.932Z" fill="#3C6835"/>
<path id="manche-g2" opacity="0.1" d="M185.285 298.569L170.251 313.963L147.812 345.452L146.119 341.056L141.371 304.111H142.558L154.822 269.014L185.285 298.569Z" fill="black"/>
<path id="manche-g" d="M154.822 265.318L142.558 300.416L135.437 312.732L129.107 315.195L146.119 344.135L170.251 310.268L185.285 294.874L154.822 265.318Z" fill="#3C6835"/>
<path id="cheveux" d="M137.678 190.198L136.007 191.199C135.753 190.931 135.535 190.589 135.367 190.19C135.198 189.792 135.081 189.346 135.023 188.878C134.965 188.409 134.967 187.928 135.029 187.461C135.091 186.993 135.211 186.549 135.382 186.155C135.391 186.134 135.401 186.113 135.41 186.093L132.321 185.868C134.304 181.757 136.825 178.348 139.718 175.868C142.611 173.387 145.809 171.891 149.101 171.478C152.393 171.065 155.704 171.744 158.815 173.472C161.926 175.2 164.766 177.936 167.146 181.499C167.287 180.745 168.82 182.212 169.446 183.699C169.656 182.472 171.094 188.403 171.602 192.595C171.838 191.199 172.743 193.453 171.95 195.615C172.452 195.501 172.679 197.502 172.29 198.616C172.84 198.214 172.747 200.603 172.151 202.199C172.936 202.09 172.085 227.234 160.314 225.402C159.494 219.542 159.725 219.906 158.76 212.371C158.311 211.629 157.819 210.953 157.328 210.278L154.673 206.63C151.584 202.387 148.775 197.15 144.661 195.565C141.834 194.475 140.046 194.229 141.587 189.271C140.195 190.175 138.895 191.519 137.49 192.359C137.509 191.666 137.706 190.891 137.678 190.198Z" fill="#2C2F19"/>
<path id="oreille" d="M157.394 215.134C158.923 215.134 160.163 213.205 160.163 210.824C160.163 208.444 158.923 206.514 157.394 206.514C155.864 206.514 154.624 208.444 154.624 210.824C154.624 213.205 155.864 215.134 157.394 215.134Z" fill="#534141"/>
<path id="pti-carre6" d="M28.2482 109.025L27.4031 128.776L40.0932 130.091L40.9383 110.34L28.2482 109.025Z" fill="#E6E6E6"/>
<path id="pti-carre5" d="M20.0605 119.512L35.47 121.11L34.4438 145.093L19.0343 143.496L20.0605 119.512ZM34.7554 122.083L20.6859 120.625L19.7489 142.522L33.8184 143.981L34.7554 122.083Z" fill="#CCCCCC"/>
<path id="pti-carre3" d="M99.9622 50.4567L87.5278 54.6151L90.1996 73.9682L102.634 69.8098L99.9622 50.4567Z" fill="#E6E6E6"/>
<path id="pti-carre4" d="M91.2347 41.0828L94.479 64.583L79.3801 69.6325L76.1357 46.1323L91.2347 41.0828ZM93.6815 63.7808L90.7193 42.3241L76.9333 46.9345L79.8955 68.3912L93.6815 63.7808Z" fill="#CCCCCC"/>
<path id="pti-carre7" d="M86.8966 143.397L77.6143 156.929L86.3088 171.376L95.591 157.844L86.8966 143.397Z" fill="#E6E6E6"/>
<path id="pti-carre8" d="M96.2585 141.373L84.9872 157.805L74.4296 140.262L85.7009 123.83L96.2585 141.373ZM85.0182 156.328L95.3094 141.325L85.6699 125.307L75.3787 140.31L85.0182 156.328Z" fill="#CCCCCC"/>
<path id="cadre" d="M553.008 0H189.992C188.68 -2.40871e-06 187.38 0.417461 186.168 1.22855C184.956 2.03965 183.854 3.22848 182.927 4.72718C181.999 6.22589 181.263 8.00512 180.761 9.96327C180.258 11.9214 180 14.0202 180 16.1397V342.86C180 344.98 180.258 347.079 180.761 349.037C181.263 350.995 181.999 352.774 182.927 354.273C183.854 355.772 184.956 356.96 186.168 357.771C187.38 358.583 188.68 359 189.992 359H553.008C555.658 359 558.2 357.3 560.073 354.273C561.947 351.246 563 347.141 563 342.86V16.1397C563 11.8591 561.947 7.75397 560.073 4.7272C558.2 1.70043 555.658 2.43231e-06 553.008 0Z" fill="white"/>
<path id="cadre2" d="M549 28H194V348H549V28Z" fill="#CCCCCC"/>
<path id="webcam" d="M378.456 19.6475C380.547 19.6475 382.243 17.0086 382.243 13.7533C382.243 10.498 380.547 7.85902 378.456 7.85902C376.364 7.85902 374.669 10.498 374.669 13.7533C374.669 17.0086 376.364 19.6475 378.456 19.6475Z" fill="#3F3D56"/>
<path id="triangle" d="M448 344H194V28L448 344Z" fill="#6B3B3B" fill-opacity="0.32"/>
<path id="cercle2" d="M251.493 301.482C271.094 301.482 286.985 276.75 286.985 246.241C286.985 215.732 271.094 191 251.493 191C231.891 191 216 215.732 216 246.241C216 276.75 231.891 301.482 251.493 301.482Z" fill="#B5A93C"/>
<path id="cercle1" d="M258 307C249.693 307 241.573 303.188 234.666 296.046C227.759 288.903 222.376 278.752 219.197 266.874C216.018 254.997 215.186 241.928 216.807 229.319C218.428 216.71 222.428 205.128 228.302 196.038C234.175 186.948 241.659 180.757 249.806 178.249C257.953 175.741 266.398 177.028 274.073 181.948C281.747 186.868 288.307 195.199 292.922 205.888C297.537 216.577 300 229.144 300 242C300 250.536 298.914 258.988 296.803 266.874C294.692 274.761 291.599 281.926 287.698 287.962C283.798 293.998 279.168 298.786 274.073 302.052C268.977 305.319 263.516 307 258 307V307ZM258 177.85C249.802 177.85 241.788 181.612 234.971 188.661C228.154 195.71 222.842 205.729 219.704 217.451C216.567 229.173 215.746 242.071 217.345 254.515C218.945 266.959 222.893 278.389 228.69 287.361C234.487 296.333 241.873 302.442 249.913 304.918C257.954 307.393 266.288 306.123 273.863 301.267C281.437 296.412 287.91 288.189 292.465 277.64C297.02 267.091 299.451 254.688 299.451 242C299.451 233.576 298.379 225.234 296.296 217.451C294.213 209.668 291.159 202.596 287.31 196.639C283.461 190.682 278.892 185.957 273.863 182.733C268.833 179.509 263.443 177.85 258 177.85L258 177.85Z" fill="#3F3D56"/>
<path id="titer4" d="M477.914 196.912H443.422V208.129H477.914V196.912Z" fill="#3F3D56"/>
<path id="tiret1" d="M510.545 136.142H410.791V140.95H510.545V136.142Z" fill="#3F3D56"/>
<path id="tiret2" d="M510.545 155.029H410.791V159.837H510.545V155.029Z" fill="#3F3D56"/>
<path id="tiret3" d="M510.545 173.917H410.791V178.724H510.545V173.917Z" fill="#3F3D56"/>
<path id="pti-carre2" d="M537.268 47.89H522.854V70.3244H537.268V47.89Z" fill="#6C63FF"/>
<path id="pti-carre1" d="M543.96 80.7404H526.457V53.4985H543.96V80.7404ZM527.218 79.556H543.199V54.683H527.218L527.218 79.556Z" fill="#CCCCCC"/>
<path id="clavier" d="M587.645 346.779H551.609V342.738C551.609 342.633 551.596 342.529 551.57 342.431C551.544 342.334 551.507 342.246 551.459 342.171C551.411 342.097 551.354 342.038 551.292 341.998C551.229 341.957 551.162 341.937 551.095 341.937H538.74C538.672 341.937 538.605 341.958 538.543 341.998C538.48 342.038 538.423 342.097 538.376 342.171C538.328 342.246 538.29 342.334 538.264 342.431C538.238 342.529 538.225 342.633 538.225 342.738V346.779H530.503V342.738C530.503 342.633 530.49 342.529 530.464 342.431C530.438 342.334 530.4 342.246 530.352 342.171C530.304 342.097 530.248 342.038 530.185 341.998C530.123 341.957 530.056 341.937 529.988 341.937H517.633C517.566 341.937 517.499 341.957 517.436 341.998C517.374 342.038 517.317 342.097 517.269 342.171C517.221 342.246 517.183 342.334 517.158 342.431C517.132 342.529 517.118 342.633 517.118 342.738V342.738V346.779H509.397V342.738C509.397 342.633 509.383 342.529 509.357 342.431C509.332 342.334 509.294 342.246 509.246 342.171C509.198 342.097 509.141 342.038 509.079 341.998C509.016 341.957 508.949 341.937 508.882 341.937H496.527C496.459 341.937 496.392 341.957 496.33 341.998C496.267 342.038 496.211 342.097 496.163 342.171C496.115 342.246 496.077 342.334 496.051 342.431C496.025 342.529 496.012 342.633 496.012 342.738V342.738V346.779H488.29V342.738C488.29 342.633 488.277 342.529 488.251 342.431C488.225 342.334 488.187 342.246 488.139 342.171C488.091 342.097 488.035 342.038 487.972 341.998C487.91 341.957 487.843 341.937 487.775 341.937H475.42C475.353 341.937 475.286 341.958 475.223 341.998C475.161 342.038 475.104 342.097 475.056 342.171C475.008 342.246 474.971 342.334 474.945 342.431C474.919 342.529 474.905 342.633 474.905 342.738V346.779H467.184V342.738C467.184 342.633 467.17 342.529 467.144 342.431C467.119 342.334 467.081 342.246 467.033 342.171C466.985 342.097 466.928 342.038 466.866 341.998C466.803 341.957 466.736 341.937 466.669 341.937H454.314C454.246 341.937 454.179 341.957 454.117 341.998C454.054 342.038 453.998 342.097 453.95 342.171C453.902 342.246 453.864 342.334 453.838 342.431C453.812 342.529 453.799 342.633 453.799 342.738V342.738V346.779H446.077V342.738C446.077 342.633 446.064 342.529 446.038 342.431C446.012 342.334 445.974 342.246 445.926 342.171C445.879 342.097 445.822 342.038 445.759 341.998C445.697 341.957 445.63 341.937 445.562 341.937H433.207C433.14 341.937 433.073 341.957 433.01 341.998C432.948 342.038 432.891 342.097 432.843 342.171C432.795 342.246 432.758 342.334 432.732 342.431C432.706 342.529 432.693 342.633 432.693 342.738V342.738V346.779H424.971V342.738C424.971 342.633 424.957 342.529 424.931 342.431C424.906 342.334 424.868 342.246 424.82 342.171C424.772 342.097 424.715 342.038 424.653 341.998C424.59 341.957 424.523 341.937 424.456 341.937H327.675C327.607 341.937 327.54 341.957 327.478 341.998C327.415 342.038 327.359 342.097 327.311 342.171C327.263 342.246 327.225 342.334 327.199 342.431C327.173 342.529 327.16 342.633 327.16 342.738V342.738V346.779H319.438V342.738C319.438 342.633 319.425 342.529 319.399 342.431C319.373 342.334 319.335 342.246 319.287 342.171C319.24 342.097 319.183 342.038 319.12 341.998C319.058 341.957 318.991 341.937 318.923 341.937H306.568C306.501 341.937 306.434 341.957 306.371 341.998C306.309 342.038 306.252 342.097 306.204 342.171C306.157 342.246 306.119 342.334 306.093 342.431C306.067 342.529 306.054 342.633 306.054 342.738V342.738V346.779H298.332V342.738C298.332 342.633 298.318 342.529 298.293 342.431C298.267 342.334 298.229 342.246 298.181 342.171C298.133 342.097 298.076 342.038 298.014 341.998C297.951 341.957 297.885 341.937 297.817 341.937H285.462C285.394 341.937 285.327 341.957 285.265 341.998C285.202 342.038 285.146 342.097 285.098 342.171C285.05 342.246 285.012 342.334 284.986 342.431C284.96 342.529 284.947 342.633 284.947 342.738V342.738V346.779H277.225V342.738C277.225 342.633 277.212 342.529 277.186 342.431C277.16 342.334 277.122 342.246 277.074 342.171C277.027 342.097 276.97 342.038 276.907 341.998C276.845 341.957 276.778 341.937 276.71 341.937H264.355C264.288 341.937 264.221 341.957 264.158 341.998C264.096 342.038 264.039 342.097 263.991 342.171C263.944 342.246 263.906 342.334 263.88 342.431C263.854 342.529 263.841 342.633 263.841 342.738V342.738V346.779H256.119V342.738C256.119 342.633 256.105 342.529 256.08 342.431C256.054 342.334 256.016 342.246 255.968 342.171C255.92 342.097 255.863 342.038 255.801 341.998C255.738 341.957 255.672 341.937 255.604 341.937H243.249C243.181 341.937 243.114 341.957 243.052 341.998C242.989 342.038 242.933 342.097 242.885 342.171C242.837 342.246 242.799 342.334 242.773 342.431C242.747 342.529 242.734 342.633 242.734 342.738V342.738V346.779H235.012V342.738C235.012 342.633 234.999 342.529 234.973 342.431C234.947 342.334 234.909 342.246 234.861 342.171C234.814 342.097 234.757 342.038 234.694 341.998C234.632 341.957 234.565 341.937 234.497 341.937H222.142C222.006 341.937 221.875 342.021 221.778 342.171C221.682 342.322 221.628 342.525 221.628 342.738V346.779H213.906V342.738C213.906 342.633 213.892 342.529 213.867 342.431C213.841 342.334 213.803 342.246 213.755 342.171C213.707 342.097 213.65 342.038 213.588 341.998C213.526 341.957 213.459 341.937 213.391 341.937H201.036C200.899 341.937 200.768 342.021 200.672 342.171C200.575 342.322 200.521 342.525 200.521 342.738V346.779H176.841C173.564 346.779 170.421 348.805 168.104 352.411C165.787 356.017 164.486 360.909 164.486 366.008V374.704C164.486 379.804 165.787 384.695 168.104 388.301C170.421 391.907 173.564 393.933 176.841 393.933H587.645C590.922 393.933 594.064 391.907 596.381 388.301C598.698 384.695 600 379.804 600 374.704V366.008C600 363.483 599.68 360.983 599.059 358.65C598.439 356.317 597.529 354.197 596.381 352.411C595.234 350.626 593.872 349.209 592.373 348.243C590.874 347.276 589.267 346.779 587.645 346.779V346.779Z" fill="white"/>
</g>
<defs>
<clipPath id="clip0_0:1">
<rect width="600" height="400" fill="white"/>
</clipPath>
</defs>
</svg>
