<svg width="600" height="400" viewBox="0 0 600 400" fill="none" xmlns="http://www.w3.org/2000/svg">
<style>
body{
    
    text-align: center;
    margin-top: 50px;
}

#main-g, #bras-g, #veste, #tete, #cheveux, #cou, #t-shirt, #bras-d {
    animation: main-g 2s ;
    transform-origin: center;
    transform-box: fill-box;
    
}

@keyframes main-g {
    from {
        transform:  translate(0%);
    }
    to {
        transform: translate(5px);
    }
}

#tiret1 {
    animation: tiret 2s 2s ease-in-out infinite;
    transform-origin: center;
    transform-box: fill-box;
    
}

@keyframes tiret{
    from {
        transform:  translate(0%);
    }
    to {
        transform: translate(125%);
    }
}

#tiret2 {
    animation: tiret2 2s 12s ease-in-out  infinite;
    transform-origin: center;
    transform-box: fill-box;
    
}

@keyframes tiret2{
    from {
        transform:  translate(0%);
    }
    to {
        transform: translateY(125%);
    }
}

#tiret3 {
    animation: tiret3 4s 14s ease-in-out infinite;
    transform-origin: center;
    transform-box: fill-box;
    
}

@keyframes tiret3{
    from {
        transform:  translate(0%);
    }
    to {
        transform: translateY(20px);
    }
}

#cercle1, #cercle2, #cercle3 {
    animation: cercle1 3s  4s infinite;
    transform-origin: center;
    transform-box: fill-box;
    
}


@keyframes cercle1 {
    from {
        transform:  rotate(0deg);
    }
        5%{
            transform: translate(-0px, -50px);
        }
    to {
        transform: rotate(360deg);
    }
}

#cercle4, #cercle5, #cercle6 {
    animation: cercle4 150ms  16s infinite;
    transform-origin: center;
    transform-box: fill-box;
    
}


@keyframes cercle4 {
    from {
        transform:  rotate(0deg);
    }
        
       
    to {
        transform: rotate(360deg);
    }
}

#point1 {
    animation: point1 5s 4.5s ease-in-out;

}

@keyframes point1 {
    to {
        transform: translateX(73%);
    }
}

#point2 {
    animation: point2 5s 7s ease-in-out infinite;

}

@keyframes point2 {
    to {
        transform: translateX(73%);
    }
}

#point3 {
    animation: point3 5s 10s ease-in-out infinite;

}

@keyframes point3 {
    to {
        transform: translateX(73%);
    }
}

#pantalon, #tableau {
    animation: pantalon 2s 18s infinite linear;
}

@keyframes pantalon {
    to {
        transform: translate(2px);
    }
}
#tableau {
    animation: tableau 2s 20s infinite linear;
}

@keyframes tableau {
    to {
        transform: translate(20px);
    }
}

#tiret4 {
    animation: tiret4 4s 22s infinite linear;
    transform-origin: center;
    transform-box: fill-box;
    
}

@keyframes tiret4{
    from {
        transform:  translate(0%);
    }
    to {
        transform: translateY(5px);
    }
}

#tiret5 {
    animation: tiret5 4s 24s infinite linear;
    transform-origin: center;
    transform-box: fill-box;
    
}

@keyframes tiret5{
    from {
        transform:  translate(0%);
    }
    to {
        transform: translateY(5px);
    }
}
#tiret6 {
    animation: tiret6 4s 24s infinite linear;
    transform-origin: center;
    transform-box: fill-box;
    
}

@keyframes tiret6{
    from {
        transform:  translate(0%);
    }
    to {
        transform: translateY(2px);
    }
}

#cercle7, #cercle7, #cercle9 {
    animation: cercle4 150ms  28s infinite;
    transform-origin: center;
    transform-box: fill-box;
    
}


@keyframes cercle7 {
    from {
        transform:  rotate(0deg);
    }
        
       
    to {
        transform: rotate(360deg);
    }
}

#tiret-cercle2 {
    animation: cercle4 3s  25s ;
    transform-origin: center;
    transform-box: fill-box;
    
}


@keyframes cercle4 {
    from {
        transform:  rotate(0deg);
    }
        
       
    to {
        transform: rotate(360deg);
    }
}

#feuille1 {
    animation: feuille1 4s 30s infinite linear;
    transform-origin: center;
    transform-box: fill-box;
}

@keyframes feuille1 {
    to{
    transform: rotate(10deg);
    }
}

#feuille2 {
    animation: feuille2 4s 30s infinite linear;
    transform-origin: center;
    transform-box: fill-box;
}

@keyframes feuille2 {
    to{
    transform: rotate(-10deg);
    }
}

#point4 {
    animation: point4 2s 34s infinite linear;
}
@keyframes point4 {
    to {
        transform: translate(-100px, -100px);
    }
}

#point5 {
    animation: point5 4s 36s infinite linear;
}
@keyframes point5 {
    to {
        transform: translate(130px, -280px);
    }
}
#point6 {
    animation: point6 4s 38s infinite linear;
}
@keyframes point6 {
    to {
        transform: translate(-280px);
    }
}

</style>
<g id="experience" clip-path="url(#clip0_0:1)">
<path id="sol" d="M300 400C465.685 400 600 391.052 600 380.014C600 368.976 465.685 360.028 300 360.028C134.315 360.028 0 368.976 0 380.014C0 391.052 134.315 400 300 400Z" fill="#775E5E"/>
<path id="barre" d="M546.231 0H95.5454V16.6086H546.231V0Z" fill="#3F3D56"/>
<path id="point1" d="M107.606 12.3579C109.655 12.3579 111.316 10.4334 111.316 8.0595C111.316 5.68555 109.655 3.76109 107.606 3.76109C105.556 3.76109 103.895 5.68555 103.895 8.0595C103.895 10.4334 105.556 12.3579 107.606 12.3579Z" fill="#F2F2F2"/>
<path id="point2" d="M119.666 12.3579C121.715 12.3579 123.377 10.4334 123.377 8.0595C123.377 5.68555 121.715 3.76109 119.666 3.76109C117.616 3.76109 115.955 5.68555 115.955 8.0595C115.955 10.4334 117.616 12.3579 119.666 12.3579Z" fill="#F2F2F2"/>
<path id="point3" d="M131.726 12.3579C133.775 12.3579 135.437 10.4334 135.437 8.0595C135.437 5.68555 133.775 3.76109 131.726 3.76109C129.677 3.76109 128.015 5.68555 128.015 8.0595C128.015 10.4334 129.677 12.3579 131.726 12.3579Z" fill="#F2F2F2"/>
<path id="tableau" d="M96.3246 246.544L96 246.907V375H554V150L548.542 150.539L96.3246 246.544Z" fill="#3F3D56"/>
<path id="tiret1" d="M253.924 111.1H128.07V116.978H253.924V111.1Z" fill="#3F3D56"/>
<path id="tiret2" d="M253.924 124.032H128.07V129.91H253.924V124.032Z" fill="#3F3D56"/>
<path id="tiret3" d="M170.698 136.964H128.07V142.843H170.698V136.964Z" fill="#3F3D56"/>
<path id="tiret4" d="M510.58 274.295H384.726V280.174H510.58V274.295Z" fill="white"/>
<path id="tiret5" d="M510.58 287.228H384.726V293.106H510.58V287.228Z" fill="white"/>
<path id="tiret6" d="M427.354 300.16H384.726V306.038H427.354V300.16Z" fill="white"/>
<path id="point4" d="M306.531 369.616C309.265 369.616 311.482 367.048 311.482 363.881C311.482 360.714 309.265 358.147 306.531 358.147C303.797 358.147 301.581 360.714 301.581 363.881C301.581 367.048 303.797 369.616 306.531 369.616Z" fill="#F2F2F2"/>
<path id="Vector" d="M320.888 370.189C323.622 370.189 325.839 367.622 325.839 364.455C325.839 361.288 323.622 358.72 320.888 358.72C318.154 358.72 315.937 361.288 315.937 364.455C315.937 367.622 318.154 370.189 320.888 370.189Z" fill="#F2F2F2"/>
<path id="point6" d="M335.245 370.763C337.979 370.763 340.195 368.195 340.195 365.028C340.195 361.861 337.979 359.294 335.245 359.294C332.511 359.294 330.294 361.861 330.294 365.028C330.294 368.195 332.511 370.763 335.245 370.763Z" fill="#F2F2F2"/>
<path id="point5" d="M320.933 369.042C323.121 369.042 324.894 366.988 324.894 364.455C324.894 361.921 323.121 359.867 320.933 359.867C318.746 359.867 316.973 361.921 316.973 364.455C316.973 366.988 318.746 369.042 320.933 369.042Z" fill="#3F3D56"/>
<path id="tiret-cercle1" d="M212.2 178.385H169.572V189.651H212.2V178.385Z" fill="#3F3D56"/>
<path id="tiret-cercle2" d="M465.579 330.827H422.951V342.093H465.579V330.827Z" fill="white"/>
<path id="cercle4" opacity="0.3" d="M191.126 218.235C207.412 218.235 220.614 202.943 220.614 184.078C220.614 165.214 207.412 149.921 191.126 149.921C174.84 149.921 161.638 165.214 161.638 184.078C161.638 202.943 174.84 218.235 191.126 218.235Z" fill="#00BFA6"/>
<path id="cercle5" opacity="0.3" d="M191.126 206.849C201.983 206.849 210.785 196.654 210.785 184.078C210.785 171.502 201.983 161.307 191.126 161.307C180.269 161.307 171.468 171.502 171.468 184.078C171.468 196.654 180.269 206.849 191.126 206.849Z" fill="#00BFA6"/>
<path id="cercle6" d="M191.126 199.892C198.666 199.892 204.778 192.812 204.778 184.078C204.778 175.344 198.666 168.264 191.126 168.264C183.587 168.264 177.474 175.344 177.474 184.078C177.474 192.812 183.587 199.892 191.126 199.892Z" fill="#00BFA6"/>
<path id="cercle1" opacity="0.3" d="M439.249 133.583C455.535 133.583 468.737 118.291 468.737 99.426C468.737 80.5615 455.535 65.2688 439.249 65.2688C422.963 65.2688 409.761 80.5615 409.761 99.426C409.761 118.291 422.963 133.583 439.249 133.583Z" fill="#00BFA6"/>
<path id="cercle2" opacity="0.3" d="M439.249 122.197C450.106 122.197 458.908 112.002 458.908 99.426C458.908 86.8497 450.106 76.6546 439.249 76.6546C428.392 76.6546 419.59 86.8497 419.59 99.426C419.59 112.002 428.392 122.197 439.249 122.197Z" fill="#00BFA6"/>
<path id="cercle3" d="M439.249 115.24C446.789 115.24 452.901 108.16 452.901 99.426C452.901 90.6925 446.789 83.6125 439.249 83.6125C431.709 83.6125 425.597 90.6925 425.597 99.426C425.597 108.16 431.709 115.24 439.249 115.24Z" fill="#00BFA6"/>
<path id="cercle7" opacity="0.3" d="M444.505 370.678C460.791 370.678 473.993 355.385 473.993 336.52C473.993 317.656 460.791 302.363 444.505 302.363C428.219 302.363 415.017 317.656 415.017 336.52C415.017 355.385 428.219 370.678 444.505 370.678Z" fill="#00BFA6"/>
<path id="cercle8" opacity="0.3" d="M444.505 359.292C455.362 359.292 464.164 349.097 464.164 336.52C464.164 323.944 455.362 313.749 444.505 313.749C433.648 313.749 424.846 323.944 424.846 336.52C424.846 349.097 433.648 359.292 444.505 359.292Z" fill="#00BFA6"/>
<path id="cercle9" d="M444.505 352.334C452.045 352.334 458.157 345.254 458.157 336.52C458.157 327.787 452.045 320.707 444.505 320.707C436.965 320.707 430.853 327.787 430.853 336.52C430.853 345.254 436.965 352.334 444.505 352.334Z" fill="#00BFA6"/>
<path id="pti-bout" d="M49.1043 69.1754L61.2411 69.7206L61.8462 51.6452L49.7094 51.1001L49.1043 69.1754Z" fill="white"/>
<path id="main-g" d="M104.459 114.404C104.459 114.404 121.266 105.102 120.997 113.135C120.728 121.169 104.055 126.454 104.055 126.454L104.459 114.404Z" fill="#775E5E"/>
<path id="pantalon" d="M95.2373 182.377C95.2373 182.377 103.167 204.859 106.097 221.081C109.027 237.304 113.488 259.63 107.749 275.463C102.01 291.297 85.692 337.831 85.5239 342.852C85.3558 347.873 86.9216 352.972 83.4539 352.816C79.9863 352.66 61.1158 345.779 60.3497 342.727C59.5836 339.676 66.7879 331.954 66.7879 331.954L84.5776 267.382L66.0168 225.315L52.6289 288.073L50.0068 366.399C50.0068 366.399 37.1375 361.798 35.2692 365.737C35.2692 365.737 29.5033 356.427 28.7708 352.371C28.0384 348.316 31.4939 271.032 31.4939 271.032C31.4939 271.032 19.681 183.006 29.2171 183.434C38.7532 183.863 76.105 157.381 95.2373 182.377Z" fill="#00BFA6"/>
<path id="chaussure-g" d="M83.5884 348.799C83.5884 348.799 92.3849 371.32 93.2182 372.363C94.0515 373.406 99.7838 383.721 95.4492 383.526C91.1146 383.331 80.8797 377.843 73.3463 369.459C65.813 361.075 55.8806 346.549 56.7812 345.584C57.6817 344.619 63.851 341.879 63.851 341.879L83.5884 348.799Z" fill="#2F2E41"/>
<path id="chaussure-d" d="M48.441 361.3C48.441 361.3 48.9717 371.381 50.5711 375.476C52.1705 379.57 51.9688 385.595 47.6342 385.401C43.2996 385.206 32.0969 382.691 32.0969 382.691C32.0969 382.691 31.4317 376.627 32.3322 375.662C33.2327 374.697 37.0702 363.807 35.4372 360.716C33.8042 357.626 48.441 361.3 48.441 361.3Z" fill="#2F2E41"/>
<path id="cou" d="M42.0283 34.1611C42.0283 34.1611 32.7877 50.8428 29.1855 54.7038C25.5834 58.5648 35.7175 67.0655 35.7175 67.0655L53.8555 69.8917C53.8555 69.8917 53.6273 50.7732 54.5615 48.8038C55.4956 46.8343 42.0283 34.1611 42.0283 34.1611Z" fill="#775E5E"/>
<path id="t-shirt" d="M57.7938 55.9888C57.7938 55.9888 54.0572 63.8666 50.5895 63.7108C47.1219 63.555 29.1855 54.7038 28.4194 51.6523C27.6533 48.6008 22.4783 73.5108 22.4783 73.5108L66.3672 162.978L77.0728 154.407L71.8856 101.878L67.6254 73.5273L57.7938 55.9888Z" fill="white"/>
<path id="veste" d="M26.8006 136.058C28.5513 140.3 29.6447 144.724 29.4931 149.253C29.4864 149.454 29.4797 149.655 29.4643 149.855C29.049 159.149 26.0931 169.898 25.0327 177.715C24.2632 183.322 24.4822 187.415 27.3151 188.377C34.1832 190.697 26.3137 192.355 52.8856 202.6C79.4575 212.845 84.0947 204.002 84.1619 201.994C84.2292 199.985 80.3988 184.728 81.2994 183.762C82.1999 182.797 93.8997 196.397 97.4346 194.544C100.97 192.692 97.8381 182.494 97.8381 182.494C97.8381 182.494 89.8748 161.017 90.0429 155.996C90.211 150.975 77.9804 127.294 77.9804 127.294L69.6617 64.5675C69.6617 64.5675 66.463 56.3782 62.162 55.1794C57.861 53.9805 54.2925 56.8372 54.2925 56.8372L61.4897 75.2631L69.0831 107.786L67.8128 119.798C67.8128 119.798 58.9826 98.2815 53.1832 89.9754C47.3837 81.6693 35.0186 62.0057 35.0186 62.0057C35.0186 62.0057 32.1318 50.7228 34.3111 47.351C36.4907 43.9693 25.2207 43.4631 20.4155 57.327C17.8687 64.6748 13.7338 75.6322 11.1436 85.8343C8.8354 94.8724 7.7451 103.322 10.0318 108.151C13.5268 115.529 22.3185 125.227 26.8006 136.058Z" fill="#3F3D56"/>
<path id="ombre-bras1" opacity="0.1" d="M10.0318 108.151C13.5269 115.529 22.3185 125.227 26.8006 136.058C27.9713 131.173 29.3994 126.118 29.3994 126.118C29.3994 126.118 34.877 92.1702 18.6745 83.3969C15.9899 83.0962 13.3048 83.9652 11.1436 85.8343C8.8354 94.8724 7.7451 103.322 10.0318 108.151Z" fill="black"/>
<path id="bras-g" d="M74.3518 106.012L88.0881 110.652L107.16 111.508L109.122 130.705L77.7787 133.319C77.7787 133.319 69.95 107.825 74.3518 106.012Z" fill="#3F3D56"/>
<path id="main-d" d="M51.953 170.556C51.953 170.556 70.3294 174.087 66.1352 180.493C61.941 186.898 45.6617 180.164 45.6617 180.164L51.953 170.556Z" fill="#775E5E"/>
<path id="ombre-bras2" opacity="0.1" d="M29.4643 149.855C29.049 159.149 26.0932 169.898 25.0327 177.715C30.8867 184.133 36.4535 189.794 38.5515 189.888C42.8861 190.082 49.855 189.39 52.4222 190.511C54.9893 191.632 56.495 172.591 56.495 172.591C56.495 172.591 54.9628 166.488 48.1283 163.164C43.5152 160.915 34.6725 154.816 29.4643 149.855Z" fill="black"/>
<path id="bras-d" d="M18.8762 77.3717C18.8762 77.3717 4.20585 74.7014 4.9984 102.896C5.79095 131.092 3.452 149.089 9.35234 154.383C15.2527 159.676 34.4186 183.668 38.7532 183.863C43.0878 184.057 50.0568 183.365 52.6239 184.486C55.191 185.607 56.6967 166.566 56.6967 166.566C56.6967 166.566 55.1645 160.463 48.3301 157.139C41.4956 153.815 25.3939 142.029 25.5284 138.012C25.6628 133.996 29.6012 120.093 29.6012 120.093C29.6012 120.093 35.0787 86.1451 18.8762 77.3717Z" fill="#3F3D56"/>
<path id="tete" d="M54.9649 58.8622C65.5061 58.8622 74.0514 48.9638 74.0514 36.7535C74.0514 24.5432 65.5061 14.6448 54.9649 14.6448C44.4237 14.6448 35.8783 24.5432 35.8783 36.7535C35.8783 48.9638 44.4237 58.8622 54.9649 58.8622Z" fill="#775E5E"/>
<path id="cheveux" d="M67.8163 5.06535C68.2767 5.52479 68.828 5.84526 69.4211 5.9982C69.7189 6.05969 70.0256 5.98223 70.2742 5.78273C70.5229 5.58322 70.6933 5.27787 70.7483 4.93335C71.1849 5.98236 71.6776 7.10039 72.5692 7.63866C73.4608 8.17693 74.8394 7.72558 74.9679 6.57053C75.0981 7.44753 75.4331 8.26651 75.9365 8.9387C76.4896 9.54963 77.4928 9.70384 77.9757 9.01766C77.5853 11.4893 77.8263 14.0311 77.7037 16.5397C77.581 19.0484 77.0035 21.7079 75.3673 23.3575C72.981 25.7633 69.3926 25.1695 66.2537 24.7137C65.779 24.5984 65.2865 24.6296 64.8255 24.8042C63.6502 25.3843 63.7035 27.2794 63.6876 28.7592C63.5918 31.3555 62.7047 33.8284 61.1838 35.7389C59.663 37.6493 57.6069 38.8737 55.3806 39.1945C54.1347 39.4172 52.8634 39.0579 51.8462 38.1953C50.955 37.3203 50.4997 35.8941 49.4785 35.2368C47.8173 34.1675 45.8026 35.7269 44.588 37.42C43.3735 39.1132 42.1764 41.1959 40.2949 41.5058C37.8065 41.9157 35.9112 38.9782 34.9814 36.2733C33.6985 32.4822 33.0838 28.432 33.1737 24.3614C33.2636 20.2908 34.0562 16.2823 35.5047 12.5722C40.7006 -0.547408 58.4498 -2.62253 67.8163 5.06535Z" fill="#434349"/>
<path id="feuille1" d="M525.992 356.607C532.714 369.886 546.271 375.143 546.271 375.143C546.271 375.143 548.93 358.871 542.208 345.593C535.486 332.314 521.928 327.057 521.928 327.057C521.928 327.057 519.27 343.329 525.992 356.607Z" fill="#F2F2F2"/>
<path id="feuille2" d="M530.186 351.973C541.811 359.431 546.681 375.001 546.681 375.001C546.681 375.001 532.703 378.479 521.078 371.021C509.453 363.563 504.583 347.993 504.583 347.993C504.583 347.993 518.561 344.515 530.186 351.973Z" fill="#00BFA6"/>
</g>
<defs>
<clipPath id="clip0_0:1">
<rect width="600" height="400" fill="white"/>
</clipPath>
</defs>
</svg>
