<svg width="600" height="400" viewBox="0 0 600 400" fill="none" xmlns="http://www.w3.org/2000/svg">
<style>
body{
    margin-top: 50;
    padding: 0;
    text-align: center ;
}

 #MINKA  { 
     animation: MINKA  3s infinite; 

 } 
 #MINKA:hover{ 
     animation-play-state: paused; 
 } 

 @keyframes MINKA { 
     to { 
         transform: rotate(1turn); 
     } 
 
    }
 #cercle2 { 
     animation: cercle 3s infinite linear; 
     transform-origin: center; 
     transform-box: fill-box; 
 } 
  
 @keyframes cercle{ 
     from { 
         max-height: 0; 
         opacity: 0; 
         transform: scale(0); 
     } 
     to { 
         max-height: 100px;
   } 
 } 

 #point-b, #croix, #cercle1, #crochet, #carre2  { 
    animation: point-b 3s infinite linear; 
    transform-origin: center; 
    transform-box: fill-box; 
} 
 
@keyframes point-b{ 
    from { 
        transform: rotate(0deg); 
    } 
    to { 
        transform: rotate(360deg);
  } 
} 


 #cadre1 { 
     animation: cadre1 2s infinite linear; 
 } 
#cadre1:hover{ 
     animation-play-state: paused; 
 } 
  
 @keyframes cadre1 { 
     0%, 5% { transform: translateX(0);  } 
     10% { transform: translateX(-10%);  }  
     40%, 59% { transform: translateX(-40%);  } 
     60%, 79% { transform: translateX(-60%);  } 
     80%, 99% { transform: translateX(-80%);  } 
     100% { transform: translateX(-100%);  } 
 }
 #cadre2 { 
    animation: cadre2 2s infinite linear; 
} 
#cadre2:hover{ 
    animation-play-state: paused; 
} 
 
@keyframes cadre2 { 
    0%, 5% { transform: translateY(0);  } 
    10% { transform: translateY(-10%);  }  
    40%, 59% { transform: translateY(-40%);  } 
    60%, 79% { transform: translateY(-60%);  } 
    80%, 99% { transform: translateY(-80%);  } 
    100% { transform: translateY(-100%);  } 
} 


 #gr-carre  { 
     animation: gr-carre 2s infinite linear; 
 } 
 #gr-carre:hover{ 
     animation-play-state: paused; 
 } 

 @keyframes gr-carre { 
     from { 
         transform: rotateX(0deg); 
     } 
     to { 
         transform: rotateY(30deg); 
     } 
 } 



 #tiret1, #tiret2, #tiret3{ 
     animation: tiret 2s infinite linear 
 } 
 #tiret1:hover{ 
     animation-play-state: paused; 
 } 

 @keyframes tiret { 
     from { 
         transform: rotateX(0deg); 
     } 
     to { 
         transform: rotateY(30deg); 
     } 
 } 

#coin2{ 
     animation: coin2 1s infinite linear; 
     transform-origin: center; 
     transform-box: fill-box; 
 } 
 #coin2:hover{ 
     animation-play-state: paused; 
 } 

 @keyframes coin2 { 
     from { 
         transform: translateX(-0%); 
     } 
     to { 
         transform: translateY(100%) ; 
     } 
 } 














</style>
<g id="undraw_Detailed_information_re_qmuc 1">
<path id="cadre1" d="M600 384.342H0V0H600V384.342ZM1.11111 383.09H598.889V1.25193H1.11111V383.09Z" fill="#3F3D56"/>
<path id="point-r" d="M41.1111 45.0694C43.8725 45.0694 46.1111 42.5471 46.1111 39.4357C46.1111 36.3243 43.8725 33.8021 41.1111 33.8021C38.3497 33.8021 36.1111 36.3243 36.1111 39.4357C36.1111 42.5471 38.3497 45.0694 41.1111 45.0694Z" fill="#F21313"/>
<path id="point-j" d="M56.1111 45.0694C58.8725 45.0694 61.1111 42.5471 61.1111 39.4357C61.1111 36.3243 58.8725 33.8021 56.1111 33.8021C53.3497 33.8021 51.1111 36.3243 51.1111 39.4357C51.1111 42.5471 53.3497 45.0694 56.1111 45.0694Z" fill="#F7EE16"/>
<path id="point-v" d="M71.1111 45.0694C73.8725 45.0694 76.1111 42.5471 76.1111 39.4357C76.1111 36.3243 73.8725 33.8021 71.1111 33.8021C68.3497 33.8021 66.1111 36.3243 66.1111 39.4357C66.1111 42.5471 68.3497 45.0694 71.1111 45.0694Z" fill="#23CF1F"/>
<path id="coin2" d="M576.111 320.628V362.433H536.601C538.706 351.804 543.6 342.134 550.646 334.679C557.691 327.224 566.564 322.329 576.111 320.628Z" fill="#3F3D56"/>
<path id="gr-carre" d="M506.567 114.614L506.211 114.132L373.217 238.405L372.789 238.805L464.939 363.998H466.383L374.356 238.968L506.067 115.897L576.111 211.063V209.097L506.567 114.614Z" fill="#4B4042"/>
<path id="tete" d="M391.408 178.091C410.336 178.091 425.681 160.802 425.681 139.474C425.681 118.147 410.336 100.857 391.408 100.857C372.479 100.857 357.134 118.147 357.134 139.474C357.134 160.802 372.479 178.091 391.408 178.091Z" fill="#4B4042"/>
<path id="corps" d="M448.381 220.951L429.309 283.257V283.262L420.117 313.302C420.117 313.302 419.179 361.066 418.236 361.066C418.04 361.066 417.762 361.755 417.449 362.839H326.118L333.448 275.086L332.998 270.997L327.265 218.585C326.614 212.639 327.788 206.621 330.59 201.529C333.391 196.438 337.654 192.579 342.67 190.592L352.251 186.797C364.819 181.818 378.33 180.657 391.423 183.431H391.423C403.058 185.896 414.018 191.396 423.428 199.489L448.381 220.951Z" fill="#3F3D56"/>
<path id="cheveux" d="M421.129 108.362C421.129 108.362 410.248 81.7973 389.389 87.9273C368.53 94.0574 356.744 103.253 355.837 112.449C354.931 121.644 356.291 135.438 356.291 135.438C356.291 135.438 358.558 116.534 373.068 120.623C387.579 124.711 410.247 121.644 410.247 121.644L413.874 158.427C413.874 158.427 417.955 151.785 422.489 155.872C427.023 159.959 435.638 116.536 421.129 108.362Z" fill="#2F2E41"/>
<path id="bras-g" d="M466.281 317.548C466.281 317.548 466.281 341.801 458.37 362.839H431.185L431.425 362.129L438.96 324.975L436.135 312.24L429.309 283.262V283.257C425.762 268.195 425.97 252.322 429.912 237.385L430.221 236.214C431.385 231.805 433.781 227.938 437.054 225.187C440.326 222.437 444.299 220.951 448.381 220.951C448.381 220.951 460.627 232.63 459.684 254.918L466.281 317.548Z" fill="#3F3D56"/>
<path id="cercle1" d="M544.659 76.3921C540.992 76.3921 537.407 75.1667 534.358 72.8711C531.309 70.5754 528.932 67.3125 527.529 63.495C526.125 59.6774 525.758 55.4767 526.474 51.424C527.189 47.3713 528.955 43.6487 531.548 40.7269C534.141 37.805 537.445 35.8153 541.042 35.0091C544.639 34.203 548.367 34.6167 551.755 36.198C555.143 37.7793 558.039 40.4571 560.077 43.8928C562.114 47.3285 563.202 51.3678 563.202 55.4999C563.202 61.0408 561.248 66.3548 557.771 70.2729C554.294 74.1909 549.577 76.3921 544.659 76.3921ZM544.659 35.5792C541.163 35.5792 537.744 36.7475 534.837 38.9364C531.93 41.1253 529.663 44.2365 528.325 47.8766C526.987 51.5166 526.637 55.522 527.319 59.3862C528.001 63.2504 529.685 66.8 532.158 69.5859C534.63 72.3719 537.781 74.2691 541.21 75.0378C544.64 75.8064 548.195 75.4119 551.425 73.9042C554.656 72.3964 557.417 69.8432 559.36 66.5672C561.303 63.2913 562.34 59.4398 562.34 55.4999C562.34 52.8839 561.882 50.2934 560.994 47.8766C560.105 45.4597 558.803 43.2636 557.161 41.4138C555.519 39.564 553.57 38.0967 551.425 37.0956C549.28 36.0944 546.981 35.5792 544.659 35.5792Z" fill="#CCCCCC"/>
<path id="cadre2" d="M576.111 363.998H23.8889V20.3438H576.111V363.998ZM24.9117 362.879H575.088V21.4631H24.9117V362.879Z" fill="#3F3D56"/>
<path id="croix" d="M552.471 47.5545L552.066 47.0982L544.536 55.5831L537.006 47.0982L536.601 47.5545L544.131 56.0388L537.603 63.3939L538.008 63.8502L544.536 56.4952L551.063 63.8502L551.468 63.3939L544.941 56.0388L552.471 47.5545Z" fill="#3F3D56"/>
<path id="cadre3" d="M231.014 217.489H42.7511C40.9908 217.492 39.3034 218.281 38.0587 219.683C36.814 221.086 36.1136 222.987 36.1111 224.97V306.826C36.1129 308.81 36.8129 310.712 38.0577 312.116C39.3025 313.519 40.9904 314.308 42.7511 314.311H231.014C232.775 314.308 234.462 313.519 235.707 312.117C236.952 310.714 237.652 308.813 237.654 306.83V224.97C237.652 222.987 236.952 221.086 235.707 219.683C234.462 218.281 232.775 217.492 231.014 217.489ZM236.873 306.827C236.871 308.577 236.254 310.255 235.155 311.493C234.057 312.73 232.568 313.426 231.014 313.428H42.7511C41.1978 313.426 39.7087 312.73 38.6104 311.493C37.512 310.255 36.8941 308.577 36.8922 306.827V224.97C36.8941 223.22 37.512 221.542 38.6104 220.305C39.7087 219.067 41.1978 218.371 42.7511 218.369H231.014C232.568 218.371 234.057 219.067 235.155 220.305C236.254 221.542 236.871 223.22 236.873 224.97V306.827Z" fill="#3F3D56"/>
<path id="tiret1" d="M220.002 241.275H121.378C118.514 241.275 116.162 243.403 116.05 246.086C116.043 246.151 116.04 246.217 116.042 246.283C116.046 249.047 118.431 251.286 121.378 251.29H220.002C222.949 251.29 225.338 249.048 225.338 246.283C225.338 243.517 222.949 241.275 220.002 241.275Z" fill="#F21313"/>
<path id="tiret2" d="M220.002 261.306H121.378C118.514 261.306 116.162 263.435 116.05 266.117C116.043 266.183 116.04 266.248 116.042 266.314C116.046 269.078 118.431 271.318 121.378 271.322H220.002C222.949 271.322 225.338 269.08 225.338 266.314C225.338 263.548 222.949 261.306 220.002 261.306Z" fill="#F7EE16"/>
<path id="tiret3" d="M220.002 281.337H121.378C118.514 281.337 116.162 283.465 116.05 286.148C116.043 286.214 116.04 286.279 116.042 286.345C116.046 289.109 118.431 291.349 121.378 291.353H220.002C222.949 291.353 225.338 289.11 225.338 286.345C225.338 283.579 222.949 281.337 220.002 281.337Z" fill="#23CF1F"/>
<path id="cercle2" d="M74.9933 292.604C70.3396 292.604 65.7905 291.049 61.9211 288.136C58.0517 285.223 55.0358 281.082 53.2549 276.238C51.4741 271.394 51.0081 266.063 51.916 260.92C52.8239 255.778 55.0648 251.054 58.3555 247.346C61.6461 243.638 65.8387 241.113 70.403 240.09C74.9672 239.067 79.6982 239.592 83.9976 241.599C88.2971 243.606 91.9719 247.004 94.5573 251.363C97.1428 255.723 98.5228 260.849 98.5228 266.092C98.5228 273.124 96.0438 279.867 91.6312 284.839C87.2185 289.811 81.2337 292.604 74.9933 292.604ZM74.9933 240.495C70.5002 240.495 66.1079 241.997 62.372 244.809C58.6361 247.622 55.7243 251.62 54.0048 256.297C52.2854 260.974 51.8355 266.121 52.7121 271.086C53.5886 276.051 55.7523 280.612 58.9294 284.192C62.1066 287.772 66.1545 290.21 70.5613 291.197C74.9681 292.185 79.5359 291.678 83.687 289.741C87.8382 287.803 91.3862 284.523 93.8825 280.313C96.3787 276.104 97.7111 271.155 97.7111 266.092C97.7111 259.304 95.3176 252.793 91.0572 247.993C86.7968 243.192 81.0185 240.495 74.9933 240.495Z" fill="#3F3D56"/>
<path id="carre2" d="M164.444 352.418H144.444V329.883H164.444V352.418ZM145.556 351.166H163.333V331.135H145.556V351.166Z" fill="#FF6584"/>
<path id="crochet" d="M120.658 345.235L113.513 337.856L114.264 336.933L120.453 343.326L134.538 319.52L135.462 320.215L120.658 345.235Z" fill="#3F3D56"/>
<path id="carre" d="M127.778 335.517V351.166H110V331.135H123.889V329.883H108.889V352.418H128.889V335.517H127.778Z" fill="#E5E5E5"/>
<path id="point-b" d="M66.3889 289.196C73.5993 289.196 79.4445 282.61 79.4445 274.485C79.4445 266.361 73.5993 259.775 66.3889 259.775C59.1785 259.775 53.3333 266.361 53.3333 274.485C53.3333 282.61 59.1785 289.196 66.3889 289.196Z" fill="#6C63FF"/>
<path id="main" d="M237.167 387.528C237.246 385.817 237.657 384.146 238.371 382.633C239.085 381.12 240.085 379.802 241.3 378.772C242.515 377.741 243.915 377.024 245.403 376.669C246.891 376.314 248.43 376.332 249.911 376.72L269.622 341.484L277.549 361.199L257.616 391.637C256.873 394.397 255.256 396.755 253.073 398.262C250.891 399.77 248.293 400.323 245.772 399.816C243.252 399.31 240.983 397.779 239.397 395.514C237.812 393.25 237.018 390.408 237.167 387.528Z" fill="#4B4042"/>
<path id="bras-d" d="M340.098 194.592L339.01 194.809C326.79 197.241 316.428 206.643 312.149 219.768C312.021 220.161 311.898 220.557 311.78 220.955L304.243 259.166L252.429 370.621L268.446 381.235C268.446 381.235 312.724 322.854 318.376 302.686L341.136 253.369C342.272 250.907 342.82 248.154 342.725 245.381L341.019 195.429C341.014 195.303 340.986 195.179 340.936 195.067C340.886 194.954 340.814 194.854 340.727 194.775C340.64 194.696 340.539 194.638 340.43 194.607C340.322 194.575 340.208 194.571 340.098 194.592Z" fill="#3F3D56"/>
<path id="MINKA" d="M50.8906 127L55.6191 111.021H63.5117V112.059C63.2305 112.199 62.9492 112.311 62.668 112.393C62.3867 112.463 62.1348 112.551 61.9121 112.656C61.4199 112.914 61.1738 113.354 61.1738 113.975V132.766C61.1738 133.492 61.4258 133.996 61.9297 134.277C62.1523 134.406 62.4102 134.518 62.7031 134.611C62.9961 134.705 63.3066 134.822 63.6348 134.963V136H54.4414V134.963C54.7227 134.822 54.998 134.705 55.2676 134.611C55.5488 134.518 55.8008 134.406 56.0234 134.277C56.5273 133.984 56.7793 133.48 56.7793 132.766V113.535H56.709L51.8223 130.076L50.8906 127ZM40.9414 115.24V132.256C40.9414 133.17 41.2109 133.814 41.75 134.189C41.9961 134.354 42.2715 134.488 42.5762 134.594C42.8926 134.688 43.209 134.811 43.5254 134.963V136H36.4766V134.963C36.7578 134.822 37.0449 134.711 37.3379 134.629C37.6309 134.535 37.8945 134.406 38.1289 134.242C38.668 133.879 38.9375 133.229 38.9375 132.291V114.484L40.9414 115.24ZM41.0117 113.904C38.5391 112.955 37.0273 112.34 36.4766 112.059V111.021H44.4043L51.1367 132.379L50.0645 136H47.9902L41.0117 113.904ZM76.2383 111.021V112.059C75.8984 112.199 75.5762 112.311 75.2715 112.393C74.9668 112.475 74.7031 112.58 74.4805 112.709C73.9766 112.99 73.7246 113.506 73.7246 114.256V132.766C73.7246 133.516 73.9766 134.031 74.4805 134.312C74.7148 134.441 74.9844 134.547 75.2891 134.629C75.5938 134.711 75.9219 134.822 76.2734 134.963V136H66.7988V134.963C67.1387 134.822 67.4609 134.711 67.7656 134.629C68.0703 134.547 68.3398 134.441 68.5742 134.312C69.0898 134.031 69.3477 133.516 69.3477 132.766V114.256C69.3477 113.506 69.0898 112.99 68.5742 112.709C68.3398 112.58 68.0703 112.475 67.7656 112.393C67.4609 112.311 67.1387 112.199 66.7988 112.059V111.021H76.2383ZM97.2793 126.648V114.256C97.2793 113.623 96.9863 113.137 96.4004 112.797C96.1426 112.656 95.8496 112.527 95.5215 112.41C95.2051 112.293 94.8887 112.164 94.5723 112.023V110.986H101.92V112.023C101.627 112.164 101.322 112.293 101.006 112.41C100.701 112.527 100.426 112.656 100.18 112.797C99.5938 113.137 99.3008 113.623 99.3008 114.256V129.812L97.2793 126.648ZM83.6562 117.332V132.73C83.6562 133.375 83.9609 133.855 84.5703 134.172C84.8398 134.324 85.1504 134.459 85.502 134.576C85.8652 134.693 86.2344 134.822 86.6094 134.963V136H78.875V134.963C79.2031 134.822 79.5312 134.693 79.8594 134.576C80.1875 134.459 80.4805 134.324 80.7383 134.172C81.3359 133.844 81.6348 133.363 81.6348 132.73V114.695L83.6562 117.332ZM83.7266 115.152C82.4727 113.676 81.2188 112.75 79.9648 112.375C79.6367 112.27 79.3145 112.164 78.998 112.059V111.021H85.8535L99.3008 132.291V136.141H96.7168L83.7266 115.152ZM112.836 121.797L118.338 115.188C118.49 115.012 118.648 114.836 118.812 114.66C118.977 114.484 119.129 114.314 119.27 114.15C119.598 113.764 119.762 113.471 119.762 113.271C119.762 113.061 119.686 112.908 119.533 112.814C119.381 112.709 119.182 112.627 118.936 112.568C118.701 112.498 118.438 112.439 118.145 112.393C117.863 112.334 117.594 112.234 117.336 112.094V111.021H125.967V112.094C125.791 112.234 125.568 112.346 125.299 112.428C125.041 112.498 124.742 112.586 124.402 112.691C123.535 112.973 122.779 113.424 122.135 114.045L116.422 120.812L124.227 132.977C124.602 133.633 125.1 134.09 125.721 134.348C125.979 134.453 126.23 134.541 126.477 134.611C126.734 134.682 126.986 134.787 127.232 134.928V136H117.371V134.928C117.57 134.787 117.799 134.688 118.057 134.629C118.314 134.559 118.561 134.488 118.795 134.418C119.357 134.254 119.639 134.002 119.639 133.662C119.639 133.428 119.562 133.182 119.41 132.924C119.258 132.654 119.053 132.297 118.795 131.852L112.836 122.693V121.797ZM111.377 132.08C111.377 133.018 111.512 133.639 111.781 133.943C112.215 134.459 112.895 134.799 113.82 134.963V136H104.539V134.963C104.855 134.822 105.16 134.711 105.453 134.629C105.758 134.547 106.027 134.441 106.262 134.312C106.754 134.031 107 133.516 107 132.766V115.012C107 114.086 106.912 113.494 106.736 113.236C106.572 112.979 106.414 112.814 106.262 112.744C106.109 112.674 105.945 112.609 105.77 112.551C105.172 112.387 104.762 112.223 104.539 112.059V111.021H113.82V112.059C112.859 112.246 112.25 112.498 111.992 112.814C111.582 113.318 111.377 114.039 111.377 114.977V132.08ZM139.15 128.072H133.807L134.246 126.455H138.623L139.15 128.072ZM135.67 118.369L131.539 130.709C131.176 131.752 131 132.537 131.012 133.064C131.023 133.58 131.105 133.92 131.258 134.084C131.41 134.248 131.609 134.365 131.855 134.436C132.102 134.506 132.383 134.564 132.699 134.611C133.016 134.658 133.338 134.764 133.666 134.928V136H126.02V134.928C126.266 134.787 126.523 134.676 126.793 134.594C127.062 134.512 127.32 134.418 127.566 134.312C128.141 134.055 128.51 133.668 128.674 133.152L134.615 115.521L135.67 118.369ZM135.23 113.729C134.598 113.506 134.17 113.283 133.947 113.061C133.971 112.814 134 112.586 134.035 112.375C134.082 112.152 134.123 111.936 134.158 111.725C134.205 111.502 134.252 111.32 134.299 111.18C136.525 110.711 137.814 110.477 138.166 110.477C138.412 110.676 138.641 111.045 138.852 111.584L146.568 132.871C146.826 133.574 147.213 134.055 147.729 134.312C147.963 134.43 148.209 134.529 148.467 134.611C148.736 134.682 149.018 134.787 149.311 134.928V136H139.801V134.928C140.07 134.799 140.352 134.711 140.645 134.664C140.938 134.605 141.207 134.547 141.453 134.488C141.992 134.359 142.262 134.096 142.262 133.697C142.262 133.346 141.98 132.396 141.418 130.85C140.855 129.303 140.357 127.926 139.924 126.719C138.717 123.332 137.533 119.945 136.373 116.559L135.23 113.729ZM168.383 110.529C169.25 110.611 169.988 110.811 170.598 111.127C171.219 111.443 171.641 111.666 171.863 111.795C172.098 111.924 172.291 111.988 172.443 111.988C172.607 111.988 172.742 111.953 172.848 111.883C172.953 111.812 173.047 111.73 173.129 111.637C173.211 111.543 173.281 111.443 173.34 111.338C173.398 111.221 173.457 111.115 173.516 111.021H175.133V119.266H173.867C173.609 118.996 173.316 118.41 172.988 117.508C172.66 116.594 172.379 115.867 172.145 115.328C171.922 114.789 171.641 114.285 171.301 113.816C170.551 112.773 169.578 112.158 168.383 111.971V110.529ZM164.814 135.912C164.123 135.596 163.637 135.373 163.355 135.244C163.074 135.104 162.781 135.033 162.477 135.033C162.184 135.033 161.855 135.355 161.492 136H159.857V127.316H161.07C161.328 127.586 161.557 127.955 161.756 128.424C161.967 128.893 162.184 129.402 162.406 129.953C162.641 130.492 162.893 131.049 163.162 131.623C163.432 132.197 163.76 132.73 164.146 133.223C165.014 134.312 166.115 134.928 167.451 135.068V136.51C166.396 136.416 165.518 136.217 164.814 135.912ZM168.91 135.051C170.176 134.898 171.154 134.383 171.846 133.504C172.455 132.719 172.76 131.822 172.76 130.814C172.76 129.795 172.578 128.98 172.215 128.371C171.852 127.75 171.371 127.205 170.773 126.736C170.188 126.256 169.514 125.822 168.752 125.436C167.99 125.049 167.211 124.668 166.414 124.293C165.629 123.906 164.855 123.508 164.094 123.098C163.344 122.676 162.676 122.195 162.09 121.656C160.766 120.438 160.104 118.955 160.104 117.209C160.104 115.439 160.707 113.928 161.914 112.674C163.203 111.361 164.873 110.635 166.924 110.494V111.953C165.471 112.141 164.492 112.885 163.988 114.186C163.824 114.607 163.742 115.135 163.742 115.768C163.742 116.4 163.93 116.992 164.305 117.543C164.68 118.094 165.172 118.586 165.781 119.02C166.391 119.453 167.082 119.852 167.855 120.215C168.641 120.578 169.438 120.947 170.246 121.322C171.066 121.697 171.863 122.102 172.637 122.535C173.422 122.969 174.119 123.473 174.729 124.047C176.088 125.348 176.768 126.918 176.768 128.758C176.768 130.75 176.047 132.484 174.605 133.961C173.094 135.531 171.195 136.387 168.91 136.527V135.051ZM190.936 128.072H185.592L186.031 126.455H190.408L190.936 128.072ZM187.455 118.369L183.324 130.709C182.961 131.752 182.785 132.537 182.797 133.064C182.809 133.58 182.891 133.92 183.043 134.084C183.195 134.248 183.395 134.365 183.641 134.436C183.887 134.506 184.168 134.564 184.484 134.611C184.801 134.658 185.123 134.764 185.451 134.928V136H177.805V134.928C178.051 134.787 178.309 134.676 178.578 134.594C178.848 134.512 179.105 134.418 179.352 134.312C179.926 134.055 180.295 133.668 180.459 133.152L186.4 115.521L187.455 118.369ZM187.016 113.729C186.383 113.506 185.955 113.283 185.732 113.061C185.756 112.814 185.785 112.586 185.82 112.375C185.867 112.152 185.908 111.936 185.943 111.725C185.99 111.502 186.037 111.32 186.084 111.18C188.311 110.711 189.6 110.477 189.951 110.477C190.197 110.676 190.426 111.045 190.637 111.584L198.354 132.871C198.611 133.574 198.998 134.055 199.514 134.312C199.748 134.43 199.994 134.529 200.252 134.611C200.521 134.682 200.803 134.787 201.096 134.928V136H191.586V134.928C191.855 134.799 192.137 134.711 192.43 134.664C192.723 134.605 192.992 134.547 193.238 134.488C193.777 134.359 194.047 134.096 194.047 133.697C194.047 133.346 193.766 132.396 193.203 130.85C192.641 129.303 192.143 127.926 191.709 126.719C190.502 123.332 189.318 119.945 188.158 116.559L187.016 113.729ZM218.885 112.234C219.307 112.234 219.652 111.924 219.922 111.303H221.469V120.092H220.273C219.805 119.646 219.389 118.92 219.025 117.912C218.662 116.893 218.363 116.09 218.129 115.504C217.895 114.918 217.602 114.379 217.25 113.887C216.477 112.797 215.404 112.158 214.033 111.971V110.529C215.51 110.67 216.928 111.162 218.287 112.006C218.533 112.158 218.732 112.234 218.885 112.234ZM214.033 134.857C216.611 134.857 218.445 133.568 219.535 130.99C219.91 130.1 220.18 129.033 220.344 127.791L222.014 128.195C221.65 130.926 220.812 132.971 219.5 134.33C218.188 135.678 216.365 136.41 214.033 136.527V134.857ZM212.574 136.527C209.398 136.363 206.844 135.115 204.91 132.783C202.965 130.428 201.992 127.334 201.992 123.502C201.992 119.775 203 116.688 205.016 114.238C206.996 111.824 209.516 110.57 212.574 110.477V111.953C209.984 112.199 208.262 114.279 207.406 118.193C207.09 119.646 206.932 121.393 206.932 123.432C206.932 125.459 207.09 127.146 207.406 128.494C207.723 129.842 208.145 130.955 208.672 131.834C209.633 133.463 210.934 134.436 212.574 134.752V136.527ZM233.492 121.797L238.994 115.188C239.146 115.012 239.305 114.836 239.469 114.66C239.633 114.484 239.785 114.314 239.926 114.15C240.254 113.764 240.418 113.471 240.418 113.271C240.418 113.061 240.342 112.908 240.189 112.814C240.037 112.709 239.838 112.627 239.592 112.568C239.357 112.498 239.094 112.439 238.801 112.393C238.52 112.334 238.25 112.234 237.992 112.094V111.021H246.623V112.094C246.447 112.234 246.225 112.346 245.955 112.428C245.697 112.498 245.398 112.586 245.059 112.691C244.191 112.973 243.436 113.424 242.791 114.045L237.078 120.812L244.883 132.977C245.258 133.633 245.756 134.09 246.377 134.348C246.635 134.453 246.887 134.541 247.133 134.611C247.391 134.682 247.643 134.787 247.889 134.928V136H238.027V134.928C238.227 134.787 238.455 134.688 238.713 134.629C238.971 134.559 239.217 134.488 239.451 134.418C240.014 134.254 240.295 134.002 240.295 133.662C240.295 133.428 240.219 133.182 240.066 132.924C239.914 132.654 239.709 132.297 239.451 131.852L233.492 122.693V121.797ZM232.033 132.08C232.033 133.018 232.168 133.639 232.438 133.943C232.871 134.459 233.551 134.799 234.477 134.963V136H225.195V134.963C225.512 134.822 225.816 134.711 226.109 134.629C226.414 134.547 226.684 134.441 226.918 134.312C227.41 134.031 227.656 133.516 227.656 132.766V115.012C227.656 114.086 227.568 113.494 227.393 113.236C227.229 112.979 227.07 112.814 226.918 112.744C226.766 112.674 226.602 112.609 226.426 112.551C225.828 112.387 225.418 112.223 225.195 112.059V111.021H234.477V112.059C233.516 112.246 232.906 112.498 232.648 112.814C232.238 113.318 232.033 114.039 232.033 114.977V132.08ZM259.104 136.527C256.104 136.316 253.625 134.957 251.668 132.449C249.77 130.012 248.82 127.029 248.82 123.502C248.82 119.998 249.77 117.027 251.668 114.59C253.625 112.082 256.104 110.723 259.104 110.512V111.953C257.381 112.129 256.086 113.043 255.219 114.695C254.246 116.594 253.76 119.529 253.76 123.502C253.76 129.338 254.809 132.941 256.906 134.312C257.562 134.734 258.295 134.986 259.104 135.068V136.527ZM260.562 135.068C263.188 134.799 264.84 132.707 265.52 128.793C265.777 127.352 265.906 125.588 265.906 123.502C265.906 117.689 264.857 114.098 262.76 112.727C262.104 112.305 261.371 112.047 260.562 111.953V110.494C263.586 110.705 266.07 112.059 268.016 114.555C269.926 117.004 270.881 119.986 270.881 123.502C270.881 127.018 269.926 130 268.016 132.449C266.07 134.945 263.586 136.299 260.562 136.51V135.068Z" fill="#3F3D56"/>
</g>
</svg>
