<svg width="1000" height="600" viewBox="0 0 1496 1684" fill="none" xmlns="http://www.w3.org/2000/svg">
<style>
body {
    margin: 0px;
    padding: 0px;
    text-align: center;
    margin-top: 100px;
    
}

#tri1, #tri2 {
    animation: bim 2s infinite linear;
    transform-origin: left;
    transform-box: fill-box;

}

@keyframes bim {
   0% {
       transform: translate(0px);
   }
   50% {
       transform: translate(100px);
   }
   100% {
       transform: translate(0px);
   }
}

#pti-cercle1, #pti-tiret1, #pti-cercle2, #pti-tiret2, #pti-cercle3, #pti-tiret3 {
    animation: bam  120ms infinite linear;
    transform-origin: center;
    transform-box: fill-box;
}

@keyframes bam {
    from {
        transform: rotate(0deg);
    }
    to {
        transform: rotate(360deg);
    }
}

#Star3, #Star2, #Star1 {
    animation: bam  500ms infinite linear;
    transform-origin: center;
    transform-box: fill-box;
}

@keyframes bam {
    from {
        transform: rotate(0deg);
    }
    to {
        transform: rotate(360deg);
    }
}

#helix3, #helix2, #helix1 {
    animation: helix  800ms 5s infinite linear;
    transform-origin: center;
    transform-box: fill-box;
}

@keyframes helix {
    from {
        transform: rotate(0deg);
    }
    to {
        transform: rotate(360deg);
    }
}
/* Les deux premiers rectangle */
 #rectangle1, #rectangle3 {
    animation: boom 2s infinite linear;
    transform-origin: center;
    transform-box: fill-box;

}

@keyframes boom {
   0% {
       transform: scale(0,0)
   }
   50% {
       transform: scale(1,1);
   }
   100% {
       transform: scale(0,0);
   }
}
/* Les deux premiers pti rectangle */
#pti-rectangle1,  #pti-rectangle3 {
    animation: boom 3s 2s infinite linear;
    transform-origin: center;
    transform-box: fill-box;

}

@keyframes boom {
   0% {
       transform: scale(0,0)
   }
   50% {
       transform: scale(1,1);
   }
   100% {
       transform: scale(0,0);
   }
}

#pti-rectangle1-1,  #pti-rectangle3-1 {
    animation: boom 1s 3s infinite linear;
    transform-origin: center;
    transform-box: fill-box;

}

@keyframes boom {
   0% {
       transform: scale(0,0)
   }
   50% {
       transform: scale(1,1);
   }
   100% {
       transform: scale(0,0);
   }
}
/* ************** Fin des deux prmiers rectangle ************* */

#rectangle2, #rectangle4, #rectangle5 {
    animation: bigboom 4s 5s infinite linear;
    transform-origin: left;
    transform-box: fill-box;

}
@keyframes bigboom {
   0% {
       transform: scale(0,0)
   }
   50% {
       transform: scale(1,1);
   }
   100% {
       transform: scale(0,0);
   }
}

#pti-rectangle2, #pti-rectangle4, #pti-rectangle5 {
    animation: badass 4s 5s infinite linear;
    transform-origin: right;
    transform-box: fill-box;

}

@keyframes badass {
   0% {
       transform: scale(0,0)
   }
   50% {
       transform: scale(1,1);
   }
   100% {
       transform: scale(0,0);
   }
}

#pti-rectangle2-1, #pti-rectangle4-1, #pti-rectangle5-1 {
    animation: bitch 4s 5s infinite linear;
    transform-origin: bottom;
    transform-box: fill-box;

}

@keyframes bitch {
   0% {
       transform: scale(0,0)
   }
   50% {
       transform: scale(1,1);
   }
   100% {
       transform: scale(0,0);
   }
}




</style>
<path id="tableau" d="M1495 114H1V730.047H1495V114Z" fill="#342B2B" fill-opacity="0.52"/>

<rect id="rectangle5" x="984.91" y="538" width="200" height="120" rx="10" transform="rotate(0.306006 984.91 538)" fill="#C4C4C4"/>
<rect id="rectangle4" x="297.908" y="537" width="200" height="120" rx="10" transform="rotate(0.306006 297.908 537)" fill="#C4C4C4"/>
<path id="Star1" d="M734 540L750.839 583.877H805.329L761.245 610.995L778.084 654.873L734 627.755L689.916 654.873L706.755 610.995L662.671 583.877H717.161L734 540Z" fill="#C4C4C4"/>
<path id="Star3" d="M133 540L149.839 583.877H204.329L160.245 610.995L177.084 654.873L133 627.755L88.9161 654.873L105.755 610.995L61.6708 583.877H116.161L133 540Z" fill="#C4C4C4"/>
<path id="Star2" d="M1348 544L1364.84 587.877H1419.33L1375.25 614.995L1392.08 658.873L1348 631.755L1303.92 658.873L1320.75 614.995L1276.67 587.877H1331.16L1348 544Z" fill="#C4C4C4"/>
<path id="tri2" d="M397 343L467.148 444.25H326.852L397 343Z" fill="#C4C4C4"/>
<path id="pti-tri2" d="M396.628 376.75L431.702 427.375H361.554L396.628 376.75Z" fill="#465589" fill-opacity="0.42"/>
<g id="homme">
<g id="Group 1">
<ellipse id="Ellipse 1" cx="1125" cy="1212.91" rx="19.2914" ry="20.5484" fill="black"/>
<g id="Vector 1">
<path d="M1118.25 1229.35C1118.33 1229.61 1118.41 1229.87 1118.48 1230.13C1120.12 1233.42 1130.13 1235.32 1134.65 1229.35C1132.48 1235.94 1132.92 1239.35 1134.65 1245.27H1118.25C1119.62 1239.32 1120.06 1235.87 1118.48 1230.13C1118.35 1229.87 1118.27 1229.61 1118.25 1229.35Z" fill="#7B4040"/>
<path d="M1118.25 1229.35C1120.1 1235.56 1119.68 1239.05 1118.25 1245.27H1134.65C1132.92 1239.35 1132.48 1235.94 1134.65 1229.35C1129.78 1235.78 1118.55 1233.08 1118.25 1229.35Z" stroke="#7B4040"/>
</g>
<path id="Vector 2" d="M1146.1 1218.16C1147.97 1214.44 1143.25 1212.29 1143.25 1212.29C1145.05 1216.81 1143.78 1219.29 1140.71 1223.69C1140.71 1223.69 1144.23 1221.88 1146.1 1218.16Z" fill="black" stroke="black"/>
<path id="Vector 3" d="M1104.6 1219.55C1105.06 1223.74 1110.09 1222.62 1110.09 1222.62C1106.19 1220.01 1105.9 1217.21 1106.05 1211.72C1106.05 1211.72 1104.14 1215.36 1104.6 1219.55Z" fill="black" stroke="black"/>
<path id="Vector 8" d="M1155.63 1164.87H1108.37L1098.96 1177.72H1156.11L1155.63 1164.87Z" fill="#604949" fill-opacity="0.31" stroke="#604949"/>
<path id="Vector 6" d="M1081.36 1180.89C1082.27 1186.03 1078.22 1187.74 1078.22 1187.74L1086.18 1194.41C1086.18 1194.41 1099.2 1187.99 1098.72 1185.42C1098.24 1182.86 1104.6 1182.25 1104.51 1180.54C1104.41 1178.83 1104.83 1177.93 1106.44 1176.43C1106.24 1174.81 1096.5 1180.16 1102.1 1176.43C1107.69 1172.7 1109.84 1169.25 1111.74 1167.19C1113.64 1165.12 1110.16 1165.08 1108.85 1165.39C1107.53 1165.69 1107.98 1163.13 1106.44 1164.1C1106.44 1162.74 1106.36 1162.03 1104.51 1162.05C1101.09 1164.55 1099.27 1166.62 1096.07 1170.53C1096.07 1170.53 1091.97 1171.3 1089.07 1172.32C1086.18 1173.35 1080.44 1175.75 1081.36 1180.89Z" fill="#7B4040" stroke="#7B4040"/>
<path id="Vector 10" d="M1078.95 1431.23C1081.36 1418.39 1078.95 1409.91 1078.95 1409.91C1078.95 1409.91 1105.23 1412.48 1107.64 1409.91C1110.05 1407.35 1107.64 1415.57 1107.64 1415.57C1107.64 1415.57 1098.48 1419.67 1099.68 1431.23C1100.89 1442.79 1097.03 1456.92 1093.9 1463.6C1090.76 1470.28 1093.9 1487.23 1093.9 1487.23L1095.83 1491.85L1094.51 1495.7C1094.51 1495.7 1091.38 1503.92 1094.51 1503.67C1097.65 1503.41 1097.03 1509.32 1097.03 1509.32C1088.45 1511.7 1083.45 1514.58 1070.75 1511.12L1065.68 1505.46C1072.92 1502.38 1070.85 1498.21 1076.78 1495.7C1076.78 1495.7 1076.78 1489.8 1081.36 1487.23C1085.94 1484.66 1078.95 1459.23 1078.95 1459.23C1078.95 1459.23 1076.53 1444.08 1078.95 1431.23Z" fill="#7B4040" stroke="#7B4040"/>
<path id="Vector 5" d="M1200.96 1240.13C1202.17 1233.97 1172.75 1182.6 1172.75 1182.6L1171.7 1183.19L1164.55 1187.22L1178.78 1235.25C1178.78 1235.25 1162.62 1241.67 1159.49 1242.96C1156.35 1244.24 1142.45 1253.68 1140.92 1250.66C1139.39 1247.65 1138.49 1245.99 1133.44 1244.76H1118.98C1113.43 1243.71 1112.71 1254 1106.68 1250.66C1100.65 1247.32 1084.06 1242.39 1068.34 1240.13L1088.59 1192.61L1078.46 1187.22C1078.46 1187.22 1043.5 1235.25 1043.02 1240.13C1042.53 1245.01 1053.63 1250.66 1053.63 1250.66C1052.99 1258.85 1047.6 1257.34 1057.97 1266.33C1068.34 1275.32 1078.11 1276.17 1078.46 1279.17C1078.82 1282.18 1091 1286.88 1084.49 1304.35C1077.98 1321.81 1078.46 1335.68 1078.46 1335.68C1078.46 1335.68 1071.65 1345.37 1076.05 1350.84C1080.46 1356.31 1156.61 1356.54 1155.87 1350.84C1155.87 1350.84 1172.03 1354.18 1164.55 1345.96C1159.48 1333.51 1156.78 1326.52 1155.87 1313.85C1154.86 1309.27 1157.42 1285.67 1155.87 1283.03C1154.32 1280.38 1182.4 1266.33 1182.4 1266.33C1190.11 1266.33 1188.42 1250.66 1188.42 1250.66C1188.42 1250.66 1199.76 1246.3 1200.96 1240.13Z" fill="#465589" stroke="#465589"/>
<g id="Vector 11">
<path d="M1125 1416.08C1125 1405.55 1126.59 1411.68 1128.38 1408.37L1149.6 1409.66C1149.6 1409.66 1150.81 1423.01 1149.6 1425.33C1148.39 1427.64 1145.02 1436.78 1145.26 1444.49C1145.5 1452.2 1145.74 1465.65 1140.2 1476.95C1134.65 1488.26 1141.4 1490.82 1141.4 1490.82L1142.85 1495.96L1146.95 1500.84C1151.66 1501.64 1143.44 1502.89 1148.15 1503.69C1148.62 1503.83 1149.09 1503.87 1149.53 1503.86C1149.5 1503.78 1149.52 1503.72 1149.6 1503.69C1152.73 1502.55 1151.49 1503.79 1149.53 1503.86C1149.76 1504.59 1153.97 1507.26 1153.97 1507.26C1145.32 1505.06 1145.2 1508.72 1140.2 1509.06C1137.66 1510.69 1135.18 1511.49 1128.38 1512.66C1125.5 1508.72 1123.03 1507.66 1117.53 1507.26C1117.7 1501.9 1118.73 1499.21 1125 1495.96V1490.82C1129.24 1487.4 1128.14 1484.15 1129.59 1482.6C1131.03 1481.06 1130.31 1471.05 1126.93 1467.45C1123.56 1463.85 1121.39 1443.82 1125 1436.11C1128.62 1428.41 1125 1416.08 1125 1416.08Z" fill="#7B4040"/>
<path d="M1128.38 1408.37C1126.59 1411.68 1125 1405.55 1125 1416.08C1125 1416.08 1128.62 1428.41 1125 1436.11C1121.39 1443.82 1123.56 1463.85 1126.93 1467.45C1130.31 1471.05 1131.03 1481.06 1129.59 1482.6C1128.14 1484.15 1129.24 1487.4 1125 1490.82V1495.96C1118.73 1499.21 1117.7 1501.9 1117.53 1507.26C1123.03 1507.66 1125.5 1508.72 1128.38 1512.66C1135.18 1511.49 1137.66 1510.69 1140.2 1509.06C1145.2 1508.72 1145.32 1505.06 1153.97 1507.26C1153.97 1507.26 1148.8 1503.98 1149.6 1503.69C1153.43 1502.3 1150.73 1504.45 1148.15 1503.69C1143.44 1502.89 1151.66 1501.64 1146.95 1500.84L1142.85 1495.96L1141.4 1490.82C1141.4 1490.82 1134.65 1488.26 1140.2 1476.95C1145.74 1465.65 1145.5 1452.2 1145.26 1444.49C1145.02 1436.78 1148.39 1427.64 1149.6 1425.33C1150.81 1423.01 1149.6 1409.66 1149.6 1409.66L1128.38 1408.37Z" stroke="#7B4040"/>
</g>
<path id="Vector 9" d="M1078.22 1401.44C1081.4 1384.52 1081.66 1373.72 1078.22 1351.09H1163.1C1163.1 1351.09 1165.03 1365.99 1164.79 1371.64C1164.55 1377.29 1163.1 1385.77 1163.1 1385.77C1163.7 1402.76 1163.45 1405.3 1163.1 1410.94L1162.92 1410.97C1148.44 1412.89 1140.27 1413.98 1125 1410.94C1125 1410.94 1126.45 1410.17 1125 1405.8C1123.56 1401.44 1121.55 1382.86 1117.77 1383.46C1113.98 1384.05 1113.08 1399.17 1111.98 1405.8C1110.89 1412.44 1105.95 1410.94 1105.95 1410.94C1105.95 1410.94 1089.48 1412.52 1074.85 1410.94L1078.22 1401.44Z" fill="black" stroke="#1C1D21" stroke-opacity="0.85"/>
</g>
<path id="main-d" d="M1171.06 1179C1171.06 1179 1170.1 1181.57 1172.75 1182.85C1175.4 1184.14 1165.27 1187.73 1165.27 1187.73C1160.98 1185.86 1156.11 1182.6 1156.11 1181.57C1156.11 1180.54 1146.71 1179 1146.71 1179C1146.71 1179 1146.71 1176.95 1148.64 1176.95C1150.57 1176.95 1156.11 1177.97 1156.11 1177.97L1147.19 1165.9C1147.37 1164.83 1147.66 1164.54 1148.64 1164.87C1148.95 1163.47 1149.28 1163 1150.57 1163.59C1150.92 1161.84 1151.24 1161.59 1152.01 1162.56L1152.98 1164.1C1157.08 1163.52 1159.11 1164.08 1162.62 1165.39C1166.1 1168.35 1167.96 1170.37 1171.06 1174.89V1179Z" fill="#7B4040" stroke="#7B4040"/>
</g>
<circle id="cercle2" cx="737" cy="205" r="60" fill="#C4C4C4"/>
<circle id="pti-cercle2" cx="735" cy="205" r="45" fill="#465589" fill-opacity="0.42"/>
<path id="pti-tiret2" d="M761 199H711C705.477 199 701 203.477 701 209C701 214.523 705.477 219 711 219H761C766.523 219 771 214.523 771 209C771 203.477 766.523 199 761 199Z" fill="#7A5D5D" stroke="#7A5D5D"/>
<circle id="pti-cercle5" cx="736" cy="205" r="25" fill="#C4C4C4"/>
<circle id="cercle3" cx="1348" cy="217" r="60" fill="#C4C4C4"/>
<circle id="pti-cercle3" cx="1350" cy="216" r="45" fill="#465589" fill-opacity="0.42"/>
<path id="pti-tiret3" d="M1378 209H1328C1322.48 209 1318 213.477 1318 219C1318 224.523 1322.48 229 1328 229H1378C1383.52 229 1388 224.523 1388 219C1388 213.477 1383.52 209 1378 209Z" fill="#7A5D5D" stroke="#7A5D5D"/>
<circle id="pti-cercle6" cx="1353" cy="218" r="25" fill="#C4C4C4"/>
<circle id="cercle1" cx="144" cy="212" r="60" fill="#C4C4C4"/>
<circle id="pti-cercle1" cx="144" cy="211" r="45" fill="#465589" fill-opacity="0.42"/>
<path id="pti-tiret1" d="M171 202H121C115.477 202 111 206.477 111 212C111 217.523 115.477 222 121 222H171C176.523 222 181 217.523 181 212C181 206.477 176.523 202 171 202Z" fill="#7A5D5D" stroke="#7A5D5D"/>
<circle id="pti-cercle4" cx="146" cy="209" r="25" fill="#C4C4C4"/>
<path id="pti-rectangle4" d="M321.694 560L471.692 560.801L471.265 640.8L321.267 639.999L321.694 560Z" fill="#465589" fill-opacity="0.42"/>
<path id="pti-rectangle5" d="M1008.69 558L1158.69 558.801L1158.26 638.8L1008.27 637.999L1008.69 558Z" fill="#465589" fill-opacity="0.42"/>
<rect id="rectangle2" x="632.908" y="348" width="200" height="120" rx="10" transform="rotate(0.306006 632.908 348)" fill="#C4C4C4"/>
<path id="pti-rectangle2" d="M657.694 369L807.692 369.801L807.265 449.8L657.267 448.999L657.694 369Z" fill="#465589" fill-opacity="0.42"/>
<path id="pti-rectangle2-1" d="M675.641 385L785.639 385.587L785.372 435.587L675.374 434.999L675.641 385Z" fill="#C4C4C4"/>
<path id="pti-rectangle5-1" d="M1026.53 575L1136.53 575.587L1136.27 625.587L1026.27 624.999L1026.53 575Z" fill="#C4C4C4"/>
<path id="pti-rectangle4-1" d="M341.534 576L451.533 576.587L451.265 626.587L341.267 625.999L341.534 576Z" fill="#C4C4C4"/>
<rect id="rectangle1" x="296.908" y="150" width="200" height="120" rx="10" transform="rotate(0.306006 296.908 150)" fill="#C4C4C4"/>
<rect id="pti-rectangle1" x="320.908" y="170" width="150" height="80" transform="rotate(0.306006 320.908 170)" fill="#465589" fill-opacity="0.42"/>
<path id="pti-rectangle1-1" d="M340.534 185L450.533 185.587L450.265 235.587L340.267 234.999L340.534 185Z" fill="#C4C4C4"/>
<rect id="rectangle3" x="981.908" y="155" width="200" height="120" rx="10" transform="rotate(0.306006 981.908 155)" fill="#C4C4C4"/>
<path id="pti-rectangle3" d="M1007.69 175L1157.69 175.801L1157.26 255.8L1007.27 254.999L1007.69 175Z" fill="#465589" fill-opacity="0.42"/>
<path id="pti-rectangle3-1" d="M1026.53 191L1136.53 191.587L1136.27 241.587L1026.27 240.999L1026.53 191Z" fill="#C4C4C4"/>
<path id="Vector 12" d="M1495 114H1V0H1495V114Z" fill="#465589" fill-opacity="0.42"/>
<path id="tri1" d="M1095 341L1165.15 442.25H1024.85L1095 341Z" fill="#C4C4C4"/>
<path id="pti-tri1" d="M1096.11 376.073L1131.19 426.698H1061.04L1096.11 376.073Z" fill="#465589" fill-opacity="0.42"/>
<path id="sol" d="M1 1566V1502H1495V1566H1Z" fill="black" stroke="black"/>
<g id="helix1">
<g id="helix1_2">
<path id="Vector 14" d="M163.061 1293.97L214.171 1346.43C214.171 1346.43 135.343 1301.32 142.947 1296.61C150.55 1291.9 163.061 1293.97 163.061 1293.97Z" fill="black" stroke="black" stroke-width="2"/>
<path id="Vector 18" d="M130.105 1318.59L64.5663 1347.46C64.5663 1347.46 134.943 1288.53 135.924 1297.86C136.906 1307.19 130.105 1318.59 130.105 1318.59Z" fill="black" stroke="black" stroke-width="2"/>
<path id="Vector 17" d="M127.439 1270.9L137.66 1196C137.66 1196 149.17 1290.69 141.158 1286.83C133.146 1282.97 127.439 1270.9 127.439 1270.9Z" fill="black" stroke="black" stroke-width="2"/>
</g>
<path id="Ellipse 2" d="M149.199 1294.98C149.199 1297.99 148.335 1300.69 146.963 1302.63C145.59 1304.57 143.74 1305.71 141.75 1305.71C139.761 1305.71 137.911 1304.57 136.538 1302.63C135.166 1300.69 134.302 1297.99 134.302 1294.98C134.302 1291.96 135.166 1289.26 136.538 1287.32C137.911 1285.38 139.761 1284.24 141.75 1284.24C143.74 1284.24 145.59 1285.38 146.963 1287.32C148.335 1289.26 149.199 1291.96 149.199 1294.98Z" fill="black" stroke="black"/>
</g>
<path id="Vector 16" d="M136.498 1501C135.377 1501 136.498 1272 136.498 1272H143.971C143.971 1272 147.832 1501 146.836 1501H136.498Z" fill="black" stroke="black" stroke-width="2"/>
<g id="helix2">
<g id="helix2_2">
<path id="Vector 14_2" d="M282.138 1373.56L317.609 1403.01C317.609 1403.01 262.901 1377.69 268.178 1375.05C273.455 1372.4 282.138 1373.56 282.138 1373.56Z" fill="black" stroke="black" stroke-width="2"/>
<path id="Vector 18_2" d="M259.266 1387.38L213.781 1403.59C213.781 1403.59 262.623 1370.51 263.305 1375.75C263.986 1380.98 259.266 1387.38 259.266 1387.38Z" fill="black" stroke="black" stroke-width="2"/>
<path id="Vector 17_2" d="M257.415 1360.61L264.509 1318.56C264.509 1318.56 272.497 1371.72 266.937 1369.56C261.376 1367.39 257.415 1360.61 257.415 1360.61Z" fill="black" stroke="black" stroke-width="2"/>
</g>
<path id="Ellipse 2_2" d="M272.364 1374.13C272.364 1377.4 270.058 1379.93 267.348 1379.93C264.638 1379.93 262.331 1377.4 262.331 1374.13C262.331 1370.85 264.638 1368.32 267.348 1368.32C270.058 1368.32 272.364 1370.85 272.364 1374.13Z" fill="black" stroke="black"/>
</g>
<path id="Vector 16_2" d="M257.252 1501C255.571 1501 262.855 1355 262.855 1355H268.458C268.458 1355 274.248 1501 272.754 1501H257.252Z" fill="black" stroke="black" stroke-width="2"/>
<g id="helix3">
<g id="helix3_2">
<path id="Vector 14_3" d="M405.959 1438.38L436.217 1458.72C436.217 1458.72 389.55 1441.23 394.051 1439.4C398.553 1437.58 405.959 1438.38 405.959 1438.38Z" fill="black" stroke="black" stroke-width="2"/>
<path id="Vector 18_3" d="M386.449 1447.93L347.649 1459.12C347.649 1459.12 389.313 1436.27 389.894 1439.89C390.475 1443.5 386.449 1447.93 386.449 1447.93Z" fill="black" stroke="black" stroke-width="2"/>
<path id="Vector 17_3" d="M384.87 1429.43L390.921 1400.39C390.921 1400.39 397.736 1437.11 392.992 1435.61C388.249 1434.11 384.87 1429.43 384.87 1429.43Z" fill="black" stroke="black" stroke-width="2"/>
</g>
<path id="Ellipse 2_3" d="M397.549 1438.77C397.549 1440.86 395.703 1442.63 393.343 1442.63C390.983 1442.63 389.137 1440.86 389.137 1438.77C389.137 1436.67 390.983 1434.91 393.343 1434.91C395.703 1434.91 397.549 1436.67 397.549 1438.77Z" fill="black" stroke="black"/>
</g>
<path id="Vector 16_3" d="M388.742 1501C387.801 1501 391.879 1429.06 391.879 1429.06H395.016C395.016 1429.06 398.258 1501 397.421 1501H388.742Z" fill="black" stroke="black" stroke-width="2"/>
<path id="Vector 19" d="M1445 62H35C29.4772 62 25 66.4772 25 72C25 77.5228 29.4771 82 35 82H1445C1450.52 82 1455 77.5228 1455 72C1455 66.4772 1450.52 62 1445 62Z" fill="#C4C4C4" stroke="#C4C4C4" stroke-width="2"/>
<circle id="Ellipse 3" cx="35" cy="23" r="10" fill="#C4C4C4"/>
<circle id="Ellipse 5" cx="124" cy="23" r="10" fill="#C4C4C4"/>
<circle id="Ellipse 4" cx="78" cy="23" r="10" fill="#C4C4C4"/>
</svg>
