<svg width="600" height="400" viewBox="0 0 600 400" fill="none" xmlns="http://www.w3.org/2000/svg">
<style>
body{
    
    text-align: center;
    margin-top: 50px;
}

#costume-two, #pantalon-two, #chaussure-g-two, #chaussure-d-tree, #poche-costume-two, #cheveux-two, #tete-two, 
#main-d-two, #main-g-two, #bouton1-two, #bouton2-two, #bouton3-two, #bouton4-two {
    animation: costume-two 5s infinite linear;
    
}

@keyframes costume-two {
    0% {
    transform: translate(0px);
  } 
     50% {
    transform: translate(-20px, -35px);
  } 
     100% {
    transform: translate(0px);
  } 
}

#t-shirt-tree, #epaule-tree, #pied-g-tree, #pieddroitetree, #bras-g-tree, #vraisbrasdroittree, #chaussure-g-tree, 
#vraischaussuredroittree4, #cheveu-tree, #tete-tree, #cou-tree, #plateau, #basduplateau, #bas2-plateau, 
#premier-billet, #deuxieme-billet {
    animation: t-shirt-tree 5s infinite linear;
}

@keyframes t-shirt-tree {
    0% {
    transform: translate(0px);
  } 
    50% {
    transform: translate(20px);
  }
    100% {
    transform: translate(0px);
  }  
}

#face-portefeuille, #lautre-face, #fermeture, #bouton, #barre-portefeuille, #cheveu-one, #visage-one, #cou, 
#echarpe-one, #morceau-echarp, #bras-d, #veste-g, #bras-g, #main-g, #troisieme-billet, #cinquieme-billet{
    animation: face-portefeuille 5s infinite linear;
}

@keyframes face-portefeuille {
    0% {
        transform: translate(0px);
    }
    50% {
        transform: translate(-30px);
    }
    100% {
        transform: translate(0px);
    }
}

#cheveu-one {
    animation: cheveu-one 2s infinite liener;
}
@keyframes cheveu-one {
    to {
        transform: translateX(-20px, 75px);
    }
}
</style>
<g id="portfolio">
<path id="sol" d="M600 395.479H0V400H600V395.479Z" fill="#85848B"/>
<path id="bas2-plateau" d="M475.356 315.649C475.356 319.126 455.697 329.265 432.344 329.265C408.992 329.265 390.796 319.126 390.796 315.649C390.796 312.171 409.724 313.291 433.099 313.291C456.474 313.291 475.356 312.165 475.356 315.649Z" fill="#504F60"/>
<path id="basduplateau" opacity="0.2" d="M475.356 315.649C475.356 319.126 455.697 329.265 432.344 329.265C408.992 329.265 390.796 319.126 390.796 315.649" fill="black"/>
<path id="chaussette-d-one" d="M240.182 251.834C243.972 252.335 247.905 252.653 251.535 251.439C252.107 251.256 252.735 250.85 252.678 250.26C252.637 250.046 252.549 249.844 252.421 249.671C251.053 247.554 249.903 245.296 248.991 242.933C248.955 242.81 248.881 242.702 248.78 242.627C248.661 242.582 248.532 242.582 248.414 242.627C246.739 243.08 245.292 244.195 243.629 244.672C242.781 244.912 241.895 244.98 241.022 244.872C240.268 244.784 239.239 244.142 238.553 244.224C238.941 246.8 239.89 249.205 240.182 251.834Z" fill="#6C63FF"/>
<path id="chaussette-g-one" d="M311.862 245.309C314.36 243.54 316.95 241.683 318.425 238.954C318.53 238.791 318.591 238.602 318.602 238.406C318.577 238.213 318.504 238.031 318.39 237.876C316.985 235.573 315.177 233.56 313.057 231.94C311.951 232.745 310.951 233.697 310.084 234.769C309.455 235.453 307.717 236.538 307.7 237.581C307.7 238.17 308.363 238.854 308.672 239.349C309.089 239.986 309.484 240.634 309.861 241.294C310.078 241.619 312.062 245.179 311.862 245.309Z" fill="#6C63FF"/>
<path id="chaussure-d-one" d="M255.039 259.727C255.084 260.334 254.922 260.938 254.582 261.436C254.315 261.713 253.985 261.916 253.621 262.026C248.322 263.983 242.188 261.542 236.9 263.47C235.814 263.865 234.785 264.437 233.693 264.814C232.392 265.217 231.049 265.463 229.692 265.545C227.823 265.727 225.942 265.845 224.067 265.898C222.642 266.002 221.21 265.873 219.825 265.515C219.132 265.332 218.485 265.001 217.924 264.543C217.364 264.085 216.903 263.511 216.572 262.857C216.285 262.271 216.228 261.593 216.412 260.965C216.495 260.749 216.613 260.55 216.761 260.375C217.119 259.961 217.54 259.608 218.007 259.332L219.957 258.035C220.871 257.368 221.864 256.826 222.912 256.42C223.684 256.161 224.501 256.049 225.284 255.83C228.023 255.005 230.115 252.765 232.059 250.614L234.711 247.696C234.959 247.375 235.273 247.115 235.631 246.936C235.999 246.809 236.39 246.771 236.775 246.824C239.351 247.013 241.839 247.873 244.006 249.323C244.56 249.751 245.158 250.115 245.79 250.407C247.345 251.032 249.34 250.561 250.775 249.771C251.455 249.394 251.306 249.181 251.592 248.509C251.878 247.837 252.575 247.407 253.181 248.02C253.364 248.232 253.494 248.487 253.559 248.763C254.13 250.708 253.913 252.801 253.913 254.84C253.896 255.159 253.935 255.478 254.027 255.783C254.173 256.091 254.347 256.383 254.548 256.656C254.588 256.728 254.625 256.803 254.656 256.88C255.006 257.783 255.137 258.76 255.039 259.727V259.727Z" fill="#514E7F"/>
<path id="semelle-droite-one" d="M255.039 259.727C255.084 260.334 254.922 260.938 254.582 261.436C254.315 261.713 253.985 261.916 253.621 262.026C248.322 263.983 242.188 261.542 236.9 263.47C235.814 263.865 234.785 264.437 233.693 264.814C232.392 265.217 231.049 265.463 229.692 265.545C227.823 265.727 225.942 265.845 224.067 265.898C222.642 266.002 221.21 265.873 219.825 265.515C219.132 265.332 218.485 265.001 217.924 264.543C217.364 264.085 216.903 263.511 216.572 262.857C216.285 262.271 216.228 261.593 216.412 260.965C216.495 260.749 216.613 260.55 216.761 260.375C217.07 261.041 217.293 261.925 217.487 262.244C217.75 262.715 218.107 263.124 218.535 263.442C218.962 263.76 219.451 263.981 219.968 264.089C220.742 264.138 221.518 264.036 222.255 263.788C227.057 262.562 232.161 262.544 236.775 260.688C238.358 260.045 239.867 259.19 241.531 258.801C243.194 258.412 244.961 258.518 246.676 258.371C249.385 258.147 252.009 257.304 254.679 256.862C255.024 257.772 255.147 258.756 255.039 259.727V259.727Z" fill="#464353"/>
<path id="chaussure-g-one" d="M323.998 244.949C323.747 247.024 322.472 248.81 321.071 250.325C319.671 251.84 318.087 253.201 316.972 254.946C315.601 257.11 314.983 259.792 313.2 261.619C312.515 262.283 311.746 262.849 310.913 263.299C309.98 263.866 308.994 264.334 307.969 264.696C305.305 265.574 302.435 265.374 299.651 265.162C298.747 265.153 297.853 264.975 297.01 264.637C296.627 264.436 296.26 264.203 295.913 263.941C295.215 263.498 294.627 262.893 294.198 262.173C293.987 261.782 293.927 261.323 294.032 260.888C294.191 260.409 294.464 259.98 294.826 259.638C295.453 258.967 296.125 258.342 296.839 257.77C297.817 257.119 298.699 256.324 299.457 255.412C299.922 254.691 300.264 253.894 300.469 253.054C300.874 251.583 301.121 250.071 301.206 248.545C301.203 247.531 301.305 246.519 301.509 245.527C301.932 243.971 303.053 242.579 302.927 240.97C302.876 240.74 302.896 240.499 302.984 240.281C303.117 240.11 303.303 239.992 303.51 239.945C304.384 239.586 305.305 239.365 306.242 239.29C306.713 239.257 307.184 239.331 307.623 239.509C308.062 239.686 308.458 239.962 308.781 240.316C309.169 240.799 309.427 241.495 309.998 241.683C310.282 241.763 310.579 241.775 310.867 241.719C312.273 241.571 313.76 241.389 314.869 240.452C315.381 239.977 315.793 239.399 316.079 238.753C316.364 238.107 316.516 237.407 316.527 236.697C316.527 236.16 316.292 235.6 317.098 235.518C317.704 235.435 318.184 236.107 318.493 236.52C319.608 238.058 320.751 239.668 321.168 241.542C321.331 241.477 321.503 241.443 321.677 241.442C322.034 241.439 322.386 241.524 322.703 241.692C323.021 241.859 323.294 242.103 323.501 242.403C323.956 243.163 324.132 244.066 323.998 244.949Z" fill="#514E7F"/>
<path id="semelle-g-one" d="M323.998 244.949C323.747 247.024 322.472 248.81 321.071 250.325C319.671 251.84 318.087 253.201 316.973 254.946C315.601 257.11 314.983 259.792 313.2 261.619C312.515 262.283 311.746 262.849 310.913 263.299C309.98 263.866 308.994 264.335 307.969 264.696C305.305 265.574 302.435 265.374 299.651 265.162C298.747 265.153 297.853 264.975 297.01 264.637C296.627 264.436 296.26 264.203 295.913 263.941C295.215 263.498 294.627 262.893 294.198 262.173C294.734 261.907 295.318 261.763 295.913 261.749C297.147 261.819 298.051 263.022 299.234 263.393C300.92 263.918 302.601 262.692 304.31 262.273C305.425 262.002 306.597 262.073 307.7 261.684C308.62 261.317 309.469 260.787 310.21 260.116C311.225 259.367 312.128 258.47 312.891 257.451C313.524 256.433 314.051 255.348 314.463 254.215C315.366 252.044 316.428 249.947 317.641 247.944C317.821 247.626 318.038 247.333 318.287 247.071C318.556 246.818 318.859 246.641 319.162 246.417C320.305 245.527 320.78 244.059 321.18 242.621C321.288 242.184 321.44 241.759 321.632 241.353C321.988 241.35 322.34 241.436 322.658 241.603C322.975 241.77 323.249 242.014 323.455 242.314C323.947 243.093 324.141 244.032 323.998 244.949V244.949Z" fill="#464353"/>
<path id="cou" d="M204.127 61.168C205.55 62.2674 206.721 63.6761 207.557 65.2942C208.358 66.9093 212.971 79.4412 212.702 81.2626C214.206 79.7005 220.134 79.4471 221.654 77.885C222.289 77.2307 225.713 73.9651 226.228 73.2047C226.742 72.4443 230.561 70.8469 230.978 70.0452C232.539 67.1628 219.911 56.2401 221.529 53.3931C221.618 53.2622 221.664 53.1051 221.66 52.9451C221.623 52.8107 221.55 52.69 221.449 52.5973C220.414 51.5068 219.042 50.8289 217.796 50.0214C216.55 49.2138 215.349 48.0879 215.012 46.6025C213.823 47.1666 212.732 47.9272 211.782 48.8542C209.465 50.9016 207.188 52.9903 204.951 55.1202C204.076 55.9572 202.384 57.0713 201.978 58.2679C201.498 59.5529 203.293 60.4665 204.127 61.168Z" fill="#5B484B"/>
<path id="t-shirt" d="M224.57 56.529C222.632 57.8715 220.822 59.399 219.162 61.0914C217.596 62.6888 216.109 64.5397 215.732 66.7737C215.572 67.652 215.595 68.5421 215.463 69.4322C214.892 73.2931 211.656 76.1225 210.227 79.7359C209.813 80.8511 209.508 82.0064 209.318 83.1842C208.916 85.4171 208.697 87.6806 208.661 89.9512C208.626 92.1499 210.719 93.6648 211.485 95.7161C212.251 97.7674 212.456 99.8777 212.845 101.982C213.577 105.955 214.92 109.786 216.275 113.594C219.093 121.623 228.228 143.816 231.047 151.85C239.684 149.616 262.677 144.482 270.325 139.772C272.875 138.204 252.632 120.515 255.359 119.294C255.515 119.269 255.663 119.207 255.792 119.113C255.921 119.019 256.026 118.895 256.1 118.752C256.175 118.608 256.216 118.449 256.22 118.286C256.224 118.124 256.192 117.962 256.125 117.815C253.399 105.519 244.869 95.4155 240.999 83.4436C239.656 79.2879 237.243 75.7394 235.414 71.79C233.756 68.212 232.87 64.2568 230.887 60.8556C230.513 60.1549 230.023 59.5266 229.44 58.9988C228.946 58.6076 228.411 58.2736 227.845 58.0026C226.714 57.4367 225.662 57.1008 224.57 56.529Z" fill="white"/>
<path id="visage-one" d="M204.585 59.771C212.051 59.771 218.104 53.5295 218.104 45.8303C218.104 38.1311 212.051 31.8896 204.585 31.8896C197.118 31.8896 191.065 38.1311 191.065 45.8303C191.065 53.5295 197.118 59.771 204.585 59.771Z" fill="#5B484B"/>
<path id="veste-g" d="M218.339 52.3792C219.013 51.7384 219.859 51.3232 220.766 51.1885C221.673 51.0538 222.599 51.2059 223.421 51.6247C224.335 52.1139 225.136 53.1042 224.93 54.1417L231.636 54.2478C232.703 54.2177 233.77 54.3186 234.814 54.5484C235.865 54.7843 236.803 55.391 237.466 56.2637C237.546 56.3757 237.638 56.5113 237.775 56.529C237.887 56.5308 237.996 56.4933 238.084 56.4229C239.115 55.8894 240.277 55.6842 241.422 55.8334C245.047 56.0751 248.397 57.9437 251.238 60.2779C251.75 60.6411 252.148 61.1515 252.381 61.7457C252.615 62.5296 252.335 63.514 252.953 64.074C252.953 70.5581 255.113 76.6177 256.554 82.9367C256.811 84.0625 257.857 85.0587 258.583 85.9429C259.48 86.9231 260.213 88.0507 260.75 89.2792C261.973 92.5566 260.287 96.4117 261.476 99.7008C261.979 101.092 262.951 102.236 263.763 103.444C264.833 104.839 265.509 106.512 265.718 108.277C265.769 109.067 265.672 109.863 265.718 110.635C265.794 111.697 265.986 112.747 266.289 113.765C266.777 115.667 267.288 117.567 267.821 119.465C268.69 122.531 269.822 125.837 272.486 127.47C266.055 128.596 259.275 129.698 253.147 127.394C252.292 127.093 251.481 126.675 250.735 126.15C248.522 124.523 247.453 121.741 246.499 119.112C245.435 116.164 244.355 113.164 244.138 110.028C244.14 109.031 244.003 108.038 243.732 107.081C243.109 105.371 241.445 104.34 239.936 103.391C238.232 102.428 236.688 101.19 235.363 99.7244C234.705 98.9862 234.202 98.1167 233.883 97.1697C233.564 96.2227 233.438 95.2184 233.511 94.2189C233.625 93.2463 233.996 92.3091 234.031 91.3306C234.065 90.3521 233.642 89.2321 232.733 88.9727C228.051 87.5109 225.816 81.7931 224.776 76.8653C224.327 74.3183 224.126 71.7315 224.175 69.1434L224.113 64.1153C223.466 63.5092 222.947 62.7738 222.585 61.954C222.223 61.1342 222.027 60.247 222.009 59.3466C222.071 58.8212 222.061 58.2894 221.98 57.7668C221.754 57.128 221.386 56.5527 220.906 56.0869C219.872 54.993 219.006 53.7427 218.339 52.3792V52.3792Z" fill="#464353"/>
<path id="bras-d" d="M203.939 68.3181C203.784 69.8743 204.127 71.4717 203.79 72.9984C203.659 73.5879 203.43 74.1773 203.264 74.7255C202.757 76.9229 202.977 79.2319 203.887 81.2862C204.797 83.3203 205.886 85.2638 207.14 87.0923C207.564 87.7166 207.914 88.3915 208.18 89.1024C208.397 89.8489 208.531 90.618 208.581 91.3954C208.912 94.5169 209.443 97.6124 210.17 100.662C210.81 103.302 218.082 125.879 219.774 127.971C220.081 128.435 220.546 128.761 221.077 128.885C221.46 128.9 221.84 128.819 222.186 128.649L225.616 127.293C225.908 127.201 226.178 127.049 226.411 126.845C226.732 126.458 226.907 125.964 226.902 125.454C227.148 122.578 219.859 99.8423 218.933 97.1249C216.132 88.9197 212.405 81.0091 210.581 72.5151C210.073 70.1572 209.804 66.5262 208.129 64.6458C207.437 63.8677 207.672 64.1978 206.843 64.6045C206.424 64.792 206.019 65.0106 205.631 65.2588C205.146 65.6066 204.742 66.0618 204.449 66.5911C204.156 67.1204 203.982 67.7104 203.939 68.3181Z" fill="#464353"/>
<path id="morceau-echarp" d="M214.349 83.8857C215.269 88.902 216.218 93.9065 217.161 98.9228L230.584 95.2976C230.692 93.8475 229.943 92.5036 229.44 91.1714C228.217 88.006 228.188 84.4811 227.199 81.2272C226.451 78.7515 225.147 76.4762 224.444 73.9828C224.038 72.5328 223.832 71.0355 223.432 69.5678C223.003 68.1264 222.476 66.718 221.854 65.3532C221.101 63.3737 220.118 61.4954 218.928 59.7592C217.213 60.4194 215.383 61.1857 214.406 62.7831C213.904 63.6832 213.618 64.6936 213.571 65.7304C213.337 68.8369 214.429 71.961 214.068 75.0497C213.698 77.9913 213.792 80.9754 214.349 83.8857V83.8857Z" fill="#6C63FF"/>
<path id="pantalon-one" d="M233.458 151.922C234.213 154.869 233.121 157.97 232.229 160.888C230.887 165.283 229.971 169.804 229.497 174.386C229.439 175.552 229.211 176.703 228.822 177.799C228.399 178.783 227.679 179.615 227.187 180.552C225.838 183.016 225.873 186.022 226.164 188.84C226.358 190.696 226.65 192.547 227.01 194.375C227.45 196.609 227.993 198.943 227.359 201.124C228.422 200.882 229.142 202.303 229.074 203.417C229.005 204.531 228.657 205.775 229.177 206.736C230.492 207.231 230.503 209.093 230.463 210.538C230.485 213.042 230.792 215.534 231.378 217.965C233.367 227.828 235.478 237.664 237.712 247.473C242.542 249.017 248.184 250.627 252.792 248.487C253.649 248.092 254.507 247.461 254.701 246.506C254.751 245.992 254.689 245.472 254.518 244.985L252.335 236.792C251.803 234.811 251.271 232.766 251.551 230.732C251.763 229.217 252.403 227.585 251.683 226.247C251.437 225.787 251.048 225.427 250.763 224.991C249.619 223.264 250.219 220.953 250.311 218.861C250.347 218.391 250.316 217.918 250.219 217.458C250.063 216.92 249.844 216.403 249.568 215.919C247.763 212.307 246.896 208.273 247.052 204.213C247.121 203.694 247.052 203.167 246.852 202.686C246.714 202.487 246.589 202.279 246.481 202.061C246.396 201.683 246.438 201.286 246.601 200.935C245.946 200.423 245.354 199.829 244.84 199.167C245.157 198.964 245.425 198.689 245.624 198.363C245.823 198.037 245.948 197.669 245.989 197.287C246.029 196.904 245.985 196.517 245.86 196.154C245.734 195.792 245.53 195.463 245.263 195.194C245.496 195.146 245.712 195.031 245.886 194.864C246.06 194.697 246.186 194.484 246.249 194.247C246.312 194.011 246.311 193.761 246.245 193.525C246.179 193.29 246.051 193.078 245.875 192.913C245.595 192.712 245.223 192.624 245.023 192.323C244.714 191.887 244.966 191.28 245.217 190.814L246.549 188.333C247.544 186.488 247.767 184.206 248.836 182.438C250.368 179.862 251.368 176.992 252.357 174.15L256.205 163.204L258.794 165.521C259.657 166.2 260.38 167.05 260.921 168.02C261.289 168.979 261.522 169.987 261.613 171.014C262.562 176.956 266.186 182.108 267.529 187.961C267.826 189.264 268.027 190.632 268.753 191.746C269.012 192.088 269.246 192.45 269.45 192.83C269.639 193.41 269.738 194.017 269.742 194.628C269.861 195.825 270.23 196.982 270.822 198.019C271.413 199.057 272.215 199.951 273.171 200.641C274.446 201.542 276.03 202.161 276.721 203.588C276.86 204.03 277.052 204.451 277.293 204.843C277.911 205.61 279.242 205.698 279.505 206.659C279.654 207.195 279.38 207.838 279.671 208.309C279.837 208.528 280.056 208.697 280.306 208.799L284.027 210.714C288.189 212.86 290.315 217.788 293.385 221.378C294.445 222.547 295.384 223.827 296.186 225.197C297.513 227.644 298.124 230.715 300.365 232.271C300.968 232.593 301.516 233.013 301.989 233.515C302.692 234.47 302.435 235.808 302.497 237.01C302.56 238.213 303.452 239.645 304.561 239.28C304.173 240.736 304.173 242.274 304.561 243.73C309.43 243.472 314.073 241.533 317.744 238.224C318.83 237.246 319.876 235.996 319.887 234.511C319.904 234.254 319.848 233.999 319.727 233.774C319.507 233.484 319.218 233.258 318.887 233.12C315.406 231.174 314.359 226.665 312.599 223.005C311.061 219.774 308.786 216.992 306.882 213.992C302.743 207.537 299.919 199.727 293.66 195.465C292.282 194.528 290.681 193.697 289.99 192.146C289.607 191.28 289.561 190.29 289.258 189.394C288.955 188.498 288.229 187.625 287.303 187.625C287.817 186.329 287.714 184.749 287.749 183.346C287.784 182.723 287.714 182.099 287.543 181.501C287.305 180.857 286.996 180.244 286.623 179.674C284.989 176.822 284.173 173.552 284.267 170.242C284.313 168.539 284.605 166.782 284.107 165.155C283.856 164.336 283.416 163.587 283.113 162.797C282.656 161.366 282.415 159.871 282.398 158.365L282.055 152.7C282.003 150.813 281.766 148.937 281.346 147.1C280.203 142.703 279.06 124.282 275.144 122.207C271.228 120.132 264.499 134.309 260.092 134.586C258.142 134.67 256.215 135.053 254.375 135.724C251.443 136.855 248.985 138.966 246.589 141.029L238.483 148.049C236.768 149.505 235.351 150.896 233.458 151.922Z" fill="#464353"/>
<path id="cheveu-one" d="M191.9 30.3512C193.683 27.8401 196.747 26.5079 199.766 26.3959C202.784 26.2839 205.757 27.2624 208.461 28.6476C209.259 29.1156 210.112 29.4762 210.999 29.7204C212.428 30.0211 214.017 29.6202 215.309 30.3099C217.024 31.2471 217.356 33.6344 217.207 35.615C217.058 37.5956 216.698 39.7943 217.721 41.5096C218.084 41.9988 218.415 42.5128 218.71 43.0481C219.151 44.0678 218.893 45.2468 218.63 46.3255C217.961 45.736 217.584 44.8459 216.99 44.1621C216.395 43.4784 215.36 43.0186 214.623 43.5314C213.886 44.0443 213.897 44.9756 213.857 45.8126C213.817 46.6497 213.611 47.6517 212.845 47.9229C212.525 47.998 212.191 47.9724 211.885 47.8494C211.579 47.7265 211.316 47.5118 211.13 47.2332C209.821 45.5827 210.347 42.9479 209.049 41.2856C208.312 40.3425 207.083 39.8827 206.403 38.8924C205.865 38.1143 205.728 37.124 205.259 36.287C204.79 35.45 203.699 34.8369 202.973 35.4146C202.725 35.6587 202.518 35.9436 202.361 36.2575C201.908 36.9262 201.25 37.4179 200.493 37.6532C199.736 37.8885 198.924 37.8537 198.188 37.5543C197.626 37.1985 197.018 36.9266 196.381 36.7468C195.965 36.7253 195.551 36.8243 195.186 37.0326C194.822 37.2409 194.521 37.5503 194.318 37.9257C193.907 38.6757 193.709 39.5293 193.746 40.3896C193.746 41.5685 193.952 42.8241 193.3 43.7672C193.052 44.1223 192.742 44.4262 192.386 44.6632C191.431 45.2939 190.099 45.7183 189.219 44.9992C188.92 44.7126 188.698 44.3517 188.574 43.9512C188.45 43.5507 188.428 43.124 188.51 42.7121C188.681 41.8916 188.906 41.0842 189.184 40.2953C189.687 38.468 189.03 36.4108 189.579 34.6896C190.154 33.1395 190.935 31.6793 191.9 30.3512V30.3512Z" fill="#464353"/>
<path id="echarpe-one" d="M199.143 71.9374C199.057 72.367 199.101 72.8134 199.268 73.2165C199.438 73.491 199.67 73.7195 199.943 73.8826C201.865 75.1175 204.052 75.8481 206.311 76.0106C206.619 76.016 206.92 76.0968 207.191 76.2463C207.729 76.6118 207.763 77.4253 207.563 78.0737C207.296 78.6853 207.158 79.3482 207.157 80.0189C207.323 81.2508 208.741 81.7872 209.935 81.97C211.61 82.1881 213.445 82.0761 214.772 80.9974C215.67 80.1525 216.355 79.0942 216.767 77.9145C220.048 70.1396 221.197 61.5453 224.518 53.7939C224.77 53.2878 224.938 52.7419 225.016 52.1788C225.051 51.8969 225.012 51.6105 224.903 51.3493C224.795 51.088 224.62 50.8616 224.398 50.6934C223.781 50.2984 222.821 50.5224 222.403 49.9035C222.197 49.5911 222.22 49.1667 222.037 48.8366C221.654 48.1351 220.648 48.2471 219.962 47.8404C219.425 47.5457 219.053 46.9385 218.453 46.8206C218.158 46.8035 217.864 46.8574 217.593 46.9781C217.322 47.0989 217.082 47.2831 216.892 47.5162C214.943 49.3907 213.92 52.0491 212.834 54.5602C211.175 58.4093 209.234 62.1219 207.026 65.6656C207.283 65.253 205.791 62.1288 205.208 61.9933C204.185 61.781 202.875 63.632 202.321 64.3216C200.581 66.497 199.478 69.1389 199.143 71.9374V71.9374Z" fill="#6C63FF"/>
<path id="Vector" opacity="0.1" d="M219.911 48.3886C219.5 48.3956 219.096 48.4978 218.729 48.6876C218.362 48.8774 218.041 49.1499 217.79 49.485C217.178 50.3043 217.058 51.3889 216.904 52.4322C216.384 55.7377 215.24 58.9059 213.537 61.7575" fill="black"/>
<path id="Vector_2" opacity="0.1" d="M222.826 50.7405C222.259 50.7535 221.706 50.9185 221.22 51.2193C220.733 51.5201 220.332 51.9463 220.054 52.4558C219.675 53.383 219.44 54.3655 219.356 55.3677C218.866 57.5897 217.921 59.6779 216.584 61.4922" fill="black"/>
<path id="barre-portefeuille" d="M358.686 165.979V158.658C358.685 153.269 356.607 148.101 352.911 144.291C349.215 140.48 344.202 138.34 338.976 138.34H58.5834C53.3568 138.34 48.3442 140.48 44.6479 144.291C40.9515 148.101 38.8742 153.269 38.8727 158.658V172.157L358.686 165.979Z" fill="#33323D"/>
<path id="septieme-billet" d="M136.586 129.757C136.586 129.757 135.786 180.958 144.589 197.804C153.393 214.651 157.166 287.938 157.166 287.938C157.166 287.938 249.454 297.782 313.765 276.149C378.077 254.516 514.92 245.668 514.92 245.668L491.86 85.4006C491.86 85.4006 377.934 77.8673 313.125 109.739C248.316 141.611 136.586 129.757 136.586 129.757Z" fill="#8DD070"/>
<path id="sixieme-billet" opacity="0.1" d="M136.586 129.757C136.586 129.757 135.786 180.958 144.589 197.804C153.393 214.651 157.166 287.938 157.166 287.938C157.166 287.938 249.454 297.782 313.765 276.149C378.077 254.516 514.92 245.668 514.92 245.668L491.86 85.4006C491.86 85.4006 377.934 77.8673 313.125 109.739C248.316 141.611 136.586 129.757 136.586 129.757Z" fill="black"/>
<path id="cinquieme-billet" d="M157.011 148.461C157.011 148.461 154.125 190.707 161.367 204.206C168.61 217.704 168.948 277.965 168.948 277.965C168.948 277.965 252.004 281.937 311.084 261.2C370.165 240.463 494.318 227.012 494.318 227.012L480.209 95.946C480.209 95.946 377.482 94.8555 317.527 124.045C257.572 153.235 157.011 148.461 157.011 148.461Z" fill="#8DD070"/>
<path id="Vector_3" opacity="0.1" d="M316.615 237.203C328.432 235.686 335.453 213.269 332.296 187.134C329.139 160.999 317 141.043 305.182 142.56C293.365 144.078 286.344 166.495 289.501 192.63C292.658 218.765 304.797 238.721 316.615 237.203Z" fill="black"/>
<path id="quatrieme-billet" opacity="0.2" d="M429.4 7.32697C429.4 7.32697 318.722 36.2104 266.529 87.0511C214.337 137.892 104.465 161.965 104.465 161.965C104.465 161.965 118.939 210.943 132.327 224.194C145.715 237.445 171.108 306.011 171.108 306.011C171.108 306.011 261.87 286.17 316.635 245.214C371.4 204.259 499.034 152.534 499.034 152.534L429.4 7.32697Z" fill="black"/>
<path id="troisieme-billet" d="M102.801 154.632C102.801 154.632 117.27 203.616 130.647 216.867C144.023 230.118 169.428 298.678 169.428 298.678C169.428 298.678 260.201 278.843 314.972 237.887C369.742 196.932 497.365 145.225 497.365 145.225L427.731 0C427.731 0 317.058 28.8834 264.866 79.7241C212.674 130.565 102.801 154.632 102.801 154.632Z" fill="#8DD070"/>
<path id="deuxieme-billet" opacity="0.1" d="M102.801 154.632C102.801 154.632 117.27 203.616 130.647 216.867C144.023 230.118 169.428 298.678 169.428 298.678C169.428 298.678 260.201 278.843 314.972 237.887C369.742 196.932 497.365 145.225 497.365 145.225L427.731 0C427.731 0 317.058 28.8834 264.866 79.7241C212.674 130.565 102.801 154.632 102.801 154.632Z" fill="black"/>
<path id="premier-billet" d="M127.788 165.974C127.788 165.974 137.615 207.1 148.528 217.651C159.441 228.203 177.682 285.439 177.682 285.439C177.682 285.439 257.909 262.933 307.969 224.501C358.029 186.068 472.2 134.037 472.2 134.037L419.774 13.7167C419.774 13.7167 321.683 45.176 273.304 91.9318C224.924 138.688 127.788 165.974 127.788 165.974Z" fill="#8DD070"/>
<path id="Vector_4" opacity="0.1" d="M306.118 199.931C316.914 194.747 316.925 171.191 306.143 147.315C295.36 123.44 277.868 108.288 267.072 113.472C256.277 118.656 256.266 142.212 267.048 166.088C277.83 189.963 295.322 205.115 306.118 199.931Z" fill="black"/>
<path id="lautre-face" opacity="0.1" d="M366.255 173.165V376.528C366.255 378.837 365.814 381.124 364.957 383.258C364.099 385.392 362.843 387.33 361.259 388.963C359.674 390.596 357.794 391.891 355.724 392.775C353.655 393.658 351.437 394.112 349.197 394.111H55.9367C51.415 394.11 47.0791 392.257 43.8824 388.959C40.6857 385.662 38.8898 381.19 38.8898 376.528V152.664C47.2932 155.882 47.2932 155.882 55.9367 155.611H349.197C353.715 155.611 358.049 157.459 361.247 160.75C364.445 164.041 366.246 168.506 366.255 173.165V173.165Z" fill="black"/>
<path id="face-portefeuille" d="M366.255 175.753V379.116C366.254 383.78 364.456 388.252 361.257 391.549C358.058 394.847 353.72 396.699 349.197 396.699H55.9367C51.415 396.697 47.0791 394.844 43.8824 391.547C40.6857 388.249 38.8898 383.778 38.8898 379.116V155.245C47.2932 158.458 47.2932 158.458 55.9367 158.193H349.197C353.716 158.193 358.051 160.042 361.249 163.334C364.447 166.626 366.248 171.093 366.255 175.753V175.753Z" fill="#5B484B"/>
<path id="fermeture2" opacity="0.1" d="M365.42 250.938V315.973H304.253C295.963 315.858 288.05 312.381 282.227 306.295C276.404 300.21 273.139 292.004 273.139 283.455C273.139 274.906 276.404 266.701 282.227 260.615C288.05 254.53 295.963 251.053 304.253 250.938H365.42Z" fill="black"/>
<path id="fermeture" d="M366.255 249.205V314.252H305.088C296.798 314.136 288.885 310.66 283.062 304.574C277.239 298.489 273.974 290.283 273.974 281.734C273.974 273.185 277.239 264.98 283.062 258.894C288.885 252.808 296.798 249.332 305.088 249.217L366.255 249.205Z" fill="#E5E5E5"/>
<path id="Vector_5" opacity="0.1" d="M308.02 296.138C314.811 296.138 320.317 290.461 320.317 283.458C320.317 276.456 314.811 270.779 308.02 270.779C301.229 270.779 295.724 276.456 295.724 283.458C295.724 290.461 301.229 296.138 308.02 296.138Z" fill="black"/>
<path id="bouton" d="M308.855 294.416C315.646 294.416 321.151 288.74 321.151 281.737C321.151 274.735 315.646 269.058 308.855 269.058C302.064 269.058 296.559 274.735 296.559 281.737C296.559 288.74 302.064 294.416 308.855 294.416Z" fill="#5B484B"/>
<path id="vraisbrasdroittree" d="M472.429 248.645C472.915 254.074 468.93 259.344 470.091 264.661C470.342 265.798 470.817 266.871 470.988 268.02C471.469 271.18 469.645 274.168 467.901 276.809L452.924 299.468C452.324 300.464 451.606 301.379 450.786 302.191C447.928 304.82 443.629 304.549 439.867 305.333C437.223 305.887 434.727 307.025 432.55 308.669C432.459 308.75 432.401 308.863 432.389 308.985C432.376 309.108 432.409 309.231 432.482 309.33C433.103 310.202 433.927 310.901 434.877 311.361C435.828 311.821 436.875 312.029 437.924 311.964C438.318 312.501 437.924 313.285 437.352 313.668C436.546 314.257 435.443 314.399 435.283 315.802C435.226 316.292 435.322 316.787 435.557 317.217C436.161 318.17 437.099 318.844 438.175 319.097C443.36 320.73 448.962 317.859 452.844 313.951C456.726 310.043 459.51 305.109 463.317 301.13C465.426 298.932 467.821 297.045 469.994 294.911C474.327 290.656 477.694 285.48 480.947 280.299C481.924 278.737 482.907 277.133 483.319 275.324C483.731 273.514 483.536 271.687 483.999 269.936C484.605 267.637 486.234 265.81 487.589 263.882C490.248 260.11 492.02 255.494 491.671 250.85C491.322 246.205 488.527 241.613 484.274 240.033C482.956 239.487 481.502 239.396 480.129 239.774C478.386 240.328 477.099 241.813 475.91 243.234L473.052 246.623C472.339 247.367 471.776 248.248 471.394 249.217C471.211 249.703 471.168 250.234 471.269 250.745C471.37 251.256 471.612 251.726 471.966 252.099" fill="#FBBEBE"/>
<path id="vraischaussuredroittree4" d="M483.765 388.405C480.495 390.463 476.419 390.586 472.618 390.109C472.006 390.032 471.28 389.985 470.903 390.474C470.331 391.182 471.006 392.243 471.703 392.791C473.945 394.527 476.58 395.645 479.357 396.039C481.838 396.401 484.341 396.573 486.846 396.552C493.706 396.675 500.566 396.793 507.317 395.779C507.717 395.748 508.106 395.632 508.461 395.438C508.896 395.122 509.198 394.648 509.307 394.111C509.77 392.296 508.878 390.351 507.529 389.089C506.18 387.828 504.447 387.126 502.755 386.448L496.81 384.061C495.415 383.501 493.18 382.016 491.665 382.134C488.818 382.346 486.126 386.979 483.765 388.405Z" fill="#3F3D56"/>
<path id="pieddroitetree" d="M487.932 307.025C485.457 310.42 482.896 314.34 483.508 318.543C483.839 320.806 485.068 322.805 485.972 324.897C487.195 327.738 487.835 330.792 488.464 333.833C489.39 338.278 490.322 342.734 490.888 347.249C491.534 352.348 488.498 367.102 488.218 372.236C488.15 373.474 488.007 374.812 487.172 375.702C486.846 376.056 486.412 376.339 486.263 376.799C486.176 377.242 486.247 377.702 486.463 378.096C487.858 381.338 490.711 383.754 493.895 385.134C497.079 386.513 504.756 388.895 508.226 389.018C508.684 389.07 509.146 389.008 509.575 388.836C510.037 388.545 510.4 388.115 510.616 387.604C513.102 382.699 510.713 365.263 510.747 359.728C510.781 355.113 511.839 350.527 511.645 345.917C511.485 342.215 510.501 338.596 510.176 334.906C509.604 328.858 510.679 322.781 511.759 316.804C512.582 312.218 513.411 307.632 514.469 303.105C515.115 300.34 515.864 297.552 517.327 295.153C518.47 293.249 520.077 291.658 521.409 289.848C525.106 284.85 526.748 278.554 525.982 272.318C525.902 271.728 517.407 274.54 516.658 274.876C513.603 276.21 510.791 278.074 508.346 280.387C506.38 282.321 504.831 284.903 503.11 287.066C500.675 290.127 498.27 293.21 495.896 296.314C493.186 299.863 490.531 303.433 487.932 307.025Z" fill="#3F3D56"/>
<path id="tete-tree" d="M460.39 232.246C468.052 232.246 474.264 225.841 474.264 217.94C474.264 210.039 468.052 203.634 460.39 203.634C452.727 203.634 446.516 210.039 446.516 217.94C446.516 225.841 452.727 232.246 460.39 232.246Z" fill="#FBBEBE"/>
<path id="cou-tree" d="M472.886 217.339C474.168 219.447 475.849 221.268 477.828 222.691C479.807 224.115 482.044 225.114 484.405 225.627L483.359 229.547C481.553 236.278 479.523 243.399 474.481 248.067C475.053 245.786 474.321 243.352 473.075 241.371C471.829 239.39 470.08 237.834 468.365 236.296L460.378 229.163C460.148 228.97 459.954 228.734 459.807 228.468C459.61 227.965 459.61 227.403 459.807 226.9C460.824 223.634 463.728 221.595 466.095 219.39C467.283 218.25 468.343 216.977 469.256 215.594C470.851 213.248 471.84 215.606 472.886 217.339Z" fill="#FBBEBE"/>
<path id="cheveu-tree" d="M442.114 203.557L441.8 200.869C443.989 201.459 446.07 199.537 447.47 197.551C448.871 195.564 450.169 193.224 452.301 192.393C454.891 191.391 457.634 192.982 460.11 194.326C462.881 195.912 465.922 196.933 469.068 197.333C469.569 197.35 470.067 197.433 470.548 197.58C472.16 198.17 472.926 200.256 473.161 202.149C473.395 204.041 473.332 206.051 474.127 207.737C474.698 209.016 475.762 209.965 476.413 211.226C478.128 214.61 476.471 219.237 478.26 222.556L473.812 218.353C473.407 217.97 472.835 217.569 472.383 217.893C472.029 218.152 472 218.712 471.857 219.16C471.429 220.469 469.839 220.858 468.69 220.339C467.541 219.82 466.701 218.695 465.832 217.669C463.866 215.276 461.522 213.171 458.778 212.152C457.575 211.688 456.29 211.493 455.009 211.581C453.728 211.668 452.479 212.036 451.346 212.659C449.271 213.867 447.751 216.685 445.207 216.785C441.72 216.92 440.268 210.224 438.655 207.577C439.245 207.12 439.66 206.463 439.828 205.721C439.995 204.98 439.904 204.201 439.57 203.522C439.805 203.422 442.063 203.145 442.114 203.557Z" fill="#464353"/>
<path id="main-g" d="M270.508 119.919C269.393 120.942 268.363 122.058 267.427 123.256C266.485 124.47 265.984 125.986 266.009 127.541C266.014 127.992 266.154 128.43 266.409 128.796C266.54 128.972 266.72 129.101 266.925 129.165C267.13 129.229 267.35 129.226 267.553 129.156C267.782 129.035 267.979 128.857 268.124 128.637C268.729 127.889 269.37 127.173 270.045 126.492C270.291 126.238 270.617 125.973 270.948 126.067C271.097 126.122 271.23 126.213 271.337 126.333C271.722 126.675 272.002 127.126 272.143 127.629C272.343 128.531 271.834 129.433 271.257 130.14C270.68 130.848 269.999 131.526 269.765 132.416C269.676 132.651 269.676 132.912 269.765 133.147C269.876 133.317 270.03 133.451 270.211 133.536C271.03 134 271.937 134.274 272.87 134.337C273.802 134.4 274.737 134.252 275.607 133.901C276.751 133.424 277.768 132.604 278.946 132.18C279.456 132.036 279.95 131.839 280.421 131.591C280.758 131.359 281.047 131.062 281.271 130.715C281.496 130.368 281.652 129.978 281.73 129.569C281.878 128.751 281.907 127.914 281.816 127.087C281.673 123.885 281.008 120.73 279.849 117.756C279.782 117.564 279.668 117.393 279.518 117.261C279.346 117.153 279.147 117.097 278.946 117.102C277.482 116.943 275.081 116.17 273.669 116.73C273.176 117.009 272.75 117.4 272.423 117.874C272.16 118.174 270.508 119.524 270.508 119.919Z" fill="#5B484B"/>
<path id="bras-g" d="M270.045 118.587C270.045 117.149 268.33 113.677 271.057 113.447C271.057 111.909 268.948 110.954 269.342 109.321C269.468 108.778 269.914 108.336 269.965 107.782C270.137 106.208 267.381 105.354 267.839 103.845C268.01 103.255 268.616 102.913 268.748 102.33C269.056 100.968 266.695 100.361 266.65 98.964C266.65 98.4925 266.907 98.0504 266.884 97.5788C266.884 96.9893 266.387 96.5414 266.112 96.0285C265.398 94.714 265.746 92.6804 264.443 92.0025C265.306 92.0792 265.586 90.7588 265.232 89.9512C264.877 89.1436 264.151 88.4422 264.146 87.5462C264.189 87.2216 264.189 86.8924 264.146 86.5677C263.906 85.7071 262.539 85.6364 262.311 84.7994C262.281 84.4781 262.272 84.1552 262.282 83.8327C262.191 83.1666 261.527 82.7421 260.904 82.5535C260.257 82.4402 259.634 82.2108 259.064 81.8756C258.664 81.5632 258.2 81.0445 257.772 81.2862C257.612 81.3864 257.532 81.575 257.412 81.7165C256.897 82.3354 255.914 82.0643 255.268 81.6104C253.359 80.2723 252.41 77.8732 252.004 75.5331C251.598 73.1929 251.609 70.7762 251.1 68.4596C250.945 67.7376 250.739 67.0284 250.483 66.3375C250.266 65.7481 249.568 64.8226 249.523 64.2273C249.42 62.8715 252.141 63.797 253.176 63.9326C254.18 64.0337 255.173 64.2311 256.143 64.522C257.177 64.925 258.19 65.3834 259.178 65.8955C263.305 67.7758 268.29 68.0057 271.606 71.1652C272.698 72.2027 273.618 73.5643 275.036 74.0359C275.686 74.1644 276.328 74.3357 276.957 74.5487C278.529 75.3091 278.774 77.4606 279.632 79.0168C279.901 79.4277 280.137 79.8616 280.335 80.3136C280.5 80.8467 280.578 81.4046 280.564 81.9641L280.684 86.049C280.878 92.8926 281.072 99.7539 280.364 106.556C280.135 108.802 279.792 111.113 280.438 113.27C280.609 113.86 280.85 114.414 281.01 115.009C281.151 115.707 281.224 116.418 281.227 117.131L281.318 119.778C281.35 119.984 281.305 120.194 281.192 120.367C281.097 120.447 280.985 120.504 280.865 120.534C280.746 120.563 280.621 120.565 280.501 120.538C276.928 120.208 273.315 118.133 269.942 119.389" fill="#464353"/>
<path id="plateau" d="M433.093 321.95C456.444 321.95 475.373 319.129 475.373 315.649C475.373 312.169 456.444 309.347 433.093 309.347C409.743 309.347 390.813 312.169 390.813 315.649C390.813 319.129 409.743 321.95 433.093 321.95Z" fill="#604F4F"/>
<path id="Vector_6" d="M469.468 315.955C468.725 312.672 468.262 309.789 468.262 309.789C468.262 309.789 468.433 306.217 466.878 303.535V302.639V296.037C467.321 294.839 467.862 293.681 468.496 292.577C469.639 290.502 468.496 282.898 468.496 282.898C468.496 282.898 464.226 272.176 465.26 265.374C466.295 258.571 456.491 235.17 456.491 235.17C456.552 232.913 456.86 230.671 457.412 228.486C457.516 228.026 457.559 227.554 457.537 227.083C457.537 227.024 457.537 226.971 457.537 226.912C457.537 226.853 457.537 226.947 457.537 226.965C457.389 222.479 453.947 214.073 453.947 214.073L454.41 198.052C454.41 198.052 456.605 188.621 453.027 175.918C451.775 171.491 450.975 167.948 450.466 165.213C450.409 164.907 450.352 164.624 450.306 164.323C457.674 163.144 463.305 162.201 463.305 162.201C463.305 162.201 459.029 143.757 456.142 140.527C453.256 137.296 450.946 127.152 450.946 127.152C450.946 127.152 449.443 114.131 451.872 110.323C454.302 106.515 454.645 99.9484 454.645 99.9484C454.645 99.9484 460.184 95.8222 460.881 93.9536C461.579 92.085 462.728 87.9588 462.728 85.772C462.728 83.5851 462.036 81.6458 462.265 80.4668C462.494 79.2879 460.647 74.9318 461.573 72.8569C461.813 72.2196 461.937 71.5423 461.939 70.8587C461.941 70.8391 461.941 70.8193 461.939 70.7997C461.939 70.7997 461.939 70.7997 461.939 70.7997C461.948 68.984 461.785 67.1718 461.453 65.3885C459.851 63.9933 457.981 62.9629 455.965 62.3646L455.845 61.8695L455.531 60.5727C455.355 60.453 455.174 60.3429 454.988 60.2426V59.771L454.936 57.8965L455.805 53.6878C457.52 46.3667 448.036 45.2762 448.036 45.2762C447.461 44.1532 446.505 43.2885 445.35 42.8477C443.446 42.158 445.035 53.8587 445.921 54.6368C446.59 55.2263 448.659 58.8691 449.66 60.6729L449.82 60.9676C449.663 61.1127 449.518 61.2704 449.385 61.4392L449.746 63.9797L449.803 64.3688C449.174 65.1736 448.664 66.0693 448.288 67.0272C448.288 67.0272 450.003 68.9842 449.677 71.1534C449.351 73.3226 450.209 76.0754 450.249 76.2227C450.146 76.099 448.928 74.7432 447.711 75.0733C446.493 75.4034 443.092 76.4585 443.092 76.4585C443.092 76.4585 440.553 76.9183 440.805 77.496C441.056 78.0736 439.09 80.6083 439.09 80.6083L432.264 73.9357C432.196 73.7352 432.121 73.5348 432.064 73.3462C431.786 72.3841 431.594 71.3975 431.493 70.3989C432.236 70.2166 432.966 69.9782 433.676 69.6857C434.394 69.4318 435.041 69.0031 435.563 68.436C436.255 67.5931 436.386 66.4495 436.666 65.4003C437.203 63.349 438.381 61.5276 439.199 59.5765C440.583 56.2795 441.029 52.6445 440.485 49.0959C440.38 48.0024 440.021 46.9509 439.439 46.0307C438.324 44.451 436.3 43.8085 434.831 42.547C433.362 41.2856 432.413 39.3581 430.698 38.4208C429.149 37.5661 427.268 37.6663 425.519 37.9611C422.102 38.542 418.82 39.7733 415.841 41.5921C414.846 42.1816 413.748 42.9066 412.605 42.6885C411.622 42.5058 410.89 41.6982 410.273 40.9201C410.28 40.8879 410.289 40.8564 410.301 40.8258C410.273 40.7971 410.249 40.7655 410.227 40.7315C409.504 42.387 409.141 44.1857 409.164 46.0013C409.164 46.2842 409.164 46.5907 409.198 46.8442V47.1389C409.198 47.2214 409.198 47.304 409.198 47.3806C409.198 47.5063 409.18 47.6313 409.147 47.752C409.003 48.1125 408.784 48.4364 408.506 48.701C408.296 48.9467 408.105 49.2088 407.935 49.485C407.935 49.3906 407.992 49.2963 408.026 49.1961C407.59 49.8525 407.344 50.6233 407.317 51.4184C407.285 51.9972 407.469 52.5666 407.832 53.0099C408.174 53.3526 408.547 53.6605 408.946 53.9295C408.811 54.7076 408.742 55.4966 408.741 56.2873C408.753 58.6313 409.353 60.9322 410.48 62.9675C411.608 65.0028 413.226 66.7036 415.177 67.9055C415.258 68.1 415.332 68.3004 415.406 68.495C416.281 70.8528 416.938 73.6232 416.647 76.1579C416.647 76.3406 416.595 76.5293 416.567 76.712C416.538 76.8947 416.395 76.9065 416.321 77.0067C416.321 77.0067 405.042 77.1246 402.39 74.6489C399.737 72.1732 395.69 80.7026 395.69 80.7026C395.69 80.7026 391.648 81.5102 390.836 80.7026C390.025 79.8951 385.297 80.5906 385.297 80.5906C383.36 78.8144 380.84 77.8659 378.248 77.9381C376.678 76.7078 374.946 75.7154 373.104 74.9908V74.9908L372.978 74.9436C372.165 74.638 371.295 74.5252 370.434 74.6135C370.434 74.6135 364.889 69.8979 363.271 67.3514C361.653 64.805 353.953 55.4031 353.919 55.3618V54.908L353.833 53.5404C353.604 53.5774 353.373 53.5971 353.141 53.5994C353.101 53.4638 353.044 53.3046 352.987 53.1219C352.543 51.788 351.997 50.4929 351.352 49.2492C351.352 49.2492 351.352 47.5221 351.838 47.0859C352.324 46.6497 351.638 40.313 351.638 40.313C351.638 40.313 346.642 28.2704 342.165 37.2596C342.165 37.2596 333.705 43.0776 340.805 49.8563C340.805 49.8563 343.663 51.271 344.04 52.391C344.303 53.116 345.264 55.1496 345.91 56.5172L346.201 57.1066L346.121 57.1774L346.224 58.3091L346.27 58.7453C344.932 59.5293 344.023 60.3074 344.246 60.891C344.64 61.8896 344.911 62.9352 345.052 64.0033C345.052 64.0033 354.873 76.6884 356.142 82.1055C356.142 82.1055 382.479 98.2449 391.139 99.3943L389.607 107.44C389.384 109.624 389.27 111.817 389.264 114.013C389.379 115.74 388.224 123.58 388.224 123.58C388.224 123.58 386.72 135.11 385.451 136.725C384.182 138.34 384.411 145.254 384.411 145.254C384.111 148.564 383.538 151.842 382.696 155.051C381.427 159.431 382.347 164.854 382.347 164.854C382.347 164.854 377.963 175.228 388.47 168.196C388.47 168.196 393.615 167.866 399.571 167.654C399.571 167.854 399.571 168.06 399.571 168.243C399.571 169.033 399.571 169.888 399.531 170.784C399.451 176.725 399.417 184.931 399.68 191.108C400.143 202.06 403.379 223.735 403.379 223.735V234.645C403.17 235.669 403.066 236.712 403.07 237.758C403.001 241.597 403.993 245.377 405.928 248.657L406.74 255.919C406.74 255.919 408.638 260.705 408.672 263.582C408.665 263.814 408.638 264.044 408.592 264.271C408.518 264.638 408.487 265.012 408.501 265.386C408.392 268.687 410.318 276.585 410.318 276.585C410.318 276.585 410.433 284.537 411.587 285.003C412.576 285.398 410.267 289.583 409.581 290.785C409.563 290.712 409.549 290.637 409.541 290.561L409.398 290.797C409.16 291.441 409.038 292.124 409.038 292.813C408.973 293.356 409.059 293.907 409.285 294.401C409.512 294.896 409.87 295.314 410.318 295.607C412.514 296.992 413.691 298.142 411.828 298.601C411.142 298.711 410.463 298.859 409.792 299.044C409.792 298.955 409.724 298.861 409.695 298.778C409.432 298.884 409.213 299.081 409.074 299.334C408.936 299.588 408.887 299.883 408.935 300.169C408.953 301.105 409.186 302.022 409.615 302.846C411.462 307.113 412.742 308.74 412.742 308.74L413.628 308.64C413.498 308.989 413.325 309.32 413.114 309.624C412.777 310.119 412.33 310.523 411.81 310.803C411.326 311.102 410.787 311.293 410.227 311.363C409.601 311.384 408.986 311.541 408.423 311.823C407.859 312.106 407.36 312.507 406.957 313.002C405.814 314.54 405.082 316.633 407.357 318.472L415.618 321.419C415.618 321.419 429.829 323.323 429.074 320.034C428.32 316.745 427.863 313.868 427.863 313.868C427.924 311.86 427.532 309.865 426.719 308.039C426.57 307.741 426.402 307.453 426.216 307.178L426.719 307.125C426.719 307.125 427.76 299.857 429.143 298.478C429.463 298.159 429.538 297.888 429.463 297.723C429.606 297.328 429.24 297.098 428.777 296.963L428.674 297.252C428.222 297.15 427.76 297.097 427.297 297.092C427.297 297.092 426.834 293.29 428.337 291.905C428.458 291.747 428.547 291.565 428.597 291.371C428.647 291.176 428.658 290.973 428.629 290.774C428.64 290.252 428.586 289.731 428.469 289.223C428.454 289.256 428.436 289.287 428.417 289.318C427.663 285.863 425.101 280.375 425.101 280.375C425.101 280.375 424.987 276.921 425.913 275.536C426.839 274.151 425.793 256.744 425.793 256.744C425.793 256.744 426.142 248.333 425.101 244.413C424.061 240.493 426.371 235.877 426.371 235.877C426.371 235.877 426.371 235.789 426.371 235.63V235.571L426.239 234.245C426.236 234.272 426.236 234.3 426.239 234.327C426.005 232.099 425.565 228.061 425.239 226.198C424.776 223.546 425.359 210.873 425.359 210.873L427.434 205.45L431.132 214.792L435.06 227.242C435.06 227.242 437.003 229.871 437.049 232.547C437.049 232.677 437.049 232.806 437.049 232.936C437.017 233.212 437.002 233.489 437.003 233.767C436.934 235.34 437.352 236.895 438.198 238.206C438.198 238.206 439.239 244.1 440.856 245.58C442.474 247.059 442.474 249.959 442.474 249.959C442.474 249.959 444.435 258.495 445.332 259.98C446.11 261.242 446.15 264.696 446.144 265.775C446.144 265.969 446.144 266.081 446.144 266.081C446.144 266.081 446.419 269.135 446.407 271.693C446.407 272.011 446.407 272.318 446.407 272.606C446.41 272.585 446.41 272.563 446.407 272.542C446.407 273.241 446.326 273.937 446.167 274.616L446.133 274.734C446.133 274.587 446.133 274.446 446.173 274.304C445.771 276.041 445.579 277.823 445.601 279.609C445.55 282.674 446.001 286.305 447.802 288.451C450.923 292.141 452.884 291.681 452.884 291.681C452.884 291.681 451.386 296.291 449.534 297.216C449.464 297.25 449.399 297.294 449.34 297.346C449.34 297.252 449.305 297.163 449.294 297.075C449.088 297.305 448.93 297.577 448.832 297.873C448.733 298.169 448.696 298.484 448.722 298.796C448.591 300.824 449.831 304.101 451.009 305.628C451.446 306.069 451.982 306.393 452.57 306.571C452.477 306.639 452.379 306.7 452.278 306.754C452.072 306.87 451.861 306.974 451.644 307.066C451.343 307.198 451.025 307.283 450.7 307.32C450.073 307.337 449.458 307.492 448.894 307.775C448.33 308.057 447.831 308.461 447.43 308.958C446.287 310.491 445.555 312.583 447.831 314.423L456.091 317.37C456.091 317.37 470.211 319.238 469.468 315.955Z" fill="url(#paint0_linear_0:1)"/>
<path id="chaussure-g-two" d="M415.212 321.402L407.209 318.454C405.002 316.615 405.705 314.523 406.82 312.984C407.203 312.494 407.685 312.093 408.231 311.811C408.777 311.528 409.376 311.369 409.987 311.346C410.529 311.274 411.049 311.083 411.513 310.786C412.021 310.501 412.455 310.097 412.782 309.607C413.366 308.651 413.681 307.547 413.691 306.418C413.691 306.418 422.472 303.765 424.873 306.418C425.301 306.898 425.66 307.44 425.936 308.027C426.734 309.858 427.124 311.85 427.079 313.857C427.079 313.857 427.525 316.733 428.251 320.022C428.977 323.312 415.212 321.402 415.212 321.402Z" fill="#F71515"/>
<path id="chaussure-d-tree" d="M454.336 317.334L446.333 314.387C444.126 312.548 444.829 310.455 445.944 308.923C446.325 308.43 446.805 308.029 447.35 307.746C447.896 307.463 448.495 307.305 449.105 307.284C449.421 307.251 449.73 307.165 450.02 307.031C450.231 306.939 450.438 306.834 450.637 306.718C452.873 305.451 452.815 302.339 452.815 302.339C452.815 302.339 461.59 299.686 463.997 302.339C464.319 302.698 464.601 303.093 464.837 303.518C466.341 306.2 466.175 309.778 466.175 309.778C466.175 309.778 466.621 312.66 467.318 315.943C468.016 319.227 454.336 317.334 454.336 317.334Z" fill="#F71515"/>
<path id="Vector_7" opacity="0.1" d="M424.879 306.412C425.307 306.892 425.665 307.434 425.942 308.021L412.794 309.595C413.378 308.639 413.692 307.535 413.703 306.406C413.703 306.406 422.478 303.759 424.879 306.412Z" fill="black"/>
<path id="Vector_8" opacity="0.1" d="M464.849 303.529V306.07C462.802 309.542 452.907 308.781 450.031 307.043C450.243 306.951 450.449 306.846 450.649 306.73C452.884 305.463 452.827 302.35 452.827 302.35C452.827 302.35 461.602 299.698 464.008 302.35C464.331 302.71 464.612 303.105 464.849 303.529V303.529Z" fill="black"/>
<path id="pantalon-two" d="M466.409 292.577C465.798 293.684 465.276 294.842 464.849 296.037V305.144C462.608 308.946 450.986 307.679 449.414 305.604C447.842 303.529 446.201 298.13 447.968 297.193C449.734 296.255 451.209 291.658 451.209 291.658C451.209 291.658 449.305 292.117 446.287 288.427C443.269 284.737 444.166 276.556 444.726 274.599C445.287 272.642 444.726 266.069 444.726 266.069C444.726 266.069 444.841 261.454 443.949 259.957C443.057 258.459 441.154 249.936 441.154 249.936C441.154 249.936 441.154 247.053 439.587 245.556C438.021 244.059 437.015 238.176 437.015 238.176C436.099 236.706 435.705 234.954 435.9 233.219C436.232 230.336 433.996 227.224 433.996 227.224L430.195 214.769L426.616 205.432L424.604 210.849C424.604 210.849 424.032 223.528 424.496 226.175C424.959 228.822 425.639 235.86 425.639 235.86C425.639 235.86 423.404 240.469 424.41 244.389C425.416 248.309 425.05 256.732 425.05 256.732C425.05 256.732 426.056 274.133 425.159 275.518C424.261 276.904 424.375 280.364 424.375 280.364C424.375 280.364 428.949 290.502 427.508 291.888C426.068 293.273 426.502 297.075 426.502 297.075C426.502 297.075 429.629 297.075 428.291 298.46C426.954 299.845 425.942 307.107 425.942 307.107L412.422 308.74C412.422 308.74 411.187 307.131 409.398 302.846C407.609 298.56 409.73 299.044 411.53 298.578C413.331 298.112 412.193 296.969 410.067 295.583C407.94 294.198 409.175 291.086 409.175 291.086C409.175 291.086 412.416 285.439 411.296 284.979C410.175 284.519 410.067 276.562 410.067 276.562C410.067 276.562 407.832 267.13 408.392 264.572C408.952 262.014 406.603 255.931 406.603 255.931L405.819 248.669C403.427 244.548 402.555 239.676 403.361 234.946V223.746C403.361 223.746 400.229 202.078 399.783 191.126C399.497 184.111 399.577 174.538 399.668 168.567C399.726 165.219 399.783 162.997 399.783 162.997L448.076 157.81C448.076 157.81 448.031 160.108 448.951 165.207C449.448 167.942 450.22 171.485 451.432 175.912C454.896 188.591 452.775 198.04 452.775 198.04L452.324 214.067C452.324 214.067 456.571 224.784 455.679 228.474C455.14 230.665 454.838 232.91 454.776 235.17C454.776 235.17 464.277 258.571 463.271 265.374C462.265 272.176 466.398 282.898 466.398 282.898C466.398 282.898 467.53 290.502 466.409 292.577Z" fill="#464353"/>
<path id="Vector_9" opacity="0.05" d="M438.798 232.523L453.501 230.501C453.501 230.501 445.172 239.267 438.798 232.523Z" fill="black"/>
<path id="Vector_10" opacity="0.1" d="M451.375 215.688C451.375 215.688 451.878 221.052 448.694 223.068C448.694 223.068 454.393 222.149 451.375 215.688Z" fill="black"/>
<path id="Vector_11" opacity="0.1" d="M450.472 198.63C450.472 198.63 438.181 209.063 433.711 208.196C429.24 207.33 450.472 198.63 450.472 198.63Z" fill="black"/>
<path id="Vector_12" opacity="0.1" d="M420.574 237.416C420.574 237.416 411.239 239.603 410.959 243.47C410.679 247.336 420.574 237.416 420.574 237.416Z" fill="black"/>
<path id="Vector_13" opacity="0.05" d="M422.626 285.492C422.626 285.492 409.438 288.027 413.182 289.754C416.927 291.481 423.078 292.866 423.078 292.866C423.078 292.866 427.337 293.096 422.626 285.492Z" fill="black"/>
<g id="Group" opacity="0.05">
<path id="Vector_14" opacity="0.05" d="M410.519 292.501C410.187 292.287 409.906 291.999 409.697 291.658C409.489 291.317 409.357 290.932 409.312 290.532L409.175 290.774C409.175 290.774 407.946 293.886 410.073 295.265C410.313 295.424 410.547 295.583 410.759 295.737C411.153 295.66 411.576 295.601 411.982 295.495C413.783 295.035 412.645 293.886 410.519 292.501Z" fill="black"/>
<path id="Vector_15" opacity="0.05" d="M427.508 291.575C427.874 291.233 427.863 290.349 427.64 289.217C427.068 290.107 426.902 291.499 426.891 292.554C427.029 292.187 427.24 291.854 427.508 291.575V291.575Z" fill="black"/>
<path id="Vector_16" opacity="0.05" d="M425.479 234.227C424.993 235.59 424.693 237.017 424.587 238.465C424.842 237.464 425.184 236.49 425.61 235.553L425.479 234.227Z" fill="black"/>
<path id="Vector_17" opacity="0.05" d="M455.685 228.179C455.772 227.765 455.813 227.341 455.805 226.918C455.639 227.778 455.525 228.574 455.439 229.275C455.513 228.916 455.593 228.574 455.685 228.179Z" fill="black"/>
<path id="Vector_18" opacity="0.05" d="M425.164 275.212C425.347 274.929 425.45 273.974 425.496 272.648C425.082 273.674 424.863 274.772 424.85 275.884C424.928 275.648 425.034 275.422 425.164 275.212V275.212Z" fill="black"/>
<path id="Vector_19" opacity="0.05" d="M427.908 296.951C427.215 299.263 426.701 301.628 426.371 304.024L412.851 305.634C412.851 305.634 411.616 304.024 409.827 299.739C409.683 299.408 409.555 299.07 409.444 298.725C408.632 299.108 408.301 299.975 409.375 302.504C411.165 306.771 412.405 308.398 412.405 308.398L425.925 306.783C425.925 306.783 426.931 299.521 428.268 298.136C428.954 297.47 428.531 297.122 427.908 296.951Z" fill="black"/>
<path id="Vector_20" opacity="0.05" d="M410.073 276.249C410.073 276.249 410.181 284.201 411.302 284.661C411.873 283.346 412.245 282.097 411.742 281.89C410.599 281.431 410.513 273.473 410.513 273.473C410.513 273.473 408.278 264.042 408.838 261.483C409.398 258.925 407.049 252.842 407.049 252.842L406.265 245.58C403.873 241.459 403.001 236.587 403.807 231.857V220.658C403.807 220.658 400.675 198.989 400.229 188.037C399.943 181.022 400.023 171.45 400.114 165.478C400.114 164.4 400.149 163.445 400.166 162.637L399.783 162.678C399.783 162.678 399.72 164.895 399.668 168.249C399.577 174.22 399.491 183.793 399.783 190.802C400.229 201.754 403.356 223.428 403.356 223.428V234.628C402.553 239.357 403.428 244.225 405.819 248.344L406.597 255.606C406.597 255.606 408.946 261.713 408.386 264.254C407.826 266.794 410.073 276.249 410.073 276.249Z" fill="black"/>
<path id="Vector_21" opacity="0.05" d="M449.871 302.527C448.773 300.888 448.041 299.017 447.728 297.051C446.35 298.336 447.933 303.323 449.443 305.304C451.003 307.378 462.631 308.646 464.877 304.838V302.645C461.83 305.728 451.346 304.49 449.871 302.527Z" fill="black"/>
<path id="Vector_22" opacity="0.05" d="M466.861 289.5C466.248 290.607 465.724 291.765 465.295 292.96V294.593C465.552 294.004 465.912 293.214 466.438 292.283C466.792 291.375 466.959 290.401 466.93 289.424C466.93 289.424 466.878 289.477 466.861 289.5Z" fill="black"/>
<path id="Vector_23" opacity="0.05" d="M450.557 291.322C450.983 290.434 451.351 289.518 451.661 288.581C451.661 288.581 449.757 289.041 446.739 285.351C444.544 282.668 444.418 277.599 444.732 274.286C444.161 276.249 443.274 284.431 446.293 288.121C448.265 290.532 449.757 291.168 450.557 291.322Z" fill="black"/>
<path id="Vector_24" opacity="0.05" d="M444.726 265.757C444.924 268.028 444.998 270.309 444.949 272.589C445.005 272.229 445.082 271.873 445.178 271.522C445.75 269.559 445.178 262.992 445.178 262.992C445.178 262.992 445.292 258.377 444.395 256.88C443.497 255.382 441.628 246.847 441.628 246.847C441.628 246.847 441.628 243.965 440.062 242.467C438.495 240.97 437.489 235.087 437.489 235.087C436.565 233.62 436.161 231.869 436.346 230.13C436.683 227.248 434.448 224.135 434.448 224.135L430.647 211.686L427.068 202.349L425.05 207.772C425.05 207.772 425.05 208.456 424.981 209.54L426.616 205.137L430.195 214.456L433.996 226.906C433.996 226.906 436.232 230.018 435.894 232.901C435.71 234.64 436.114 236.391 437.038 237.858C437.038 237.858 438.044 243.752 439.61 245.238C441.176 246.723 441.171 249.618 441.171 249.618C441.171 249.618 443.074 258.147 443.966 259.638C444.858 261.13 444.726 265.757 444.726 265.757Z" fill="black"/>
</g>
<path id="main-d-two" d="M454.113 53.6701L453.273 57.8788L453.324 59.7533L453.359 61.1326L448.694 61.6278L448.174 60.6316C447.207 58.8279 445.201 55.1614 444.555 54.5956C443.692 53.8528 442.154 42.1462 443.983 42.8418C445.109 43.2902 446.034 44.1535 446.579 45.2644C446.579 45.2644 455.765 46.349 454.113 53.6701Z" fill="#FFCDD3"/>
<path id="Vector_25" opacity="0.1" d="M453.359 61.1326L448.694 61.6278L448.174 60.6316C448.801 59.8951 449.657 59.4056 450.595 59.2465C451.533 59.0875 452.495 59.2686 453.319 59.7592L453.359 61.1326Z" fill="black"/>
<path id="poignet2" d="M454.536 63.4138L448.385 64.8816L448.254 63.9385L447.905 61.3979C447.905 61.3979 450.34 58.0498 453.862 60.5609L454.17 61.8518L454.536 63.4138Z" fill="#6C63FF"/>
<path id="main-g-two" d="M354.896 54.1299L348.328 57.761L347.756 56.4877C347.133 55.1379 346.201 53.1042 345.944 52.3615C345.555 51.2416 342.817 49.8269 342.817 49.8269C335.957 43.054 344.132 37.2301 344.132 37.2301C348.465 28.2409 353.278 40.2835 353.278 40.2835C353.278 40.2835 353.953 46.632 353.479 47.0564C353.004 47.4808 353.004 49.2197 353.004 49.2197C353.63 50.4656 354.16 51.7605 354.588 53.0925C354.788 53.735 354.896 54.1299 354.896 54.1299Z" fill="#FFCDD3"/>
<path id="Vector_26" opacity="0.1" d="M354.896 54.1299L348.328 57.7609L347.756 56.4877C348.682 55.686 351.969 52.951 353.05 53.063C353.566 53.1293 354.086 53.1432 354.605 53.1042C354.788 53.7349 354.896 54.1299 354.896 54.1299Z" fill="black"/>
<path id="poignet" d="M355.565 56.1753L348.185 59.9242L348.036 58.2914L347.933 57.1597C347.933 57.1597 352.209 53.3813 353.473 53.5286C354.112 53.6241 354.761 53.6241 355.399 53.5286L355.485 54.8962L355.565 56.1753Z" fill="#6C63FF"/>
<path id="Vector_27" d="M436.226 81.6281C436.226 81.6281 404.053 85.3712 410.067 83.3552C414.251 81.9464 415.915 79.229 416.264 76.1638C416.549 73.6115 415.909 70.8587 415.069 68.5009C414.313 66.4092 413.355 64.4009 412.211 62.5061C412.211 62.5061 436.792 48.5595 431.881 61.2387C431.124 63.1565 430.654 65.1818 430.486 67.2453C430.339 69.2959 430.554 71.3572 431.121 73.3285C432.048 76.5273 433.815 79.3995 436.226 81.6281V81.6281Z" fill="#FFCDD3"/>
<path id="Vector_28" opacity="0.1" d="M431.864 61.2211C431.107 63.1389 430.637 65.1642 430.469 67.2276C428.154 69.2377 425.616 69.1021 422.352 69.1021C419.848 69.1021 417.07 69.7269 415.069 68.4832C414.313 66.3915 413.355 64.3832 412.211 62.4884C412.211 62.4884 436.786 48.5418 431.864 61.2211Z" fill="black"/>
<path id="tete-two" d="M421.917 69.9863C429.264 69.9863 435.22 63.8451 435.22 56.2696C435.22 48.6941 429.264 42.5529 421.917 42.5529C414.571 42.5529 408.615 48.6941 408.615 56.2696C408.615 63.8451 414.571 69.9863 421.917 69.9863Z" fill="#FFCDD3"/>
<path id="Vector_29" opacity="0.1" d="M436.226 81.6281C436.226 81.6281 404.053 85.3711 410.067 83.3552C414.251 81.9464 415.915 79.229 416.264 76.1638C417.864 74.3954 421.083 73.0809 423.124 72.3972C425.01 71.7429 427.047 71.7079 428.954 72.297C429.704 72.5299 430.418 72.8713 431.075 73.3108C432.013 76.5213 433.796 79.4006 436.226 81.6281V81.6281Z" fill="black"/>
<path id="poignet-chemise-d" opacity="0.1" d="M454.536 63.4138L448.385 64.8816L448.254 63.9384C448.912 63.0056 449.834 62.3048 450.892 61.9314C451.951 61.558 453.096 61.5302 454.17 61.8518L454.536 63.4138Z" fill="black"/>
<path id="poignet-chemise-g" opacity="0.1" d="M355.565 56.1753L348.185 59.9243L348.036 58.2915C350.427 56.9662 352.911 55.8292 355.468 54.8903L355.565 56.1753Z" fill="black"/>
<path id="Vector_30" opacity="0.1" d="M448.951 165.219C436.483 167.27 418.762 169.888 415.949 169.003C413.611 168.272 406.157 168.349 399.668 168.579C399.726 165.231 399.783 163.009 399.783 163.009L448.076 157.821C448.076 157.821 448.031 160.12 448.951 165.219Z" fill="black"/>
<path id="costume-two" d="M461.379 162.201C461.379 162.201 420.351 169.463 415.949 168.096C411.547 166.728 388.938 168.208 388.938 168.208C378.763 175.24 383.01 164.865 383.01 164.865C383.01 164.865 382.119 159.448 383.348 155.069C384.173 151.853 384.737 148.572 385.034 145.26C385.034 145.26 384.811 138.34 386.04 136.725C387.269 135.11 388.727 123.586 388.727 123.586C388.727 123.586 389.842 115.746 389.733 114.019C389.624 112.292 390.065 107.446 390.065 107.446L391.522 99.3766C383.136 98.2272 357.646 82.0878 357.646 82.0878C356.417 76.6707 346.916 63.9915 346.916 63.9915C346.777 62.9253 346.515 61.8803 346.133 60.8792C345.464 59.0342 355.525 55.3442 355.525 55.3442C355.525 55.3442 363.014 64.7755 364.58 67.3337C366.146 69.892 371.509 74.5958 371.509 74.5958C372.342 74.5075 373.183 74.6205 373.967 74.9259L374.098 74.9672C375.895 75.6946 377.58 76.6874 379.1 77.9145C381.621 77.8528 384.067 78.804 385.92 80.567C385.92 80.567 390.493 79.8715 391.288 80.679C392.083 81.4866 395.981 80.679 395.981 80.679C395.981 80.679 399.891 72.1496 402.464 74.6253C405.036 77.101 415.949 76.9831 415.949 76.9831C417.401 74.9908 420.94 73.5643 423.152 72.8569C425.039 72.2054 427.076 72.1704 428.983 72.7567C429.806 73.0099 430.58 73.4088 431.27 73.9357L437.907 80.6201C437.907 80.6201 439.804 78.0795 439.582 77.5078C439.359 76.936 441.817 76.4703 441.817 76.4703C441.817 76.4703 445.058 75.4329 446.287 75.0851C447.516 74.7373 448.642 76.1107 448.745 76.2345C448.705 76.0872 447.865 73.2873 448.174 71.1652C448.482 69.0432 446.83 67.039 446.83 67.039C450.74 57.1243 459.572 65.4239 459.572 65.4239C459.572 65.4239 460.579 70.841 459.687 72.9159C458.795 74.9908 460.579 79.3704 460.356 80.5258C460.133 81.6811 460.807 83.6381 460.807 85.8309C460.807 88.0237 459.664 92.1676 459.018 94.0126C458.372 95.8576 452.981 100.007 452.981 100.007C452.981 100.007 452.644 106.58 450.294 110.382C447.945 114.184 449.42 127.187 449.42 127.187C449.42 127.187 451.655 137.332 454.45 140.562C457.246 143.792 461.379 162.201 461.379 162.201Z" fill="#F71515"/>
<path id="ombre2-veste-tree" opacity="0.1" d="M401.572 86.3496C401.572 86.3496 400.343 82.5476 399.223 82.2234C398.11 81.8015 397.027 81.3013 395.981 80.7262L396.702 79.3056C396.702 79.3056 400.898 80.4845 401.572 81.7637C402.247 83.0428 401.572 86.3496 401.572 86.3496Z" fill="black"/>
<path id="ombre5-veste-tree" opacity="0.1" d="M379.1 77.9381C378.877 79.117 368.925 80.125 368.925 80.125L373.955 74.9259L374.081 74.9731C375.885 75.7044 377.576 76.7033 379.1 77.9381V77.9381Z" fill="black"/>
<path id="bouton4-two" d="M350.312 63.0366C350.804 63.0366 351.203 62.6249 351.203 62.117C351.203 61.6092 350.804 61.1975 350.312 61.1975C349.819 61.1975 349.42 61.6092 349.42 62.117C349.42 62.6249 349.819 63.0366 350.312 63.0366Z" fill="#575988"/>
<path id="bouton3-two" d="M351.455 64.8816C351.947 64.8816 352.347 64.4699 352.347 63.962C352.347 63.4542 351.947 63.0425 351.455 63.0425C350.962 63.0425 350.563 63.4542 350.563 63.962C350.563 64.4699 350.962 64.8816 351.455 64.8816Z" fill="#575988"/>
<path id="bouton2-two" d="M352.575 66.5851C353.068 66.5851 353.467 66.1734 353.467 65.6656C353.467 65.1577 353.068 64.746 352.575 64.746C352.083 64.746 351.684 65.1577 351.684 65.6656C351.684 66.1734 352.083 66.5851 352.575 66.5851Z" fill="#575988"/>
<path id="bouton1-two" d="M353.747 68.4242C354.24 68.4242 354.639 68.0125 354.639 67.5047C354.639 66.9968 354.24 66.5851 353.747 66.5851C353.255 66.5851 352.855 66.9968 352.855 67.5047C352.855 68.0125 353.255 68.4242 353.747 68.4242Z" fill="#575988"/>
<path id="Vector_31" d="M459.127 68.1531C459.527 68.1531 459.853 67.8179 459.853 67.4045C459.853 66.991 459.527 66.6559 459.127 66.6559C458.726 66.6559 458.401 66.991 458.401 67.4045C458.401 67.8179 458.726 68.1531 459.127 68.1531Z" fill="#575988"/>
<path id="Vector_32" d="M459.241 69.8566C459.642 69.8566 459.967 69.5214 459.967 69.108C459.967 68.6946 459.642 68.3594 459.241 68.3594C458.84 68.3594 458.515 68.6946 458.515 69.108C458.515 69.5214 458.84 69.8566 459.241 69.8566Z" fill="#575988"/>
<path id="Vector_33" d="M459.338 71.5542C459.739 71.5542 460.064 71.2191 460.064 70.8056C460.064 70.3922 459.739 70.057 459.338 70.057C458.937 70.057 458.612 70.3922 458.612 70.8056C458.612 71.2191 458.937 71.5542 459.338 71.5542Z" fill="#575988"/>
<path id="ombre-veste-tree" opacity="0.1" d="M401.612 117.591C401.503 117.455 426.708 150.27 446.27 131.308C446.287 131.313 415.378 135.634 401.612 117.591Z" fill="black"/>
<path id="Vector_34" opacity="0.1" d="M387.149 134.65C387.149 134.65 402.229 135.074 403.807 139.548V144.205C403.378 144.451 402.895 144.579 402.404 144.579C401.913 144.579 401.43 144.451 401 144.205C399.48 143.356 390.362 138.581 387.149 140.88V134.65Z" fill="black"/>
<path id="poche-costume-two" d="M387.429 134.65C387.429 134.65 401.852 135.057 403.361 139.324V143.757C402.95 143.992 402.488 144.116 402.018 144.116C401.548 144.116 401.086 143.992 400.675 143.757C399.223 142.955 390.505 138.399 387.429 140.592V134.65Z" fill="#3F3D56"/>
<path id="Vector_35" opacity="0.1" d="M395.381 100.886C396.922 104.563 398.885 108.036 401.229 111.231C403.778 114.762 406.867 117.841 410.376 120.35C410.376 120.35 395.633 103.02 395.381 100.886Z" fill="black"/>
<path id="ombre2-veste-tree_2" opacity="0.1" d="M390.448 82.8188C390.448 82.8188 392.963 94.0185 399.445 97.8205L390.448 82.8188Z" fill="black"/>
<path id="ombre4-veste-tree" opacity="0.1" d="M386.589 83.9505C386.526 83.7442 384.354 92.7924 394.947 97.8205C394.947 97.8205 390.448 96.2466 386.589 83.9505Z" fill="black"/>
<path id="Vector_36" opacity="0.1" d="M452.438 76.4409C452.272 76.4409 457.663 79.9776 459.132 81.6281C459.132 81.6281 455.622 76.2051 452.438 76.4409Z" fill="black"/>
<path id="cheveux-two" d="M418.322 68.7013C418.324 69.0005 418.386 69.2961 418.504 69.5693C418.623 69.8425 418.795 70.0874 419.01 70.2885C419.225 70.4896 419.478 70.6425 419.753 70.7376C420.028 70.8327 420.319 70.8679 420.608 70.841C424.661 71.1004 428.886 71.2831 432.613 69.6621C433.312 69.4048 433.94 68.9759 434.442 68.4124C435.105 67.5695 435.237 66.426 435.506 65.3767C436.032 63.3254 437.152 61.504 437.958 59.5529C439.322 56.2565 439.779 52.6365 439.279 49.09C439.173 48.0029 438.825 46.9558 438.261 46.0307C437.186 44.4451 435.226 43.8026 433.802 42.5411C432.379 41.2797 431.464 39.3522 429.8 38.4149C428.303 37.5543 426.468 37.6604 424.781 37.9552C421.464 38.536 418.286 39.7665 415.418 41.5803C414.452 42.1698 413.394 42.8948 412.285 42.6767C411.313 42.4881 410.604 41.6452 409.998 40.8553C409.219 42.7416 408.891 44.7938 409.044 46.8383C409.086 47.1383 409.076 47.4436 409.015 47.7402C408.875 48.0987 408.663 48.4222 408.392 48.6892C407.392 49.8681 406.768 51.7838 407.757 52.9981C408.186 53.5227 408.849 53.8116 409.267 54.348C410.015 55.3088 409.764 56.7058 409.747 57.9319C409.706 58.36 409.811 58.7895 410.044 59.1462C410.26 59.354 410.525 59.5007 410.812 59.572C411.1 59.6433 411.4 59.6367 411.685 59.5529C412.251 59.377 412.846 59.3189 413.434 59.3819C414.054 59.5898 414.589 60.0046 414.955 60.5609C416.801 63.0425 417.533 65.7422 418.322 68.7013Z" fill="#2D293D"/>
<g id="Group_2" opacity="0.1">
<path id="Vector_37" opacity="0.1" d="M434.917 67.3691C434.414 67.9326 433.787 68.3615 433.088 68.6187C429.337 70.228 425.119 70.0452 421.083 69.7977C420.649 69.8021 420.221 69.7033 419.831 69.5088C419.213 69.1375 418.979 68.3594 418.79 67.652C418.002 64.7048 417.276 61.9991 415.4 59.5411C415.039 58.9741 414.504 58.5486 413.88 58.3327C413.292 58.2755 412.698 58.3335 412.131 58.5037C411.847 58.5882 411.547 58.5957 411.259 58.5255C410.972 58.4553 410.707 58.3097 410.49 58.1028C410.257 57.7462 410.151 57.3167 410.193 56.8885C410.193 55.6507 410.461 54.2655 409.712 53.3046C409.295 52.7682 408.632 52.4794 408.203 51.9489C407.924 51.5578 407.752 51.0958 407.707 50.6121C407.661 50.1284 407.744 49.6411 407.946 49.202C407.232 50.3809 406.929 51.8605 407.757 52.8743C408.186 53.3989 408.849 53.6878 409.267 54.2242C410.015 55.1909 409.764 56.582 409.747 57.8081C409.703 58.2356 409.806 58.6654 410.038 59.0224C410.255 59.2313 410.521 59.3785 410.809 59.4498C411.098 59.5211 411.4 59.514 411.685 59.4291C412.251 59.2532 412.846 59.1951 413.434 59.2582C414.054 59.466 414.589 59.8808 414.955 60.4371C416.824 62.8951 417.556 65.5948 418.345 68.5539C418.437 69.2821 418.79 69.9484 419.333 70.4225C419.725 70.6172 420.156 70.7142 420.591 70.7054C424.644 70.9648 428.869 71.1534 432.596 69.5265C433.296 69.2709 433.924 68.8418 434.425 68.2769C434.677 67.9448 434.871 67.5697 434.997 67.1687C435.003 67.2453 434.963 67.3102 434.917 67.3691Z" fill="black"/>
<path id="Vector_38" opacity="0.1" d="M409.044 47.3806C409.223 47.1795 409.361 46.9429 409.45 46.685C409.501 46.3867 409.501 46.0814 409.45 45.7832C409.338 44.1026 409.55 42.4159 410.073 40.8199L409.998 40.7315C409.216 42.615 408.889 44.666 409.044 46.7086C409.061 46.9322 409.061 47.1569 409.044 47.3806V47.3806Z" fill="black"/>
</g>
<path id="Vector_39" opacity="0.1" d="M415.949 77.0126C415.949 77.0126 432.567 79.2879 434.059 76.712Z" fill="black"/>
<path id="Vector_40" opacity="0.1" d="M448.254 69.9214C448.254 69.9214 457.492 69.9214 459.521 73.5054Z" fill="black"/>
<path id="chaussure-g-tree" d="M499.937 388.317C497.197 390.843 493.637 392.215 489.962 392.16C489.024 392.16 487.727 392.343 487.721 393.31C487.743 393.593 487.838 393.866 487.995 394.1C489.155 396.093 490.987 397.577 493.14 398.267C495.141 398.892 497.279 398.786 499.365 398.674L505.454 398.35C506.597 398.285 507.74 398.226 508.884 398.078C510.027 397.931 511.273 397.689 512.468 397.489C515.404 397.059 518.372 396.917 521.334 397.065C522.123 397.094 523.049 397.065 523.518 396.475C523.987 395.886 523.747 394.76 523.569 393.876C523.204 392.054 523.569 390.144 523.232 388.317C522.661 385.11 519.968 382.652 517.018 381.491C514.274 380.418 509.415 379.186 506.82 380.978C504.082 382.859 502.407 386 499.937 388.317Z" fill="#3F3D56"/>
<path id="pied-g-tree" d="M505.985 280.882C506.523 283.517 508.998 285.533 509.066 288.221C509.129 290.379 507.637 292.188 506.563 294.033C505.55 295.944 504.695 297.94 504.007 299.998C501.984 305.359 499.473 310.511 496.507 315.383C495.078 317.741 493.477 320.258 493.803 322.999C494.031 324.281 494.47 325.513 495.101 326.642L499.388 335.425C500.327 337.178 501.062 339.04 501.578 340.972C501.949 342.64 501.984 344.367 502.201 346.065C502.875 351.452 505.328 356.875 503.876 362.098C503.75 362.546 503.304 363.088 502.955 362.776C504.373 365.505 505.511 368.252 505.402 371.346C505.345 372.967 504.865 374.659 505.442 376.168C505.688 376.799 506.117 377.388 506.111 378.066C506.111 378.514 505.911 378.933 505.865 379.369C505.745 380.613 506.854 381.65 508.003 382.045C509.152 382.44 510.404 382.411 511.565 382.77C513.794 383.46 515.389 385.44 517.281 386.814C519.222 388.193 521.51 388.961 523.867 389.024C524.203 389.061 524.542 388.991 524.839 388.824C525.007 388.672 525.141 388.486 525.234 388.276C525.327 388.067 525.375 387.84 525.376 387.61C525.479 386.509 525.319 385.398 524.908 384.377C524.497 383.355 523.849 382.453 523.021 381.75C522.657 381.516 522.357 381.192 522.146 380.807C522.039 380.467 522.012 380.105 522.066 379.752C522.411 374.921 522.327 370.067 521.814 365.251C521.583 363.725 521.509 362.178 521.591 360.636C521.712 359.351 522.089 358.078 521.952 356.799C521.814 355.52 521.18 354.352 520.808 353.12C520.145 350.928 520.328 348.57 520.237 346.277C520.122 342.292 519.236 338.378 518.356 334.488C518.007 332.961 517.624 331.364 516.578 330.232C515.686 329.271 514.246 328.351 514.583 327.072C514.77 326.601 515.048 326.174 515.4 325.817C515.814 325.281 516.118 324.664 516.293 324.003C516.468 323.342 516.511 322.652 516.418 321.973C516.794 322.072 517.192 322.034 517.543 321.864C517.894 321.694 518.178 321.403 518.344 321.042C525.307 317.653 530.921 310.874 533.425 303.358C533.572 302.8 533.8 302.268 534.099 301.779C534.745 300.847 535.866 300.446 536.86 299.934C539.982 298.313 542.137 295.277 544.115 292.306C545.258 290.585 546.401 288.805 546.916 286.777C547.186 285.465 547.315 284.127 547.299 282.786L547.476 275.86C547.515 275.404 547.472 274.945 547.35 274.504C547.181 274.093 546.934 273.721 546.624 273.408C544.723 271.335 542.226 269.946 539.501 269.447C537.672 269.111 535.803 269.176 533.951 269.017C530.361 268.71 526.816 267.561 523.226 267.838C517.584 268.268 512.559 272.3 509.901 277.452C508.969 279.267 507.986 280.847 505.985 280.882Z" fill="#464353"/>
<path id="t-shirt-tree" d="M474.658 235.848C474.735 236.917 474.594 237.991 474.247 239.001C473.807 239.968 472.703 240.723 471.737 240.328C472.029 239.65 471.257 238.878 470.537 238.96C470.182 239.044 469.853 239.216 469.577 239.46C469.302 239.705 469.087 240.015 468.953 240.363C468.476 241.353 468.316 242.474 468.496 243.564C468.725 244.92 469.485 246.222 469.285 247.584C469.125 248.716 468.319 249.842 468.748 250.891C469.026 251.37 469.375 251.802 469.782 252.17C470.347 252.887 470.623 253.801 470.554 254.722C470.485 255.643 470.076 256.502 469.411 257.121L480.226 257.345C479.832 259.208 480.644 261.112 481.57 262.768C484.164 267.322 487.745 271.195 492.034 274.082C496.323 276.969 501.202 278.792 506.288 279.409C506.013 279.574 505.777 279.801 505.598 280.072C505.418 280.343 505.299 280.652 505.249 280.976C505.199 281.301 505.22 281.632 505.31 281.947C505.4 282.263 505.556 282.553 505.768 282.798C506.648 283.7 508.14 283.588 509.244 283.004C510.347 282.421 511.21 281.454 512.216 280.706C513.993 279.408 516.159 278.806 518.327 279.008C519.682 279.143 520.997 279.597 522.358 279.668C526.359 279.886 529.789 276.915 533.642 275.701C536.449 274.811 539.633 274.811 541.988 273.001C543.006 272.223 543.84 270.944 543.543 269.683C543.297 268.958 542.908 268.293 542.4 267.732C541.045 265.922 540.245 263.747 539.273 261.69C537.348 257.617 534.697 253.953 531.458 250.891C529.014 248.688 526.424 246.663 523.707 244.831C523.05 244.331 522.349 243.895 521.614 243.528C520.665 243.098 519.614 242.892 518.756 242.35C517.487 241.524 516.755 240.068 515.778 238.895C513.634 236.314 510.341 235.129 507.7 233.101C505.928 231.739 504.362 229.947 502.247 229.293C501.218 228.969 500.126 228.945 499.097 228.627C496.759 227.896 495.055 225.756 492.763 224.89C490.951 224.206 488.95 224.383 487.046 224.141C484.9 223.868 482.851 223.063 481.072 221.795C480.5 221.314 479.857 220.928 479.169 220.652C476.271 219.744 476.036 225.308 475.739 227.236C475.356 230.101 474.658 232.948 474.658 235.848Z" fill="#6C63FF"/>
<path id="bras-g-tree" d="M477.482 254.51C477.968 259.945 473.99 265.209 475.15 270.532C475.396 271.663 475.87 272.742 476.042 273.891C476.528 277.045 474.698 280.034 472.955 282.674L457.977 305.339C457.376 306.334 456.658 307.249 455.839 308.062C452.981 310.685 448.682 310.42 444.921 311.198C442.278 311.758 439.783 312.896 437.604 314.535C437.505 314.613 437.441 314.728 437.424 314.854C437.407 314.981 437.438 315.11 437.512 315.212C438.133 316.084 438.956 316.782 439.906 317.243C440.855 317.703 441.901 317.911 442.949 317.847C443.343 318.378 442.949 319.168 442.406 319.551C441.605 320.14 440.496 320.276 440.336 321.685C440.282 322.174 440.378 322.669 440.611 323.099C441.216 324.049 442.154 324.721 443.229 324.974C448.414 326.613 454.016 323.736 457.897 319.828C461.779 315.92 464.563 310.986 468.37 307.013C470.48 304.809 472.875 302.928 475.047 300.794C479.38 296.533 482.753 291.363 486 286.182C486.978 284.62 487.967 283.016 488.372 281.207C488.778 279.397 488.59 277.564 489.053 275.813C489.659 273.52 491.288 271.687 492.643 269.765C495.301 265.993 497.079 261.377 496.724 256.726C496.37 252.076 493.58 247.49 489.327 245.91C488.008 245.369 486.556 245.279 485.183 245.651C483.439 246.205 482.153 247.69 480.964 249.117L478.106 252.5C477.41 253.249 476.864 254.133 476.499 255.1C476.315 255.587 476.271 256.118 476.372 256.631C476.474 257.143 476.716 257.614 477.071 257.988" fill="#FBBEBE"/>
<path id="epaule-tree" d="M485.074 232.217C483.108 232.335 480.941 232.535 479.552 233.985C478.969 234.651 478.498 235.412 478.157 236.237C476.808 239.072 475.493 242.037 475.396 245.197C475.316 247.72 476.025 250.189 476.396 252.683C476.705 254.758 475.922 256.874 475.773 258.972C478.214 258.2 481.438 257.151 483.651 255.848C485.16 254.958 486.618 253.944 488.264 253.378C490.613 252.571 494.552 253.968 496.787 255.088C496.907 253.473 495.73 250.655 495.855 249.034C495.873 248.352 495.99 247.676 496.204 247.03C496.539 246.346 496.935 245.697 497.388 245.091C498.238 243.664 498.63 241.997 498.505 240.327C498.381 238.657 497.748 237.071 496.696 235.795C494.712 233.496 491.608 232.635 488.647 232.258C486.782 232.035 484.903 231.968 483.027 232.058" fill="#6C63FF"/>
</g>
<defs>
<linearGradient id="paint0_linear_0:1" x1="403.716" y1="321.95" x2="403.716" y2="33.9056" gradientUnits="userSpaceOnUse">
<stop stop-color="#808080" stop-opacity="0.25"/>
<stop offset="0.54" stop-color="#808080" stop-opacity="0.12"/>
<stop offset="1" stop-color="#808080" stop-opacity="0.1"/>
</linearGradient>
</defs>
</svg>
