<svg width="600" height="400" viewBox="0 0 600 400" fill="none" xmlns="http://www.w3.org/2000/svg">
<style>
body{
    margin-top: 20;
    padding: 0;
    text-align: ;
}

#MINKA {
    animation: MINKA 3s infinite;
    
  
}
#MINKA:hover{
    animation-play-state: paused;
}

@keyframes MINKA{
    to {
        transform: rotate(1turn);
    }
}


#cercle, #cote-g-portrait, #cote-d-portrait {
    animation: cercle 3s infinite linear;
    transform-origin: center;
    transform-box: fill-box;
}

@keyframes cercle{
    from {
        max-height: 0;
        opacity: 0;
        transform: scale(0);
    }
    to {
        max-height: 100px;
        
    }
}

#tableau, #ligne1, #ligne2{
    animation: tableau 3s infinite linear;
}
#tableau:hover{
    animation-play-state: paused;
}

@keyframes tableau {
    0%, 5% { transform: translateX(0);  }
    10% { transform: translateX(-10%);  } 
    /* 40%, 59% { transform: translateX(-40%);  } */
    /* 60%, 79% { transform: translateX(-60%);  } */
    /* 80%, 99% { transform: translateX(-80%);  } */
    /* 100% { transform: translateX(-100%);  } */
}

#barre, #SACKO  {
    animation: barre 2s infinite linear;
}
#barre:hover{
    animation-play-state: paused;
}

@keyframes barre {
    from {
        transform: rotateX(0deg);
    }
    to {
        transform: rotateY(30deg);
    }
}

#ligne3, #ligne5 {
    animation: ligne 5s infinite linear
}
#ligne3:hover{
    animation-play-state: paused;
}

@keyframes ligne {
    from {
        transform: rotateX(0deg);
    }
    to {
        transform: rotateY(30deg);
    }
}

#ligne4, #ligne6 {
    animation: ligne 2s infinite linear
}
#ligne4:hover{
    animation-play-state: paused;
}

@keyframes ligne {
    from {
        transform: rotateX(0deg);
    }
    to {
        transform: rotateY(20deg);
    }
}

#bras-d, #main-d, #bras-g, #main-g, #pied-gauche, #pied-droit, #chaussure-g, #chaussure-d, #pantalon-mr 
, #costume-g, #costume-d, #tete-mr, #cheveu-mr, #t-shirt-mr{
    animation: bras 1s infinite linear;
    transform-origin: center;
    transform-box: fill-box;
}
#bras-d:hover{
    animation-play-state: paused;
}

@keyframes bras {
    from {
        transform: translateX(-0%);
    }
    to {
        transform: translateX(10%) ;
    }
}


</style>
<g id="profil">
<path id="Vector" d="M38.3179 260.686C44.734 260.686 49.9354 257.696 49.9354 254.008C49.9354 250.32 44.734 247.33 38.3179 247.33C31.9017 247.33 26.7003 250.32 26.7003 254.008C26.7003 257.696 31.9017 260.686 38.3179 260.686Z" fill="#5C4A4C"/>
<path id="Vector_2" d="M47.6119 304.681C54.0281 304.681 59.2294 301.691 59.2294 298.003C59.2294 294.315 54.0281 291.325 47.6119 291.325C41.1957 291.325 35.9944 294.315 35.9944 298.003C35.9944 301.691 41.1957 304.681 47.6119 304.681Z" fill="#5C4A4C"/>
<path id="Vector_3" d="M26.3684 311.752C32.7846 311.752 37.9859 308.762 37.9859 305.074C37.9859 301.386 32.7846 298.396 26.3684 298.396C19.9522 298.396 14.7509 301.386 14.7509 305.074C14.7509 308.762 19.9522 311.752 26.3684 311.752Z" fill="#5C4A4C"/>
<path id="Vector_4" d="M59.5613 348.676C65.9775 348.676 71.1789 345.686 71.1789 341.998C71.1789 338.31 65.9775 335.321 59.5613 335.321C53.1452 335.321 47.9438 338.31 47.9438 341.998C47.9438 345.686 53.1452 348.676 59.5613 348.676Z" fill="#5C4A4C"/>
<path id="Vector_5" d="M82.7964 348.676C89.2126 348.676 94.4139 345.686 94.4139 341.998C94.4139 338.31 89.2126 335.321 82.7964 335.321C76.3802 335.321 71.1789 338.31 71.1789 341.998C71.1789 345.686 76.3802 348.676 82.7964 348.676Z" fill="#5C4A4C"/>
<path id="Rectangle 62" d="M600 12.1218H226.383V221.93H600V12.1218Z" fill="#E6E6E6"/>
<path id="tableau" d="M590.25 41H238V216.049H590.25V41Z" fill="white"/>
<path id="MINKA" d="M399.551 70.8164L402.609 66.1289C402.941 66.1484 403.256 66.1738 403.553 66.2051C403.85 66.2324 404.109 66.2617 404.332 66.293C404.594 66.3281 404.836 66.3633 405.059 66.3984V67.7461L403.969 67.5V73.5469L405.059 73.3008V74.7539C404.645 74.8359 404.236 74.8965 403.834 74.9355C403.432 74.9746 403.023 75.0039 402.609 75.0234V68.5898L399.551 73.3359L396.445 68.5781V75.0234C396.113 75.0039 395.799 74.9805 395.502 74.9531C395.205 74.9258 394.945 74.8965 394.723 74.8652C394.461 74.8301 394.219 74.793 393.996 74.7539V73.3008L395.086 73.5469V67.4883L393.996 67.7344V66.3867C394.219 66.3516 394.461 66.3164 394.723 66.2812C394.945 66.25 395.205 66.2207 395.502 66.1934C395.799 66.1621 396.113 66.1367 396.445 66.1172L399.551 70.8164ZM410.918 66.082C411.523 66.082 412.162 66.1035 412.834 66.1465C413.506 66.1895 414.207 66.2734 414.938 66.3984V67.8867C414.676 67.8125 414.377 67.7422 414.041 67.6758C413.752 67.6211 413.404 67.5684 412.998 67.5176C412.592 67.4668 412.133 67.4336 411.621 67.418V73.6641C412.133 73.6484 412.592 73.6152 412.998 73.5645C413.404 73.5137 413.752 73.4609 414.041 73.4062C414.377 73.3398 414.676 73.2695 414.938 73.1953V74.6836C414.207 74.8086 413.506 74.8926 412.834 74.9355C412.162 74.9785 411.523 75 410.918 75C410.328 75 409.697 74.9785 409.025 74.9355C408.354 74.8926 407.648 74.8086 406.91 74.6836V73.1953C407.172 73.2695 407.471 73.3398 407.807 73.4062C408.096 73.4609 408.443 73.5137 408.85 73.5645C409.256 73.6152 409.715 73.6484 410.227 73.6641V67.418C409.715 67.4336 409.256 67.4668 408.85 67.5176C408.443 67.5684 408.096 67.6211 407.807 67.6758C407.471 67.7422 407.172 67.8125 406.91 67.8867V66.3984C407.648 66.2734 408.354 66.1895 409.025 66.1465C409.697 66.1035 410.328 66.082 410.918 66.082ZM423.223 72.6914V66.1641C423.559 66.1758 423.873 66.1973 424.166 66.2285C424.463 66.2559 424.725 66.2852 424.951 66.3164C425.213 66.3555 425.457 66.3945 425.684 66.4336V67.9219C425.371 67.8281 425.012 67.7461 424.605 67.6758V73.582C424.816 73.5508 425.01 73.5137 425.186 73.4707C425.365 73.4277 425.531 73.3828 425.684 73.3359V74.7188C425.402 74.7656 425.146 74.8047 424.916 74.8359C424.686 74.8672 424.471 74.8926 424.271 74.9121C424.076 74.9316 423.893 74.9473 423.721 74.959C423.549 74.9707 423.383 74.9805 423.223 74.9883L419.297 68.4727V74.9883C419.137 74.9805 418.971 74.9707 418.799 74.959C418.627 74.9473 418.443 74.9316 418.248 74.9121C418.053 74.8926 417.84 74.8672 417.609 74.8359C417.379 74.8047 417.125 74.7656 416.848 74.7188V73.2305C417.137 73.3242 417.496 73.4062 417.926 73.4766V67.5586C417.719 67.5938 417.525 67.6328 417.346 67.6758C417.166 67.7188 417 67.7617 416.848 67.8047V66.4336C417.066 66.3945 417.307 66.3555 417.568 66.3164C417.791 66.2852 418.051 66.2559 418.348 66.2285C418.645 66.1973 418.961 66.1758 419.297 66.1641L423.223 72.6914ZM429.844 69.4688C429.996 69.5 430.15 69.5215 430.307 69.5332C430.463 69.5449 430.621 69.5508 430.781 69.5508C431.297 69.5508 431.719 69.4629 432.047 69.2871C432.375 69.1113 432.633 68.8691 432.82 68.5605C433.008 68.252 433.139 67.8887 433.213 67.4707C433.287 67.0488 433.328 66.5938 433.336 66.1055C433.672 66.1211 433.988 66.1445 434.285 66.1758C434.582 66.2031 434.846 66.2324 435.076 66.2637C435.342 66.2988 435.59 66.3359 435.82 66.375V67.8633C435.762 67.8438 435.686 67.8223 435.592 67.7988C435.502 67.7754 435.4 67.752 435.287 67.7285C435.178 67.7012 435.059 67.6758 434.93 67.6523C434.805 67.625 434.676 67.5977 434.543 67.5703C434.516 67.8203 434.475 68.0684 434.42 68.3145C434.369 68.5566 434.297 68.7891 434.203 69.0117C434.109 69.2344 433.99 69.4395 433.846 69.627C433.705 69.8105 433.531 69.9688 433.324 70.1016C433.598 70.1914 433.84 70.3242 434.051 70.5C434.262 70.6758 434.443 70.8789 434.596 71.1094C434.752 71.3359 434.881 71.584 434.982 71.8535C435.088 72.123 435.172 72.3965 435.234 72.6738C435.297 72.9512 435.342 73.2285 435.369 73.5059C435.396 73.7793 435.41 74.0352 435.41 74.2734C435.41 74.4023 435.406 74.5273 435.398 74.6484C435.395 74.7656 435.387 74.875 435.375 74.9766H433.992C434.012 74.8359 434.023 74.7012 434.027 74.5723C434.035 74.4395 434.039 74.3086 434.039 74.1797C434.039 73.6719 433.979 73.2148 433.857 72.8086C433.736 72.4023 433.566 72.0586 433.348 71.7773C433.129 71.4922 432.867 71.2754 432.562 71.127C432.262 70.9746 431.93 70.8984 431.566 70.8984C431.32 70.8984 431.111 70.9043 430.939 70.916C430.768 70.9277 430.617 70.9453 430.488 70.9688C430.359 70.9883 430.244 71.0117 430.143 71.0391C430.045 71.0664 429.945 71.0938 429.844 71.1211V74.9766H428.402V67.6172C428.18 67.6641 427.973 67.709 427.781 67.752C427.594 67.791 427.453 67.8281 427.359 67.8633V66.375C427.582 66.3359 427.828 66.2988 428.098 66.2637C428.324 66.2324 428.588 66.2031 428.889 66.1758C429.189 66.1445 429.508 66.1211 429.844 66.1055V69.4688ZM441.48 65.8477C441.723 65.8477 441.969 65.873 442.219 65.9238C442.469 65.9707 442.691 66.0352 442.887 66.1172C443.23 66.7188 443.543 67.332 443.824 67.957C444.109 68.5781 444.363 69.2188 444.586 69.8789C444.738 69.8984 444.893 69.9199 445.049 69.9434C445.205 69.9629 445.363 69.9844 445.523 70.0078V71.5078L445.02 71.3672C445.16 71.9492 445.279 72.543 445.377 73.1484C445.475 73.7539 445.547 74.3711 445.594 75H444.199C444.141 74.3281 444.043 73.6641 443.906 73.0078C443.77 72.3516 443.613 71.7227 443.438 71.1211C443.059 71.0898 442.697 71.0664 442.354 71.0508C442.014 71.0352 441.723 71.0273 441.48 71.0273C441.156 71.0273 440.834 71.0332 440.514 71.0449C440.193 71.0566 439.871 71.0781 439.547 71.1094C439.371 71.7109 439.213 72.3398 439.072 72.9961C438.936 73.6523 438.84 74.3203 438.785 75H437.391C437.434 74.3711 437.502 73.7559 437.596 73.1543C437.693 72.5527 437.812 71.9609 437.953 71.3789L437.496 71.5078V70.0078L438.398 69.8789C438.617 69.2188 438.867 68.5781 439.148 67.957C439.434 67.332 439.75 66.7188 440.098 66.1172C440.293 66.0352 440.514 65.9707 440.76 65.9238C441.006 65.873 441.246 65.8477 441.48 65.8477ZM441.48 69.7031C441.715 69.7031 441.957 69.707 442.207 69.7148C442.457 69.7188 442.715 69.7305 442.98 69.75C442.781 69.207 442.584 68.7363 442.389 68.3379C442.197 67.9355 442.031 67.625 441.891 67.4062C441.82 67.375 441.754 67.3535 441.691 67.3418C441.629 67.3301 441.559 67.3242 441.48 67.3242C441.355 67.3242 441.227 67.3516 441.094 67.4062C440.953 67.625 440.785 67.9355 440.59 68.3379C440.395 68.7363 440.199 69.207 440.004 69.75C440.262 69.7305 440.514 69.7188 440.76 69.7148C441.01 69.707 441.25 69.7031 441.48 69.7031Z" fill="#CACACA"/>
<path id="barre" d="M599.841 0H226.224V18.7838H599.841V0Z" fill="#CACACA"/>
<path id="Ellipse 90" d="M238.019 12.1699C239.644 12.1699 240.961 10.6112 240.961 8.68839C240.961 6.76561 239.644 5.20688 238.019 5.20688C236.394 5.20688 235.077 6.76561 235.077 8.68839C235.077 10.6112 236.394 12.1699 238.019 12.1699Z" fill="white"/>
<path id="Ellipse 91" d="M249.185 12.1699C250.81 12.1699 252.127 10.6112 252.127 8.68839C252.127 6.76561 250.81 5.20688 249.185 5.20688C247.561 5.20688 246.243 6.76561 246.243 8.68839C246.243 10.6112 247.561 12.1699 249.185 12.1699Z" fill="white"/>
<path id="Ellipse 92" d="M260.352 12.1699C261.977 12.1699 263.294 10.6112 263.294 8.68839C263.294 6.76561 261.977 5.20688 260.352 5.20688C258.728 5.20688 257.41 6.76561 257.41 8.68839C257.41 10.6112 258.728 12.1699 260.352 12.1699Z" fill="white"/>
<path id="ligne1" d="M393.949 77C393.698 77 393.456 77.158 393.278 77.4393C393.1 77.7206 393 78.1022 393 78.5C393 78.8978 393.1 79.2794 393.278 79.5607C393.456 79.842 393.698 80 393.949 80H446.05C446.302 80 446.544 79.842 446.722 79.5607C446.9 79.2794 447 78.8978 447 78.5C447 78.1022 446.9 77.7206 446.722 77.4393C446.544 77.158 446.302 77 446.05 77H393.949Z" fill="#E6E6E6"/>
<path id="ligne2" d="M394.629 101C394.197 100.999 393.782 100.841 393.477 100.56C393.172 100.278 393 99.8973 393 99.5C393 99.1027 393.172 98.7217 393.477 98.4405C393.782 98.1593 394.197 98.0009 394.629 98H440.371C440.803 98.0009 441.218 98.1593 441.523 98.4405C441.828 98.7217 442 99.1027 442 99.5C442 99.8973 441.828 100.278 441.523 100.56C441.218 100.841 440.803 100.999 440.371 101H394.629Z" fill="#E6E6E6"/>
<path id="ligne3" d="M392.651 130.763C392.273 130.763 391.911 130.941 391.643 131.257C391.376 131.574 391.226 132.003 391.226 132.45C391.226 132.897 391.376 133.326 391.643 133.643C391.911 133.959 392.273 134.137 392.651 134.137H539.286C539.664 134.137 540.027 133.959 540.294 133.643C540.561 133.326 540.711 132.897 540.711 132.45C540.711 132.003 540.561 131.574 540.294 131.257C540.027 130.941 539.664 130.763 539.286 130.763H392.651Z" fill="#E6E6E6"/>
<path id="ligne4" d="M392.651 140.884C392.274 140.885 391.912 141.063 391.645 141.379C391.379 141.696 391.229 142.124 391.229 142.571C391.229 143.018 391.379 143.446 391.645 143.762C391.912 144.078 392.274 144.256 392.651 144.257H501.006C501.384 144.256 501.745 144.078 502.012 143.762C502.279 143.446 502.428 143.018 502.428 142.571C502.428 142.124 502.279 141.696 502.012 141.379C501.745 141.063 501.384 140.885 501.006 140.884H392.651Z" fill="#E6E6E6"/>
<path id="ligne5" d="M392.651 150.776C392.274 150.777 391.912 150.955 391.645 151.271C391.379 151.588 391.229 152.016 391.229 152.463C391.229 152.909 391.379 153.338 391.645 153.654C391.912 153.97 392.274 154.148 392.651 154.149H539.286C539.664 154.148 540.025 153.97 540.292 153.654C540.558 153.338 540.708 152.909 540.708 152.463C540.708 152.016 540.558 151.588 540.292 151.271C540.025 150.955 539.664 150.777 539.286 150.776H392.651Z" fill="#E6E6E6"/>
<path id="ligne6" d="M392.651 160.897C392.274 160.898 391.912 161.076 391.645 161.392C391.379 161.708 391.229 162.137 391.229 162.584C391.229 163.03 391.379 163.459 391.645 163.775C391.912 164.091 392.274 164.269 392.651 164.27H501.006C501.384 164.269 501.745 164.091 502.012 163.775C502.279 163.459 502.428 163.03 502.428 162.584C502.428 162.137 502.279 161.708 502.012 161.392C501.745 161.076 501.384 160.898 501.006 160.897H392.651Z" fill="#E6E6E6"/>
<path id="tete-portrait" d="M315.989 137.608C322.843 137.608 328.4 131.033 328.4 122.922C328.4 114.81 322.843 108.235 315.989 108.235C309.135 108.235 303.579 114.81 303.579 122.922C303.579 131.033 309.135 137.608 315.989 137.608Z" fill="#5C4A4C"/>
<path id="cheveu-portrait" d="M312.059 111.172C312.059 111.172 317.851 113.008 320.85 113.742C323.849 114.477 323.539 112.396 323.539 112.396C323.539 112.396 327.469 113.008 327.262 112.518C327.055 112.029 328.917 109.459 326.745 106.521C324.573 103.584 325.194 101.381 325.194 101.381H323.332L322.815 100.524H319.919C319.919 100.524 316.718 97.2018 311.03 98.1809C305.342 99.1601 298.615 101.748 297.994 105.787C297.91 106.335 297.799 106.943 297.671 107.586C296.115 115.357 299.42 122.628 302.848 129.507C303.69 131.198 307.765 134.885 307.661 132.355C307.556 129.826 303.993 124.145 306.475 123.778C308.957 123.411 313.197 115.945 312.059 111.172Z" fill="#2F2E41"/>
<path id="t-shirt-portrait" d="M308.949 170.401C306.553 170.175 304.178 169.713 301.846 169.02L301.977 166.091L303.064 142.804L303.074 142.625H324.935L328.366 164.067L328.828 166.961C327.923 167.377 327.007 167.77 326.072 168.115C326.062 168.115 326.062 168.127 326.052 168.127C324.754 168.604 323.436 169.02 322.108 169.365C320.342 169.816 318.555 170.142 316.756 170.342C315.365 170.505 313.968 170.585 312.571 170.58C311.364 170.58 310.146 170.52 308.949 170.401Z" fill="white"/>
<path id="cote-g-portrait" d="M294.895 166.258C293.989 165.794 293.114 165.294 292.249 164.77L291.876 164.544C291.625 164.389 291.364 164.222 291.112 164.056C290.77 163.829 290.438 163.603 290.116 163.377C289.804 163.163 289.482 162.936 289.17 162.71C289.15 162.698 289.14 162.686 289.12 162.686C288.034 161.865 286.967 161.02 285.941 160.103C285.77 159.948 285.599 159.793 285.428 159.639L285.247 156.21L285.508 156.019L303.064 142.804L303.305 142.625L303.325 142.613L305.8 142.625V153.531C307.198 155.924 308.144 160.936 308.728 167.496C308.808 168.437 308.878 169.401 308.949 170.401C306.553 170.175 304.178 169.713 301.846 169.02C301.595 168.961 301.353 168.889 301.102 168.806C299.636 168.352 298.192 167.803 296.776 167.163C296.343 166.972 295.921 166.77 295.498 166.568L295.458 166.544C295.277 166.449 295.076 166.353 294.895 166.258Z" fill="#2F2E41"/>
<path id="Vector_6" d="M291.112 164.056C290.77 163.829 290.438 163.603 290.116 163.377C289.804 163.163 289.482 162.936 289.17 162.71C289.15 162.698 289.14 162.686 289.12 162.686C288.034 161.865 286.967 161.02 285.941 160.103C285.77 159.948 285.599 159.793 285.428 159.639C285.347 159.555 285.267 159.484 285.176 159.4C284.533 158.817 283.909 158.21 283.305 157.567C283.275 157.543 283.255 157.507 283.224 157.484C283.834 156.929 284.518 156.498 285.247 156.21L285.961 156.46L291.052 158.269L291.082 160.71L291.112 164.056Z" fill="#2F2E41"/>
<path id="cote-d-portrait" d="M333.979 164.091C333.677 164.282 333.376 164.472 333.074 164.651C333.003 164.699 332.943 164.734 332.883 164.77C332.48 165.008 332.088 165.246 331.686 165.472C331.675 165.484 331.655 165.484 331.655 165.496C331.635 165.508 331.605 165.52 331.585 165.532C330.68 166.044 329.764 166.52 328.828 166.961C327.923 167.377 327.007 167.77 326.072 168.115C326.062 168.115 326.062 168.127 326.052 168.127C324.754 168.604 323.436 169.02 322.108 169.366C322.093 168.388 322.201 167.412 322.43 166.472L322.44 166.306L323.305 149.733L322.148 142.625L325.468 142.042L343.728 153.674C343.728 153.674 341.716 156.055 333.456 161.127C332.726 161.575 333.798 163.067 333.979 164.091Z" fill="#2F2E41"/>
<path id="cercle" d="M316.535 167.484C315.227 167.627 313.899 167.699 312.571 167.699C311.283 167.699 310.005 167.639 308.728 167.496C308.808 168.437 308.878 169.401 308.949 170.401C310.146 170.52 311.364 170.58 312.571 170.58C313.968 170.585 315.365 170.505 316.756 170.342C318.555 170.142 320.342 169.816 322.108 169.366C322.093 168.388 322.201 167.412 322.43 166.472L322.44 166.306C320.498 166.865 318.524 167.259 316.535 167.484ZM354.553 100.669C352.427 93.4422 348.994 86.851 344.495 81.3552C339.995 75.8594 334.537 71.5913 328.5 68.8484C322.464 66.1055 315.994 64.9539 309.543 65.474C303.092 65.994 296.814 68.1731 291.147 71.8593C285.481 75.5456 280.562 80.6502 276.734 86.8173C272.905 92.9844 270.26 100.065 268.982 107.567C267.703 115.068 267.823 122.809 269.333 130.25C270.842 137.691 273.705 144.653 277.722 150.65C278.124 151.245 278.536 151.84 278.959 152.412C278.999 152.459 279.019 152.495 279.049 152.531C280.088 153.948 281.193 155.296 282.359 156.567C282.641 156.876 282.933 157.186 283.224 157.484C283.255 157.507 283.275 157.543 283.305 157.567C283.909 158.21 284.532 158.817 285.176 159.4C285.267 159.484 285.347 159.555 285.428 159.639C285.599 159.793 285.77 159.948 285.941 160.103C286.967 161.02 288.033 161.865 289.12 162.686C289.14 162.686 289.15 162.698 289.17 162.71C289.482 162.936 289.804 163.163 290.116 163.377C290.438 163.603 290.77 163.829 291.112 164.056C291.364 164.222 291.625 164.389 291.876 164.544L292.249 164.77C293.114 165.294 293.989 165.794 294.894 166.258C295.076 166.353 295.277 166.449 295.458 166.544L295.498 166.568C295.921 166.77 296.343 166.972 296.776 167.163C298.191 167.803 299.636 168.352 301.102 168.806C301.353 168.889 301.595 168.961 301.846 169.02C304.178 169.713 306.553 170.175 308.949 170.401C310.146 170.52 311.363 170.58 312.571 170.58C313.968 170.585 315.365 170.505 316.756 170.342C318.555 170.142 320.342 169.816 322.108 169.366C323.436 169.02 324.754 168.604 326.052 168.127C326.062 168.127 326.062 168.115 326.072 168.115C327.007 167.77 327.923 167.377 328.828 166.961C329.764 166.52 330.68 166.044 331.585 165.532C331.605 165.52 331.635 165.508 331.655 165.496C331.655 165.484 331.675 165.484 331.686 165.472C332.088 165.246 332.48 165.008 332.883 164.77C332.943 164.734 333.003 164.699 333.074 164.651C333.376 164.472 333.677 164.282 333.979 164.091C333.999 164.079 334.009 164.067 334.029 164.056C334.824 163.532 335.609 162.984 336.384 162.401C336.595 162.246 336.806 162.091 337.018 161.913C337.329 161.686 337.631 161.436 337.923 161.186C338.315 160.865 338.707 160.531 339.09 160.186C339.217 160.09 339.338 159.982 339.452 159.865C340.388 159.031 341.293 158.15 342.158 157.222C348.719 150.303 353.399 141.237 355.605 131.171C357.811 121.104 357.445 110.489 354.552 100.669L354.553 100.669ZM341.404 154.15C340.315 155.363 339.173 156.507 337.983 157.579C337.722 157.817 337.45 158.055 337.179 158.269C336.917 158.508 336.656 158.734 336.384 158.948C336.153 159.139 335.921 159.329 335.679 159.508C335.659 159.531 335.629 159.543 335.609 159.567C335.438 159.71 335.257 159.841 335.086 159.972C334.553 160.365 333.999 160.758 333.456 161.127C333.325 161.21 333.205 161.305 333.074 161.389C333.003 161.436 332.933 161.484 332.852 161.532C332.551 161.734 332.249 161.913 331.947 162.103C331.907 162.139 331.857 162.151 331.816 162.186C331.801 162.189 331.787 162.198 331.776 162.21C331.565 162.341 331.354 162.46 331.142 162.579C330.961 162.686 330.79 162.794 330.609 162.889C329.875 163.306 329.12 163.698 328.366 164.067C327.571 164.448 326.766 164.794 325.951 165.115C325.75 165.199 325.538 165.294 325.327 165.365C324.371 165.722 323.416 166.044 322.44 166.306C320.498 166.865 318.524 167.259 316.535 167.484C315.227 167.627 313.899 167.699 312.571 167.699C311.283 167.699 310.005 167.639 308.728 167.496C306.448 167.25 304.191 166.78 301.977 166.091C301.897 166.068 301.806 166.044 301.726 166.02C299.91 165.46 298.131 164.744 296.404 163.877C296.313 163.829 296.213 163.794 296.132 163.746C296.031 163.698 295.941 163.663 295.86 163.615C295.76 163.567 295.669 163.52 295.579 163.472C294.824 163.079 294.09 162.651 293.356 162.21L293.013 161.996C292.359 161.591 291.715 161.174 291.082 160.71C290.861 160.567 290.629 160.401 290.408 160.234C290.156 160.055 289.905 159.865 289.663 159.674C289.603 159.627 289.543 159.579 289.482 159.531C288.919 159.079 288.345 158.626 287.802 158.138C287.42 157.805 287.048 157.484 286.675 157.138C286.434 156.924 286.192 156.698 285.961 156.46C285.81 156.329 285.659 156.174 285.508 156.019C285.307 155.817 285.106 155.614 284.905 155.4C284.593 155.102 284.301 154.769 284.019 154.459C282.886 153.224 281.815 151.912 280.81 150.531C280.468 150.078 280.146 149.626 279.834 149.15C279.762 149.056 279.694 148.956 279.633 148.852C274.568 141.285 271.474 132.138 270.727 122.525C269.98 112.913 271.614 103.251 275.428 94.7186C279.242 86.1861 285.073 79.1518 292.208 74.4738C299.343 69.7959 307.474 67.6765 315.609 68.3743C323.745 69.0721 331.533 72.5568 338.023 78.4034C344.513 84.2501 349.426 92.2057 352.161 101.3C354.895 110.394 355.335 120.234 353.424 129.618C351.514 139.003 347.338 147.527 341.404 154.15L341.404 154.15Z" fill="#3F3D56"/>
<path id="pied-droit" d="M108.498 390.221L116.637 390.22L120.509 353.069L108.497 353.07L108.498 390.221Z" fill="#5C4A4C"/>
<path id="chaussure-d" d="M106.423 387.076L122.451 387.076H122.451C125.16 387.076 127.758 388.349 129.674 390.616C131.589 392.883 132.666 395.958 132.666 399.163V399.556L106.423 399.557L106.423 387.076Z" fill="#2F2E41"/>
<path id="pied-gauche" d="M139.036 390.221L147.175 390.22L151.046 353.069L139.035 353.07L139.036 390.221Z" fill="#5C4A4C"/>
<path id="chaussure-g" d="M136.96 387.076L152.988 387.076H152.989C155.698 387.076 158.296 388.349 160.211 390.616C162.127 392.883 163.203 395.958 163.203 399.163V399.556L136.961 399.557L136.96 387.076Z" fill="#2F2E41"/>
<path id="main-d" d="M83.8032 243.42C84.4693 242.576 84.9709 241.569 85.2727 240.471C85.5745 239.372 85.6692 238.209 85.55 237.063C85.4308 235.916 85.1006 234.815 84.5828 233.836C84.065 232.857 83.3721 232.024 82.553 231.397L88.2078 204.131L76.5954 209.028L73.0057 234.169C72.2058 235.867 71.9601 237.854 72.3152 239.753C72.6703 241.651 73.6015 243.33 74.9324 244.47C76.2634 245.61 77.9015 246.133 79.5364 245.94C81.1714 245.746 82.6895 244.849 83.8032 243.42V243.42Z" fill="#5C4A4C"/>
<path id="main-g" d="M170.198 241.063C169.532 240.219 169.031 239.212 168.729 238.114C168.427 237.015 168.333 235.852 168.452 234.706C168.571 233.56 168.901 232.458 169.419 231.479C169.937 230.5 170.63 229.667 171.449 229.04L165.794 201.775L177.406 206.671L180.996 231.812C181.796 233.511 182.042 235.497 181.687 237.396C181.331 239.294 180.4 240.973 179.069 242.113C177.738 243.253 176.1 243.776 174.465 243.583C172.83 243.389 171.312 242.493 170.198 241.063V241.063Z" fill="#5C4A4C"/>
<path id="pantalon-mr" d="M94.5115 224.308L105.792 380.699L122.299 378.918L128.905 258.049L134.785 305.908L135.963 381.93L150.9 380.752L159.194 298.968L157.159 219.763L100.454 212.967L94.5115 224.308Z" fill="#8E4E4E"/>
<path id="tete-mr" d="M125.544 81.9948C134.998 81.9948 142.662 72.925 142.662 61.7368C142.662 50.5486 134.998 41.4787 125.544 41.4787C116.09 41.4787 108.426 50.5486 108.426 61.7368C108.426 72.925 116.09 81.9948 125.544 81.9948Z" fill="#5C4A4C"/>
<path id="cheveu-mr" d="M120.123 45.5303C120.123 45.5303 128.111 48.0626 132.248 49.0755C136.385 50.0884 135.957 47.2185 135.957 47.2185C135.957 47.2185 141.378 48.0626 141.093 47.3873C140.807 46.712 143.375 43.1669 140.379 39.1152C137.384 35.0636 138.24 32.0249 138.24 32.0249H135.672L134.959 30.8432H130.964C130.964 30.8432 126.548 26.2606 118.703 27.6111C110.857 28.9616 101.578 32.5314 100.722 38.1023C100.606 38.858 100.453 39.6975 100.276 40.5842C98.1306 51.303 102.689 61.3321 107.417 70.8208C108.579 73.1527 114.199 78.2377 114.056 74.7489C113.912 71.2601 108.996 63.4249 112.42 62.9185C115.843 62.412 121.692 52.1142 120.123 45.5303Z" fill="#2F2E41"/>
<path id="t-shirt-mr" d="M107.731 88.9149H137.878L159.194 222.138C159.194 222.138 140.61 224.019 129.988 228.733C119.366 233.446 101.709 217.965 101.709 217.965L107.731 88.9149Z" fill="white"/>
<path id="costume-d" d="M111.494 103.96V88.9149L108.081 88.8903L83.1418 107.655L88.5533 210.465C88.5533 210.465 94.9582 244.764 104.673 244.408C114.388 244.052 121.878 121.779 111.494 103.96Z" fill="#2F2E41"/>
<path id="bras-d" d="M91.1525 110.495L83.1417 107.655C83.1417 107.655 77.2114 109.709 77.2114 116.78C77.2114 123.851 72.1018 224.308 72.1018 224.308L88.3337 226.005L91.8163 174.917L91.1525 110.495Z" fill="#2F2E41"/>
<path id="costume-g" d="M135.631 98.7107L134.034 88.9149L138.618 88.1047L155.215 95.961C155.215 95.961 170.152 225.197 163.513 229.125C156.874 233.053 152.392 230.01 152.392 230.01C152.392 230.01 130.557 134.693 134.422 121.808L135.631 98.7107Z" fill="#2F2E41"/>
<path id="bras-g" d="M143.597 97.925L146.43 96.4661C146.43 96.4661 154.743 91.5907 159.46 101.436C164.177 111.281 180.773 221.269 180.773 221.269L167.118 224.308L156.908 184.725L143.597 97.925Z" fill="#2F2E41"/>
<path id="ligne-droite" d="M253.594 400H0.663858C0.487792 400 0.318937 399.917 0.194439 399.77C0.0699415 399.623 0 399.423 0 399.214C0 399.006 0.0699415 398.806 0.194439 398.659C0.318937 398.511 0.487792 398.429 0.663858 398.429H253.594C253.77 398.429 253.939 398.511 254.063 398.659C254.188 398.806 254.258 399.006 254.258 399.214C254.258 399.423 254.188 399.623 254.063 399.77C253.939 399.917 253.77 400 253.594 400Z" fill="#5C4A4C"/>
<path id="MINKA_2" d="M399.551 70.8164L402.609 66.1289C402.941 66.1484 403.256 66.1738 403.553 66.2051C403.85 66.2324 404.109 66.2617 404.332 66.293C404.594 66.3281 404.836 66.3633 405.059 66.3984V67.7461L403.969 67.5V73.5469L405.059 73.3008V74.7539C404.645 74.8359 404.236 74.8965 403.834 74.9355C403.432 74.9746 403.023 75.0039 402.609 75.0234V68.5898L399.551 73.3359L396.445 68.5781V75.0234C396.113 75.0039 395.799 74.9805 395.502 74.9531C395.205 74.9258 394.945 74.8965 394.723 74.8652C394.461 74.8301 394.219 74.793 393.996 74.7539V73.3008L395.086 73.5469V67.4883L393.996 67.7344V66.3867C394.219 66.3516 394.461 66.3164 394.723 66.2812C394.945 66.25 395.205 66.2207 395.502 66.1934C395.799 66.1621 396.113 66.1367 396.445 66.1172L399.551 70.8164ZM410.918 66.082C411.523 66.082 412.162 66.1035 412.834 66.1465C413.506 66.1895 414.207 66.2734 414.938 66.3984V67.8867C414.676 67.8125 414.377 67.7422 414.041 67.6758C413.752 67.6211 413.404 67.5684 412.998 67.5176C412.592 67.4668 412.133 67.4336 411.621 67.418V73.6641C412.133 73.6484 412.592 73.6152 412.998 73.5645C413.404 73.5137 413.752 73.4609 414.041 73.4062C414.377 73.3398 414.676 73.2695 414.938 73.1953V74.6836C414.207 74.8086 413.506 74.8926 412.834 74.9355C412.162 74.9785 411.523 75 410.918 75C410.328 75 409.697 74.9785 409.025 74.9355C408.354 74.8926 407.648 74.8086 406.91 74.6836V73.1953C407.172 73.2695 407.471 73.3398 407.807 73.4062C408.096 73.4609 408.443 73.5137 408.85 73.5645C409.256 73.6152 409.715 73.6484 410.227 73.6641V67.418C409.715 67.4336 409.256 67.4668 408.85 67.5176C408.443 67.5684 408.096 67.6211 407.807 67.6758C407.471 67.7422 407.172 67.8125 406.91 67.8867V66.3984C407.648 66.2734 408.354 66.1895 409.025 66.1465C409.697 66.1035 410.328 66.082 410.918 66.082ZM423.223 72.6914V66.1641C423.559 66.1758 423.873 66.1973 424.166 66.2285C424.463 66.2559 424.725 66.2852 424.951 66.3164C425.213 66.3555 425.457 66.3945 425.684 66.4336V67.9219C425.371 67.8281 425.012 67.7461 424.605 67.6758V73.582C424.816 73.5508 425.01 73.5137 425.186 73.4707C425.365 73.4277 425.531 73.3828 425.684 73.3359V74.7188C425.402 74.7656 425.146 74.8047 424.916 74.8359C424.686 74.8672 424.471 74.8926 424.271 74.9121C424.076 74.9316 423.893 74.9473 423.721 74.959C423.549 74.9707 423.383 74.9805 423.223 74.9883L419.297 68.4727V74.9883C419.137 74.9805 418.971 74.9707 418.799 74.959C418.627 74.9473 418.443 74.9316 418.248 74.9121C418.053 74.8926 417.84 74.8672 417.609 74.8359C417.379 74.8047 417.125 74.7656 416.848 74.7188V73.2305C417.137 73.3242 417.496 73.4062 417.926 73.4766V67.5586C417.719 67.5938 417.525 67.6328 417.346 67.6758C417.166 67.7188 417 67.7617 416.848 67.8047V66.4336C417.066 66.3945 417.307 66.3555 417.568 66.3164C417.791 66.2852 418.051 66.2559 418.348 66.2285C418.645 66.1973 418.961 66.1758 419.297 66.1641L423.223 72.6914ZM429.844 69.4688C429.996 69.5 430.15 69.5215 430.307 69.5332C430.463 69.5449 430.621 69.5508 430.781 69.5508C431.297 69.5508 431.719 69.4629 432.047 69.2871C432.375 69.1113 432.633 68.8691 432.82 68.5605C433.008 68.252 433.139 67.8887 433.213 67.4707C433.287 67.0488 433.328 66.5938 433.336 66.1055C433.672 66.1211 433.988 66.1445 434.285 66.1758C434.582 66.2031 434.846 66.2324 435.076 66.2637C435.342 66.2988 435.59 66.3359 435.82 66.375V67.8633C435.762 67.8438 435.686 67.8223 435.592 67.7988C435.502 67.7754 435.4 67.752 435.287 67.7285C435.178 67.7012 435.059 67.6758 434.93 67.6523C434.805 67.625 434.676 67.5977 434.543 67.5703C434.516 67.8203 434.475 68.0684 434.42 68.3145C434.369 68.5566 434.297 68.7891 434.203 69.0117C434.109 69.2344 433.99 69.4395 433.846 69.627C433.705 69.8105 433.531 69.9688 433.324 70.1016C433.598 70.1914 433.84 70.3242 434.051 70.5C434.262 70.6758 434.443 70.8789 434.596 71.1094C434.752 71.3359 434.881 71.584 434.982 71.8535C435.088 72.123 435.172 72.3965 435.234 72.6738C435.297 72.9512 435.342 73.2285 435.369 73.5059C435.396 73.7793 435.41 74.0352 435.41 74.2734C435.41 74.4023 435.406 74.5273 435.398 74.6484C435.395 74.7656 435.387 74.875 435.375 74.9766H433.992C434.012 74.8359 434.023 74.7012 434.027 74.5723C434.035 74.4395 434.039 74.3086 434.039 74.1797C434.039 73.6719 433.979 73.2148 433.857 72.8086C433.736 72.4023 433.566 72.0586 433.348 71.7773C433.129 71.4922 432.867 71.2754 432.562 71.127C432.262 70.9746 431.93 70.8984 431.566 70.8984C431.32 70.8984 431.111 70.9043 430.939 70.916C430.768 70.9277 430.617 70.9453 430.488 70.9688C430.359 70.9883 430.244 71.0117 430.143 71.0391C430.045 71.0664 429.945 71.0938 429.844 71.1211V74.9766H428.402V67.6172C428.18 67.6641 427.973 67.709 427.781 67.752C427.594 67.791 427.453 67.8281 427.359 67.8633V66.375C427.582 66.3359 427.828 66.2988 428.098 66.2637C428.324 66.2324 428.588 66.2031 428.889 66.1758C429.189 66.1445 429.508 66.1211 429.844 66.1055V69.4688ZM441.48 65.8477C441.723 65.8477 441.969 65.873 442.219 65.9238C442.469 65.9707 442.691 66.0352 442.887 66.1172C443.23 66.7188 443.543 67.332 443.824 67.957C444.109 68.5781 444.363 69.2188 444.586 69.8789C444.738 69.8984 444.893 69.9199 445.049 69.9434C445.205 69.9629 445.363 69.9844 445.523 70.0078V71.5078L445.02 71.3672C445.16 71.9492 445.279 72.543 445.377 73.1484C445.475 73.7539 445.547 74.3711 445.594 75H444.199C444.141 74.3281 444.043 73.6641 443.906 73.0078C443.77 72.3516 443.613 71.7227 443.438 71.1211C443.059 71.0898 442.697 71.0664 442.354 71.0508C442.014 71.0352 441.723 71.0273 441.48 71.0273C441.156 71.0273 440.834 71.0332 440.514 71.0449C440.193 71.0566 439.871 71.0781 439.547 71.1094C439.371 71.7109 439.213 72.3398 439.072 72.9961C438.936 73.6523 438.84 74.3203 438.785 75H437.391C437.434 74.3711 437.502 73.7559 437.596 73.1543C437.693 72.5527 437.812 71.9609 437.953 71.3789L437.496 71.5078V70.0078L438.398 69.8789C438.617 69.2188 438.867 68.5781 439.148 67.957C439.434 67.332 439.75 66.7188 440.098 66.1172C440.293 66.0352 440.514 65.9707 440.76 65.9238C441.006 65.873 441.246 65.8477 441.48 65.8477ZM441.48 69.7031C441.715 69.7031 441.957 69.707 442.207 69.7148C442.457 69.7188 442.715 69.7305 442.98 69.75C442.781 69.207 442.584 68.7363 442.389 68.3379C442.197 67.9355 442.031 67.625 441.891 67.4062C441.82 67.375 441.754 67.3535 441.691 67.3418C441.629 67.3301 441.559 67.3242 441.48 67.3242C441.355 67.3242 441.227 67.3516 441.094 67.4062C440.953 67.625 440.785 67.9355 440.59 68.3379C440.395 68.7363 440.199 69.207 440.004 69.75C440.262 69.7305 440.514 69.7188 440.76 69.7148C441.01 69.707 441.25 69.7031 441.48 69.7031Z" fill="#CACACA"/>
<path id="SACKO" d="M397.875 88.0703C398.406 88.0703 398.92 88.1035 399.416 88.1699C399.916 88.2324 400.363 88.3418 400.758 88.498C401.156 88.6504 401.482 88.8574 401.736 89.1191C401.994 89.3809 402.145 89.707 402.188 90.0977L400.664 90.5195C400.664 90.2852 400.584 90.0938 400.424 89.9453C400.268 89.793 400.059 89.6738 399.797 89.5879C399.539 89.498 399.242 89.4355 398.906 89.4004C398.574 89.3652 398.23 89.3477 397.875 89.3477C397.527 89.3477 397.186 89.3633 396.85 89.3945C396.514 89.4258 396.211 89.4844 395.941 89.5703C395.676 89.6562 395.461 89.7754 395.297 89.9277C395.133 90.0801 395.051 90.2773 395.051 90.5195V91.9141H402.188V94.9492C402.188 95.2109 402.129 95.4453 402.012 95.6523C401.898 95.8555 401.74 96.0332 401.537 96.1855C401.338 96.334 401.1 96.4609 400.822 96.5664C400.549 96.668 400.252 96.75 399.932 96.8125C399.615 96.875 399.281 96.9199 398.93 96.9473C398.578 96.9746 398.227 96.9883 397.875 96.9883C397.516 96.9883 397.162 96.9746 396.814 96.9473C396.467 96.9199 396.137 96.875 395.824 96.8125C395.512 96.75 395.221 96.668 394.951 96.5664C394.686 96.4609 394.451 96.334 394.248 96.1855C394.045 96.0332 393.881 95.8555 393.756 95.6523C393.631 95.4492 393.555 95.2148 393.527 94.9492L395.051 94.5273C395.051 94.7695 395.133 94.9668 395.297 95.1191C395.461 95.2715 395.676 95.3906 395.941 95.4766C396.211 95.5625 396.514 95.6211 396.85 95.6523C397.186 95.6836 397.527 95.6992 397.875 95.6992C398.23 95.6992 398.574 95.6836 398.906 95.6523C399.242 95.6172 399.539 95.5566 399.797 95.4707C400.059 95.3809 400.268 95.2598 400.424 95.1074C400.584 94.9551 400.664 94.7617 400.664 94.5273V93.0977H393.527V90.0977C393.527 89.8359 393.584 89.6055 393.697 89.4062C393.814 89.2031 393.973 89.0273 394.172 88.8789C394.375 88.7266 394.615 88.5996 394.893 88.498C395.17 88.3926 395.469 88.3086 395.789 88.2461C396.113 88.1836 396.451 88.1387 396.803 88.1113C397.158 88.084 397.516 88.0703 397.875 88.0703ZM407.73 87.8477C407.973 87.8477 408.219 87.873 408.469 87.9238C408.719 87.9707 408.941 88.0352 409.137 88.1172C409.48 88.7188 409.793 89.332 410.074 89.957C410.359 90.5781 410.613 91.2188 410.836 91.8789C410.988 91.8984 411.143 91.9199 411.299 91.9434C411.455 91.9629 411.613 91.9844 411.773 92.0078V93.5078L411.27 93.3672C411.41 93.9492 411.529 94.543 411.627 95.1484C411.725 95.7539 411.797 96.3711 411.844 97H410.449C410.391 96.3281 410.293 95.6641 410.156 95.0078C410.02 94.3516 409.863 93.7227 409.688 93.1211C409.309 93.0898 408.947 93.0664 408.604 93.0508C408.264 93.0352 407.973 93.0273 407.73 93.0273C407.406 93.0273 407.084 93.0332 406.764 93.0449C406.443 93.0566 406.121 93.0781 405.797 93.1094C405.621 93.7109 405.463 94.3398 405.322 94.9961C405.186 95.6523 405.09 96.3203 405.035 97H403.641C403.684 96.3711 403.752 95.7559 403.846 95.1543C403.943 94.5527 404.062 93.9609 404.203 93.3789L403.746 93.5078V92.0078L404.648 91.8789C404.867 91.2188 405.117 90.5781 405.398 89.957C405.684 89.332 406 88.7188 406.348 88.1172C406.543 88.0352 406.764 87.9707 407.01 87.9238C407.256 87.873 407.496 87.8477 407.73 87.8477ZM407.73 91.7031C407.965 91.7031 408.207 91.707 408.457 91.7148C408.707 91.7188 408.965 91.7305 409.23 91.75C409.031 91.207 408.834 90.7363 408.639 90.3379C408.447 89.9355 408.281 89.625 408.141 89.4062C408.07 89.375 408.004 89.3535 407.941 89.3418C407.879 89.3301 407.809 89.3242 407.73 89.3242C407.605 89.3242 407.477 89.3516 407.344 89.4062C407.203 89.625 407.035 89.9355 406.84 90.3379C406.645 90.7363 406.449 91.207 406.254 91.75C406.512 91.7305 406.764 91.7188 407.01 91.7148C407.26 91.707 407.5 91.7031 407.73 91.7031ZM417.492 87.918C418.082 87.918 418.641 87.9707 419.168 88.0762C419.695 88.1777 420.154 88.3223 420.545 88.5098C420.939 88.6973 421.252 88.9219 421.482 89.1836C421.713 89.4414 421.828 89.7266 421.828 90.0391V91.0703H420.281V90.4961C420.281 90.3281 420.217 90.168 420.088 90.0156C419.959 89.8594 419.773 89.7246 419.531 89.6113C419.293 89.4941 419.002 89.4023 418.658 89.3359C418.314 89.2656 417.926 89.2305 417.492 89.2305C417.074 89.2305 416.693 89.2637 416.35 89.3301C416.006 89.3926 415.711 89.4805 415.465 89.5938C415.219 89.707 415.027 89.8418 414.891 89.998C414.758 90.1504 414.691 90.3164 414.691 90.4961V94.6328C414.691 94.8047 414.758 94.9668 414.891 95.1191C415.027 95.2715 415.219 95.4043 415.465 95.5176C415.711 95.627 416.006 95.7148 416.35 95.7812C416.693 95.8438 417.074 95.875 417.492 95.875C417.926 95.875 418.314 95.8418 418.658 95.7754C419.002 95.7051 419.293 95.6133 419.531 95.5C419.773 95.3867 419.959 95.2559 420.088 95.1074C420.217 94.9551 420.281 94.7969 420.281 94.6328V94.0469H421.828V95.0781C421.828 95.2852 421.775 95.4824 421.67 95.6699C421.564 95.8535 421.416 96.0234 421.225 96.1797C421.037 96.3359 420.811 96.4766 420.545 96.6016C420.283 96.7227 419.99 96.8281 419.666 96.918C419.346 97.0039 419.002 97.0703 418.635 97.1172C418.268 97.1641 417.887 97.1875 417.492 97.1875C417.098 97.1875 416.717 97.1641 416.35 97.1172C415.982 97.0703 415.637 97.0039 415.312 96.918C414.992 96.8281 414.699 96.7227 414.434 96.6016C414.172 96.4766 413.945 96.3359 413.754 96.1797C413.566 96.0234 413.42 95.8535 413.314 95.6699C413.209 95.4824 413.156 95.2852 413.156 95.0781V90.0391C413.156 89.832 413.209 89.6348 413.314 89.4473C413.42 89.2598 413.566 89.0879 413.754 88.9316C413.945 88.7754 414.172 88.6348 414.434 88.5098C414.699 88.3848 414.992 88.2793 415.312 88.1934C415.637 88.1035 415.982 88.0352 416.35 87.9883C416.717 87.9414 417.098 87.918 417.492 87.918ZM425.543 91.4688C425.695 91.5 425.85 91.5215 426.006 91.5332C426.162 91.5449 426.32 91.5508 426.48 91.5508C426.996 91.5508 427.418 91.4629 427.746 91.2871C428.074 91.1113 428.332 90.8691 428.52 90.5605C428.707 90.252 428.838 89.8887 428.912 89.4707C428.986 89.0488 429.027 88.5938 429.035 88.1055C429.371 88.1211 429.688 88.1445 429.984 88.1758C430.281 88.2031 430.545 88.2324 430.775 88.2637C431.041 88.2988 431.289 88.3359 431.52 88.375V89.8633C431.461 89.8438 431.385 89.8223 431.291 89.7988C431.201 89.7754 431.1 89.752 430.986 89.7285C430.877 89.7012 430.758 89.6758 430.629 89.6523C430.504 89.625 430.375 89.5977 430.242 89.5703C430.215 89.8203 430.174 90.0684 430.119 90.3145C430.068 90.5566 429.996 90.7891 429.902 91.0117C429.809 91.2344 429.689 91.4395 429.545 91.627C429.404 91.8105 429.23 91.9688 429.023 92.1016C429.297 92.1914 429.539 92.3242 429.75 92.5C429.961 92.6758 430.143 92.8789 430.295 93.1094C430.451 93.3359 430.58 93.584 430.682 93.8535C430.787 94.123 430.871 94.3965 430.934 94.6738C430.996 94.9512 431.041 95.2285 431.068 95.5059C431.096 95.7793 431.109 96.0352 431.109 96.2734C431.109 96.4023 431.105 96.5273 431.098 96.6484C431.094 96.7656 431.086 96.875 431.074 96.9766H429.691C429.711 96.8359 429.723 96.7012 429.727 96.5723C429.734 96.4395 429.738 96.3086 429.738 96.1797C429.738 95.6719 429.678 95.2148 429.557 94.8086C429.436 94.4023 429.266 94.0586 429.047 93.7773C428.828 93.4922 428.566 93.2754 428.262 93.127C427.961 92.9746 427.629 92.8984 427.266 92.8984C427.02 92.8984 426.811 92.9043 426.639 92.916C426.467 92.9277 426.316 92.9453 426.188 92.9688C426.059 92.9883 425.943 93.0117 425.842 93.0391C425.744 93.0664 425.645 93.0938 425.543 93.1211V96.9766H424.102V89.6172C423.879 89.6641 423.672 89.709 423.48 89.752C423.293 89.791 423.152 89.8281 423.059 89.8633V88.375C423.281 88.3359 423.527 88.2988 423.797 88.2637C424.023 88.2324 424.287 88.2031 424.588 88.1758C424.889 88.1445 425.207 88.1211 425.543 88.1055V91.4688ZM437.285 87.9297C437.676 87.9297 438.055 87.9531 438.422 88C438.789 88.0469 439.133 88.1152 439.453 88.2051C439.773 88.291 440.066 88.3965 440.332 88.5215C440.598 88.6426 440.824 88.7812 441.012 88.9375C441.199 89.0938 441.346 89.2656 441.451 89.4531C441.557 89.6367 441.609 89.832 441.609 90.0391V95.0664C441.609 95.2734 441.557 95.4707 441.451 95.6582C441.346 95.8418 441.199 96.0117 441.012 96.168C440.824 96.3242 440.598 96.4648 440.332 96.5898C440.066 96.7109 439.773 96.8164 439.453 96.9062C439.133 96.9922 438.789 97.0586 438.422 97.1055C438.055 97.1523 437.676 97.1758 437.285 97.1758C436.895 97.1758 436.516 97.1523 436.148 97.1055C435.785 97.0586 435.443 96.9922 435.123 96.9062C434.807 96.8164 434.516 96.7109 434.25 96.5898C433.984 96.4648 433.756 96.3242 433.564 96.168C433.377 96.0117 433.23 95.8418 433.125 95.6582C433.023 95.4707 432.973 95.2734 432.973 95.0664V90.0391C432.973 89.832 433.023 89.6367 433.125 89.4531C433.23 89.2656 433.377 89.0938 433.564 88.9375C433.756 88.7812 433.984 88.6426 434.25 88.5215C434.516 88.3965 434.807 88.291 435.123 88.2051C435.443 88.1152 435.785 88.0469 436.148 88C436.516 87.9531 436.895 87.9297 437.285 87.9297ZM440.074 90.4844C440.074 90.3164 440.01 90.1582 439.881 90.0098C439.752 89.8574 439.566 89.7246 439.324 89.6113C439.086 89.4941 438.795 89.4023 438.451 89.3359C438.107 89.2656 437.719 89.2305 437.285 89.2305C436.867 89.2305 436.488 89.2637 436.148 89.3301C435.809 89.3926 435.516 89.4805 435.27 89.5938C435.027 89.707 434.84 89.8398 434.707 89.9922C434.574 90.1445 434.508 90.3086 434.508 90.4844V94.6211C434.508 94.793 434.574 94.9551 434.707 95.1074C434.84 95.2598 435.027 95.3926 435.27 95.5059C435.516 95.6191 435.809 95.709 436.148 95.7754C436.488 95.8418 436.867 95.875 437.285 95.875C437.719 95.875 438.107 95.8418 438.451 95.7754C438.795 95.7051 439.086 95.6113 439.324 95.4941C439.566 95.377 439.752 95.2441 439.881 95.0957C440.01 94.9434 440.074 94.7852 440.074 94.6211V90.4844Z" fill="#CACACA"/>
<path id="Vector_7" d="M45.1729 398.396L44.5414 397.014C53.0079 391.595 63.5449 384.852 69.0484 373.785C74.4737 362.876 74.5955 348.061 69.3661 335.123C64.9159 324.112 56.741 314.247 45.7254 306.595C43.5526 305.085 41.2717 303.655 39.0659 302.271C33.7341 298.927 28.2208 295.469 23.6748 290.563C17.4135 283.806 12.6761 272.466 16.207 262.366C17.3683 259.142 19.2701 256.368 21.6965 254.359C24.123 252.35 26.9768 251.186 29.934 251L30.0088 252.569C27.2997 252.739 24.6851 253.804 22.4617 255.644C20.2384 257.484 18.4952 260.024 17.4302 262.977C14.149 272.363 18.6508 283.014 24.5694 289.402C28.9912 294.174 34.429 297.585 39.6876 300.883C41.9059 302.274 44.2 303.713 46.3977 305.24C57.6424 313.052 65.999 323.151 70.5639 334.445C75.9812 347.848 75.8391 363.228 70.1927 374.582C64.5016 386.026 53.7844 392.885 45.1729 398.396Z" fill="#2F2E41"/>
</g>
</svg>
