
<svg width="1002" height="593" viewBox="0 0 1002 593" fill="none" xmlns="http://www.w3.org/2000/svg">
<style>
   body{
    margin: 0;
    padding: 0;
    text-align: right;
}

#ligne {
    animation: ligne 3s  infinite linear;
    
}

@keyframes ligne {
    from{
        transform: translateZ(0%);
    }
    to{
        transform: translateX(2%);
    }
}

#tableau {
    animation: tableau 3s  infinite linear;
    
}

@keyframes tableau {
    from{
        transform: rotateX(0deg);
    }
    to{
        transform: rotateZ(3deg);
    }
}

#bras-g, #main-g, #bras-d, #main-d {
    animation: bras 1s  infinite linear;
    transform-origin: center;
    
    
}

@keyframes bras {
    from{
        transform: translateZ(2%);
    }
    to{
        transform: translateX(0%);
    }
}
#html{
    animation: html 6s infinite linear;
    transform-origin: center;
    transform: translate(50px);

}
@keyframes html{
   
    from{
        transform: translateY(0%);
    }
    to{
        transform: translateX(50%);
    }
   


}
#css{
    animation: css 3s ease-in infinite;
    transform-origin: center;
    transform: translate(100px);

}
@keyframes css{
  
    from{
        transform: translateX(0%);
    }
    to{
        transform: translateY(80%);
    }
  
  
  


}

#point2 {
    animation: point2 4s  infinite linear
    
}

@keyframes point2 {
    from{
        transform: translateX(0%);
    }
    to{
        transform: translateY(80%);
    }
}



#point3 {
    animation: point3 3s  infinite linear
    
}

@keyframes point3 {
    from{
        transform: translateX(0%);
    }
    to{
        transform: translateY(50%);
    }
}

#point4 {
    animation: point4 5s  infinite linear
    
}

@keyframes point4 {
    from{
        transform: translateY(0%);
    }
    to{
        transform: translateY(30%);
    }
}

#point1 {
    animation: point 4s  infinite linear
    
}

@keyframes point  {
    from{
        transform: translateX(20%);
    }
    to{
        transform: translateZ(30%);
    }
}

#tete {
    animation: tete 5s  infinite linear
    
}

@keyframes tete {
    from{
        margin-right: translateY(5%);
    }
    to{
        margin-left: translateY(5%);
    }
}








</style>
<rect width="1002" height="593" fill="white"/>
<g id="webmaster" clip-path="url(#clip0_0:1)">
<path id="tableau" d="M437.348 6.92284L356.677 332.749L862.392 496.086L943.063 170.26L437.348 6.92284Z" fill="#3F3D56"/>
<path id="point4" d="M446.084 25.3343C448.398 25.3343 450.273 23.1926 450.273 20.5506C450.273 17.9086 448.398 15.7669 446.084 15.7669C443.771 15.7669 441.896 17.9086 441.896 20.5506C441.896 23.1926 443.771 25.3343 446.084 25.3343Z" fill="white"/>
<path id="point3" d="M458.981 29.4998C461.295 29.4998 463.17 27.358 463.17 24.716C463.17 22.0741 461.295 19.9323 458.981 19.9323C456.668 19.9323 454.793 22.0741 454.793 24.716C454.793 27.358 456.668 29.4998 458.981 29.4998Z" fill="white"/>
<path id="point2" d="M471.878 33.6652C474.191 33.6652 476.067 31.5235 476.067 28.8815C476.067 26.2395 474.191 24.0978 471.878 24.0978C469.565 24.0978 467.69 26.2395 467.69 28.8815C467.69 31.5235 469.565 33.6652 471.878 33.6652Z" fill="white"/>
<path id="logo" d="M705.737 213.671C698.967 212.209 692.003 212.397 685.301 214.222C687.253 206.569 687.745 198.527 686.746 190.638C679.844 193.491 673.599 198.094 668.479 204.101C666.872 195.921 663.662 188.264 659.09 181.705C654.622 187.828 651.354 194.974 649.507 202.661C644.634 197.098 638.788 192.773 632.35 189.969C632.35 189.969 629.3 207.686 636.643 222.225C643.179 235.165 655.737 241.22 658.421 242.396L658.484 242.483L658.518 242.439C658.79 242.557 658.943 242.617 658.943 242.617C658.943 242.617 659 242.277 659.08 241.669C659.128 241.601 659.177 241.532 659.23 241.456C659.241 241.553 659.251 241.641 659.26 241.728C659.05 242.293 658.943 242.617 658.943 242.617C658.943 242.617 659.1 242.657 659.387 242.719L659.395 242.777L659.488 242.741C662.315 243.345 675.789 245.697 687.29 238.583C700.212 230.59 705.737 213.671 705.737 213.671Z" fill="white"/>
<path id="point1" d="M680.674 168.412C686.689 168.412 691.564 162.844 691.564 155.974C691.564 149.105 686.689 143.537 680.674 143.537C674.66 143.537 669.785 149.105 669.785 155.974C669.785 162.844 674.66 168.412 680.674 168.412Z" fill="white"/>
<path id="ligne" d="M817.407 317.459L490.147 211.76L488.134 219.892L815.394 325.591L817.407 317.459Z" fill="white"/>
<path id="carre1" d="M567.172 280.385L510.748 262.161L494.792 326.606L551.216 344.83L567.172 280.385Z" fill="white"/>
<path id="carre2" d="M671.96 314.23L615.536 296.006L599.58 360.451L656.004 378.675L671.96 314.23Z" fill="white"/>
<path id="carre3" d="M776.748 348.074L720.324 329.85L704.368 394.295L760.792 412.519L776.748 348.074Z" fill="white"/>
<path id="tiret1" d="M540.77 355.376L498.855 341.838L497.488 347.362L539.403 360.9L540.77 355.376Z" fill="white"/>
<path id="tiret2" d="M645.558 389.22L603.643 375.683L602.275 381.206L644.191 394.744L645.558 389.22Z" fill="white"/>
<path id="tiret3" d="M750.346 423.065L708.431 409.527L707.063 415.051L748.979 428.589L750.346 423.065Z" fill="white"/>
<path id="ombre-html" d="M285.855 458.842C440.676 458.842 566.182 453.542 566.182 447.005C566.182 440.467 440.676 435.167 285.855 435.167C131.035 435.167 5.52777 440.467 5.52777 447.005C5.52777 453.542 131.035 458.842 285.855 458.842Z" fill="#2D32B4" fill-opacity="0.44"/>
<path id="ombre-css" d="M783.858 593C904.335 593 1002 587.7 1002 581.163C1002 574.625 904.335 569.325 783.858 569.325C663.382 569.325 565.716 574.625 565.716 581.163C565.716 587.7 663.382 593 783.858 593Z" fill="#D0CDE1"/>
<path id="css" d="M676.868 489.281H739.801V519.341H703.187V549.401H739.805V579.459H676.868V489.281ZM752.39 489.281H815.325V515.42H778.708V520.648H815.325V580.767H752.391V553.318H789.007V548.091H752.388V489.281H752.39ZM827.913 489.281H890.848V515.42H854.232V520.648H890.848V580.767H827.913V553.318H864.529V548.091H827.915V489.281H827.913Z" fill="#3F3D56"/>
<path id="html" d="M126.828 351.741H152.79V381.038H176.54V351.741H202.504V440.458H176.542V410.751H152.792V440.458H126.83V351.741H126.828ZM236.643 381.162H213.791V351.741H285.477V381.162H262.61V440.458H236.648V381.162H236.643ZM296.854 351.741H323.925L340.577 382.914L357.213 351.741H384.295V440.458H358.438V396.485L340.577 428.029H340.129L322.256 396.485V440.458H296.854V351.741ZM397.215 351.741H423.185V411.134H459.695V440.458H397.214V351.741H397.215Z" fill="#3F3D56"/>
<path id="Vector" d="M80.9731 412.722L78.843 440.306L95.8897 438.682V415.156L80.9731 412.722Z" fill="#FFB8B8"/>
<path id="Vector_2" d="M65.3468 412.722L67.4779 440.306L50.4313 438.682V415.156L65.3468 412.722Z" fill="#FFB8B8"/>
<path id="pantalon" d="M110.096 200.984C110.096 200.984 115.778 239.924 115.778 245.603C115.778 251.282 113.647 287.789 110.096 295.09C106.544 302.391 105.834 305.636 107.254 308.881C108.675 312.126 107.965 311.315 107.254 313.749C106.544 316.183 105.123 315.371 107.254 318.616C108.125 320.045 108.591 321.744 108.591 323.484C108.591 325.224 108.125 326.923 107.254 328.352C105.834 330.785 110.096 396.497 104.413 401.365C98.7308 406.233 97.3102 422.458 97.3102 422.458L78.8426 420.024V402.176C78.8426 402.176 74.5808 389.196 77.422 381.084C80.2632 372.971 81.6838 329.974 81.6838 329.974C81.6838 329.974 80.9735 325.918 81.6838 323.484C82.3941 321.05 81.6838 319.428 80.2632 318.616C78.8426 317.805 78.1323 314.56 78.1323 314.56L76.0014 255.338L67.4779 313.749C67.4779 313.749 76.0014 393.252 67.4779 403.799V422.458H49.0103L51.8514 402.176C51.8514 402.176 46.1691 383.517 49.0103 379.461C51.8514 375.405 40.4867 310.504 41.9073 308.07C43.3279 305.636 42.6176 304.825 41.9073 303.203C41.197 301.58 39.0662 299.957 39.7764 298.335C40.4867 296.712 39.7764 293.467 39.7764 293.467C39.7764 293.467 26.2809 217.209 32.6735 209.908C39.0662 202.606 110.096 200.984 110.096 200.984Z" fill="black"/>
<path id="chaussure-g" d="M83.1044 429.759C83.1044 429.759 84.525 421.979 95.8897 424.652C95.8897 424.652 98.7308 431.382 98.7308 434.627C98.7308 437.872 101.572 459.776 101.572 459.776C101.572 459.776 112.937 481.68 98.7308 481.68C84.5249 481.68 79.5529 476.001 78.8426 470.322C78.1323 464.643 79.5529 463.021 76.7117 460.587C73.8705 458.153 72.45 458.153 73.1603 454.908C73.8705 451.663 75.2911 435.438 75.2911 435.438C75.2911 435.438 76.0014 423.269 79.908 426.514L83.8147 429.759" fill="black"/>
<path id="chaussure-d" d="M63.2162 429.759C63.2162 429.759 61.7956 421.979 50.4309 424.652C50.4309 424.652 47.5897 431.382 47.5897 434.627C47.5897 437.872 44.7486 459.776 44.7486 459.776C44.7486 459.776 33.3839 481.68 47.5897 481.68C61.7956 481.68 66.7677 476.001 67.478 470.322C68.1882 464.643 66.7677 463.021 69.6088 460.587C72.45 458.153 73.8706 458.153 73.1603 454.908C72.45 451.663 71.0294 435.438 71.0294 435.438C71.0294 435.438 70.3191 423.269 66.4125 426.514L62.5059 429.759" fill="black"/>
<path id="tete" d="M83.8147 51.712C94.4064 51.712 102.993 41.9052 102.993 29.8079C102.993 17.7107 94.4064 7.90393 83.8147 7.90393C73.223 7.90393 64.6368 17.7107 64.6368 29.8079C64.6368 41.9052 73.223 51.712 83.8147 51.712Z" fill="#674F4F"/>
<path id="cou" d="M68.1882 33.053C68.1882 33.053 60.375 67.9372 58.9544 68.7484C57.5338 69.5597 91.6279 72.8047 91.6279 72.8047C91.6279 72.8047 83.1044 42.7881 91.6279 37.9206L68.1882 33.053Z" fill="#674F4F"/>
<path id="t-shirt" d="M63.1984 54.3112L63.1975 54.3067L39.7764 72.8048L44.0382 218.02C44.0382 218.02 75.2911 213.964 82.3941 214.775C89.497 215.587 112.226 207.474 112.226 207.474L102.271 71.021C102.076 68.3547 101.053 65.8559 99.3858 63.976C97.7189 62.0962 95.5182 60.9595 93.1814 60.7713L88.9155 60.4277C88.9155 60.4277 84.6541 72.4786 71.8325 66.2615C69.6708 65.1874 67.7618 63.5451 66.2614 61.4684C64.7609 59.3916 63.7114 56.9393 63.1984 54.3112V54.3112Z" fill="white"/>
<path id="veste-cote-d" d="M63.7647 52.9867L34.8044 68.7484L29.122 162.043C29.122 162.043 17.7573 218.02 26.9911 234.245C36.225 250.471 51.8514 252.093 51.8514 252.093C51.8514 252.093 72.4499 158.798 66.7676 127.159C61.0852 95.5201 63.7647 52.9867 63.7647 52.9867Z" fill="#3F3D56"/>
<path id="main-d" d="M9.23381 193.682V205.851C9.23381 205.851 4.97205 232.623 18.4676 231.812C31.9632 231 25.5706 202.606 25.5706 202.606L21.3088 193.682H9.23381Z" fill="#674F4F"/>
<path id="main-g" d="M134.246 218.02L132.825 231.812C132.825 231.812 139.928 259.395 126.432 260.206C112.937 261.017 122.733 231.981 122.733 231.981L127.143 216.398L134.246 218.02Z" fill="#674F4F"/>
<path id="veste-cote-g" d="M88.4882 57.5925C101.43 61.2335 113.424 68.3541 123.468 78.3612L123.591 78.4835L113.647 138.517L112.226 160.421C112.226 160.421 138.507 267.507 107.965 252.093C107.965 252.093 81.6838 158.798 85.2353 115.802C88.7867 72.8047 88.4882 57.5925 88.4882 57.5925Z" fill="#3F3D56"/>
<path id="bras-g" d="M114.357 77.6723C115.068 76.861 123.591 78.7997 123.591 78.7997C123.591 78.7997 139.218 141.762 139.218 152.308C139.218 162.855 141.348 222.888 141.348 222.888L122.599 225.046L107.423 141.636L114.357 77.6723Z" fill="#3F3D56"/>
<path id="bras-d" d="M39.7765 68.7485H34.8044C34.8044 68.7485 20.5985 75.2386 19.8882 82.5399C19.1779 89.8412 0 163.666 0 163.666L4.97206 200.984L23.4397 197.739L26.9912 156.365L45.4588 110.934L39.7765 68.7485Z" fill="#3F3D56"/>
<path id="cheveux" d="M80.0889 35.9211L80.8242 30.0668C80.9956 28.7023 81.6948 26.9081 82.8571 27.2792C83.8458 27.5949 85.9997 28.5615 86.3603 28.2697C87.7108 27.177 89.7545 29.0876 91.1747 28.1169C91.7697 27.7103 92.1578 26.839 92.8494 26.7808C93.3134 26.8147 93.7505 27.0409 94.0788 27.4169C95.0007 28.3326 96.0869 29.0066 97.2612 29.3915C97.8503 29.5747 98.4717 29.5747 99.0608 29.3913C99.6499 29.2079 100.185 28.8478 100.612 28.3485C100.762 28.0825 100.965 27.8604 101.204 27.6999C101.485 27.6075 101.784 27.6232 102.056 27.7446L105.684 28.873C106.218 26.663 106.328 24.3474 106.006 22.0846C105.684 19.8218 104.938 17.665 103.819 15.7618C102.347 13.4796 100.562 11.4835 98.5341 9.8502C96.2869 7.89767 93.9679 6.06117 91.577 4.3407C89.0421 2.29229 86.1649 0.862582 83.1247 0.140787C80.0648 -0.389925 76.6385 0.559569 74.7138 3.32788C73.8085 2.57951 73.128 1.52959 72.7657 0.322101C72.5499 0.546358 72.3798 0.822 72.2675 1.12955C72.1551 1.43709 72.1033 1.76905 72.1155 2.102C72.1278 2.43495 72.2039 2.76076 72.3385 3.05644C72.473 3.35212 72.6628 3.61047 72.8943 3.81322L69.8255 1.57499C68.9628 2.60955 70.6483 4.48552 69.9133 5.64155C69.691 5.92747 69.4058 6.1402 69.0871 6.25765C67.4209 6.99942 65.8937 8.09727 64.5874 9.49237C62.9336 11.6444 61.7227 14.192 61.0436 16.9484C59.215 22.9403 57.8859 29.8119 60.4841 35.4208C60.7786 36.0566 64.6667 46.552 65.1847 46.9612C66.9357 48.3447 65.7959 44.9966 67.0506 46.9612C68.0345 48.5019 67.8503 42.6053 69.3126 43.8996C69.8859 44.3681 70.5658 44.6367 71.27 44.6729C71.9742 44.709 72.6725 44.5112 73.2803 44.1034C73.8865 43.6232 73.6912 40.9566 73.3641 38.5079C73.3015 38.0415 73.3401 37.5646 73.4764 37.1192C73.6127 36.6737 73.8426 36.2733 74.1459 35.9529C74.4492 35.6326 74.8167 35.4021 75.2162 35.2816C75.6157 35.1612 76.0349 35.1546 76.4371 35.2622C78.2584 35.7516 80.0577 36.1697 80.0889 35.9211Z" fill="#2F2E41"/>
<path id="Vector_3" opacity="0.2" d="M116.133 151.091L123.946 224.916H118.974L116.133 151.091Z" fill="black"/>
<path id="Vector_4" opacity="0.2" d="M33.739 122.697L29.7888 151.091L37.2905 122.697H35.1594H33.739Z" fill="black"/>
</g>
<defs>
<clipPath id="clip0_0:1">
<rect width="1002" height="593" fill="white"/>
</clipPath>
</defs>
</svg>
